<svg width="96" height="96" fill="none" xmlns="http://www.w3.org/2000/svg"><circle cx="48" cy="48" r="47" stroke="#0F0B22" stroke-opacity=".3" stroke-width="2"/><g clip-path="url(#clip0_213_168)" fill="#0F0B22" fill-opacity=".3"><path d="M34.6 33.423a1.354 1.354 0 00-2.625.665l8.843 34.89a1.354 1.354 0 102.624-.664L34.6 33.423zm29.434 9.827l-4.325-15.964c-.157-.576-.43-1.194-1.46-1.255-8.105-.587-13.426 7.484-21.531 6.897-.64-.08-1.05.254-.895.83 1.442 5.321 2.872 10.646 4.325 15.964.234.853.82 1.176 1.46 1.255 8.105.587 13.427-7.484 21.532-6.897.639.079 1.05-.254.894-.83zm-6.36-15.21l1.193 4.404c-1.705.056-3.21.4-4.804.997l-1.193-4.404c1.594-.597 3.099-.942 4.804-.998zM40.973 44.5l-1.356-5.005c1.792-.052 3.382-.44 5.045-1.098l-1.193-4.404c1.626-.727 3.16-1.597 4.696-2.496l1.193 4.404c-1.536.899-3.07 1.77-4.696 2.496l1.356 5.005c-1.663.657-3.253 1.045-5.045 1.097zm6.256 3.37l-1.21-4.469c1.614-.72 3.137-1.584 4.662-2.476l1.21 4.47c-1.524.891-3.047 1.754-4.662 2.475zm3.485-6.964L49.358 35.9c1.536-.896 3.07-1.754 4.705-2.46l1.356 5.005c-1.634.705-3.17 1.563-4.705 2.46zm5.944 1.998l-1.211-4.47c1.585-.59 3.082-.93 4.776-.986l1.21 4.47c-1.693.054-3.19.394-4.775.986z"/></g><defs><clipPath id="clip0_213_168"><path fill="#fff" transform="translate(26 26)" d="M0 0h44v44H0z"/></clipPath></defs></svg>