<svg width="96" height="96" fill="none" xmlns="http://www.w3.org/2000/svg"><circle cx="48" cy="48" r="47" stroke="#0F0B22" stroke-opacity=".3" stroke-width="2"/><g clip-path="url(#clip0_213_143)" fill="#0F0B22" fill-opacity=".3"><path d="M69.948 29.285a3.42 3.42 0 00-3.233-3.233c-3.527-.193-10.428-.006-17.027 3.408-3.364 1.74-6.922 4.69-9.76 8.094-.036.041-.07.084-.105.126l-6.443.498a3.402 3.402 0 00-2.592 1.525l-4.396 6.649a2.346 2.346 0 00-.19 2.252 2.346 2.346 0 001.795 1.376l5.428.84-.056.317a3.418 3.418 0 00.959 2.973l7.561 7.562a3.426 3.426 0 002.974.958c.105-.017.21-.036.316-.056l.841 5.43a2.346 2.346 0 001.375 1.793 2.35 2.35 0 002.253-.19l6.65-4.395a3.401 3.401 0 001.524-2.592l.498-6.444.126-.103c3.404-2.84 6.354-6.397 8.094-9.761 3.413-6.6 3.6-13.5 3.408-17.027zM54.875 63.06l-6.36 4.205-.82-5.29c2.689-.79 5.348-2.056 7.881-3.752l-.324 4.197a.84.84 0 01-.377.64zm-11.163-3.21l-7.562-7.562a.835.835 0 01-.238-.725 22.177 22.177 0 011.007-3.83L48.265 59.08a22.267 22.267 0 01-3.827 1.009.836.836 0 01-.726-.239zM33.578 40.748l4.198-.324c-1.696 2.533-2.962 5.192-3.752 7.88l-5.29-.819 4.204-6.36a.84.84 0 01.64-.377zm23.217 13.345c-2.083 1.737-4.104 2.993-5.967 3.902L38.004 45.172c1.19-2.433 2.644-4.458 3.903-5.967 2.627-3.15 5.895-5.867 8.966-7.455 6.056-3.133 12.437-3.302 15.702-3.124a.846.846 0 01.799.8c.178 3.264.009 9.645-3.124 15.701-1.588 3.07-4.305 6.338-7.455 8.966z"/><path d="M56.14 46.302c1.65 0 3.301-.628 4.557-1.885a6.402 6.402 0 001.888-4.557 6.4 6.4 0 00-1.888-4.557 6.452 6.452 0 00-9.114 0 6.403 6.403 0 00-1.888 4.557c0 1.722.67 3.34 1.888 4.557a6.423 6.423 0 004.557 1.885zm-2.734-9.176a3.855 3.855 0 012.734-1.131c.99 0 1.98.377 2.734 1.13a3.842 3.842 0 011.133 2.735 3.842 3.842 0 01-1.133 2.734 3.872 3.872 0 01-5.468 0 3.842 3.842 0 01-1.133-2.734c0-1.033.402-2.004 1.133-2.734zM27.315 62.26c.33 0 .66-.125.911-.377l4.209-4.209a1.29 1.29 0 00-1.823-1.823l-4.209 4.209a1.29 1.29 0 00.912 2.2zm8.977-2.552a1.29 1.29 0 00-1.823 0l-8.091 8.091a1.29 1.29 0 001.823 1.823l8.09-8.091a1.289 1.289 0 00.001-1.823zm2.034 3.857l-4.209 4.209a1.29 1.29 0 001.823 1.823l4.209-4.209a1.289 1.289 0 10-1.823-1.823z"/></g><defs><clipPath id="clip0_213_143"><path fill="#fff" transform="translate(26 26)" d="M0 0h44v44H0z"/></clipPath></defs></svg>