<svg width="965" height="342" fill="none" xmlns="http://www.w3.org/2000/svg"><path d="M37 294.499l85.5-32.5H216l70-29.5h93l78-42h90l87-33h98l87-41.5h81" stroke="#0F0B22" stroke-opacity=".15" stroke-width="3"/><path stroke="url(#paint0_linear_247_642)" stroke-width="2" d="M37 302.999v12"/><path stroke="url(#paint1_linear_247_642)" stroke-width="2" d="M37 252.999v36"/><path d="M2.304 337.999h2.108v-4.943h5.392v4.943h2.114v-11.636H9.804v4.926H4.412v-4.926H2.304v11.636zm15.622.17c2.557 0 4.182-1.801 4.182-4.5 0-2.704-1.625-4.511-4.182-4.511-2.557 0-4.182 1.807-4.182 4.511 0 2.699 1.625 4.5 4.182 4.5zm.012-1.647c-1.415 0-2.108-1.262-2.108-2.858 0-1.597.693-2.875 2.107-2.875 1.392 0 2.086 1.278 2.086 2.875 0 1.596-.694 2.858-2.085 2.858zm5.916 1.477h4.227c2.045 0 3.216-.926 3.216-2.369 0-1.222-.949-2.074-2.318-2.193 1.165-.216 1.892-.836 1.892-1.819 0-1.471-1.29-2.346-3.352-2.346h-3.665v8.727zm1.926-1.619v-2.165h2.301c.756 0 1.216.437 1.216 1.159 0 .625-.46 1.006-1.216 1.006H25.78zm0-3.495v-1.966h1.738c.858 0 1.381.364 1.381.961 0 .625-.506 1.005-1.34 1.005h-1.78zm9.197 2.33v-5.943h-1.983v8.727h2.12l3.483-5.949v5.949h1.988v-8.727h-2.113l-3.495 5.943zm15.01-5.943H48.01v4.261a6.2 6.2 0 01-1.534.193c-1.216 0-1.813-.432-1.813-1.557v-2.909h-1.966v2.909c0 2.228 1.45 3.245 3.779 3.245a6.89 6.89 0 001.534-.182v2.767h1.977v-8.727zm5.877 8.897c2.556 0 4.181-1.801 4.181-4.5 0-2.704-1.625-4.511-4.181-4.511-2.557 0-4.182 1.807-4.182 4.511 0 2.699 1.625 4.5 4.182 4.5zm.011-1.647c-1.415 0-2.108-1.262-2.108-2.858 0-1.597.693-2.875 2.108-2.875 1.392 0 2.085 1.278 2.085 2.875 0 1.596-.693 2.858-2.085 2.858zm5.916 1.477h2.057v-3.29h1.006l2.392 3.29h2.488l-3.267-4.443 3.233-4.284h-2.477l-2.625 3.522h-.75v-3.522h-2.057v8.727z" fill="url(#paint2_linear_247_642)"/><circle cx="36" cy="216.999" r="35" stroke="url(#paint3_linear_247_642)" stroke-width="2"/><path d="M19.584 224.241c3.36 0 5.327-2.742 5.327-7.508 0-4.73-1.996-7.478-5.327-7.478-3.338 0-5.326 2.741-5.334 7.478 0 4.759 1.968 7.5 5.334 7.508zm0-1.897c-1.967 0-3.153-1.974-3.153-5.611.007-3.622 1.193-5.618 3.153-5.618 1.953 0 3.146 1.996 3.146 5.618 0 3.637-1.186 5.611-3.146 5.611zm8.727 1.79c.774 0 1.42-.632 1.42-1.42 0-.775-.646-1.414-1.42-1.414-.781 0-1.42.639-1.42 1.414 0 .788.639 1.42 1.42 1.42zm8.803.064c2.927 0 5.015-2.067 5.007-4.901.008-2.812-1.953-4.858-4.602-4.858-1.08 0-2.08.412-2.649.966h-.085l.461-4.069h6.172v-1.882h-7.997l-.817 7.329 2.01.298c.547-.49 1.527-.823 2.408-.823 1.726.014 2.976 1.306 2.976 3.082 0 1.747-1.215 3.011-2.884 3.011-1.406 0-2.521-.895-2.635-2.145h-2.13c.085 2.316 2.095 3.992 4.765 3.992zm15.194-2.926c.007 1.64 1.037 3.025 2.962 3.025 1.903 0 2.947-1.385 2.947-3.025v-.767c0-1.648-1.016-3.026-2.947-3.026-1.897 0-2.955 1.385-2.962 3.026v.767zm-7.316-8.324c0 1.641 1.038 3.025 2.962 3.025 1.896 0 2.948-1.377 2.94-3.025v-.767c.008-1.648-1.015-3.026-2.94-3.026-1.889 0-2.962 1.378-2.962 3.026v.767zm.597 11.051h1.698l10-14.545h-1.698l-10 14.545zm8.374-3.494c.007-.817.362-1.605 1.306-1.605.98 0 1.286.788 1.286 1.605v.767c0 .817-.334 1.605-1.285 1.605-.966 0-1.3-.796-1.307-1.605v-.767zm-7.309-8.324c0-.81.356-1.605 1.3-1.605.98 0 1.286.788 1.286 1.605v.767c0 .817-.334 1.605-1.286 1.605-.966 0-1.3-.788-1.3-1.605v-.767z" fill="url(#paint4_linear_247_642)"/><circle cx="37" cy="294.999" r="7" fill="#fff" stroke="url(#paint5_linear_247_642)" stroke-width="2"/><path stroke="url(#paint6_linear_247_642)" stroke-width="2" d="M216 268.999v12"/><path stroke="url(#paint7_linear_247_642)" stroke-width="2" d="M216 216.999v36"/><path d="M129.62 303.999h1.409v-5.205h6.205v5.205h1.409v-11.636h-1.409v5.181h-6.205v-5.181h-1.409v11.636zm14.23.205c1.523 0 2.318-.819 2.591-1.387h.068v1.182h1.341v-5.75c0-2.773-2.113-3.091-3.227-3.091-1.318 0-2.818.455-3.5 2.046l1.273.454c.295-.636.994-1.318 2.272-1.318 1.233 0 1.841.653 1.841 1.773v.045c0 .648-.659.591-2.25.796-1.619.21-3.386.568-3.386 2.568 0 1.704 1.318 2.682 2.977 2.682zm.205-1.205c-1.068 0-1.841-.477-1.841-1.409 0-1.023.932-1.341 1.977-1.477.568-.069 2.091-.228 2.318-.5v1.227c0 1.091-.863 2.159-2.454 2.159zm12.97-7.727h-1.341v4.426a7.378 7.378 0 01-2.114.301c-1.091 0-1.932-.614-1.932-1.955v-2.795h-1.34v2.795c0 2.137 1.295 3.205 3.272 3.205.824 0 1.483-.108 2.114-.295v3.045h1.341v-8.727zm3.801 6.75v-6.75h-1.341v8.727h1.568l4.182-6.75v6.75h1.341v-8.727h-1.545l-4.205 6.75zm9.547-6.75h-1.341v8.727h1.341v-3.727h4.182v3.727h1.341v-8.727h-1.341v3.75h-4.182v-3.75zm10.54 8.932c1.522 0 2.318-.819 2.591-1.387h.068v1.182h1.341v-5.75c0-2.773-2.114-3.091-3.228-3.091-1.318 0-2.818.455-3.5 2.046l1.273.454c.296-.636.994-1.318 2.273-1.318 1.233 0 1.841.653 1.841 1.773v.045c0 .648-.659.591-2.25.796-1.62.21-3.387.568-3.387 2.568 0 1.704 1.319 2.682 2.978 2.682zm.204-1.205c-1.068 0-1.841-.477-1.841-1.409 0-1.023.932-1.341 1.978-1.477.568-.069 2.09-.228 2.318-.5v1.227c0 1.091-.864 2.159-2.455 2.159zm6.948-7.727h-1.341v8.727h1.341v-3.659h2.238c.239 2.335 1.756 3.841 3.921 3.841 2.363 0 3.954-1.796 3.954-4.5 0-2.727-1.591-4.523-3.954-4.523-2.188 0-3.716 1.54-3.926 3.932h-2.233v-3.818zm6.159 7.704c-1.796 0-2.614-1.545-2.614-3.295s.818-3.318 2.614-3.318c1.795 0 2.613 1.568 2.613 3.318s-.818 3.295-2.613 3.295zm18.045-.227h-1.295v-7.477h-1.341v7.477h-3.296v-7.477h-1.341v7.477h-3.295v-7.477h-1.341v8.727h10.364v2.5h1.386l.159-3.75zm3.291-.727v-6.75h-1.341v8.727h1.569l4.181-6.75v6.75h1.341v-8.727h-1.545l-4.205 6.75zm9.547 0v-6.75h-1.341v8.727h1.569l4.181-6.75v6.75h1.341v-8.727h-1.545l-4.205 6.75zm3.318-9.659c0 .591-.318 1.113-1.113 1.113-.796 0-1.091-.522-1.091-1.113h-1.25c0 1.227.909 2.091 2.341 2.091 1.454 0 2.363-.864 2.363-2.091h-1.25zm8.888 4.159h2.887v7.477h1.34v-7.477h2.864v-1.25h-7.091v1.25zm9.047 10.75h1.341v-4.614h.114c.295.477.863 1.523 2.545 1.523 2.182 0 3.705-1.75 3.705-4.523 0-2.75-1.523-4.5-3.728-4.5-1.704 0-2.227 1.046-2.522 1.5h-.159v-1.386h-1.296v12zm1.318-7.637c0-1.954.864-3.272 2.5-3.272 1.705 0 2.546 1.431 2.546 3.272 0 1.864-.864 3.341-2.546 3.341-1.613 0-2.5-1.363-2.5-3.341zm12.091 4.546c1.773 0 3.068-.887 3.477-2.205l-1.295-.363c-.341.909-1.131 1.363-2.182 1.363-1.574 0-2.659-1.017-2.721-2.886h6.335v-.568c0-3.25-1.932-4.364-3.75-4.364-2.364 0-3.932 1.864-3.932 4.546 0 2.681 1.545 4.477 4.068 4.477zm-2.721-5.25c.09-1.358 1.051-2.568 2.585-2.568 1.454 0 2.386 1.091 2.386 2.568h-4.971zm9.715 3.091v-6.75h-1.34v8.727h1.568l4.182-6.75v6.75h1.34v-8.727h-1.545l-4.205 6.75zm3.319-9.659c0 .591-.319 1.113-1.114 1.113-.795 0-1.091-.522-1.091-1.113h-1.25c0 1.227.909 2.091 2.341 2.091 1.455 0 2.364-.864 2.364-2.091h-1.25zm3.956 14.136h1.341v-2.5h6.454v2.5h1.341v-3.75h-1.341v-7.477h-5.545l-.296 3.454c-.21 2.443-.523 3.284-1.227 4.023h-.727v3.75zm2.25-3.75c.613-.807.835-2.199 1.022-4.023l.228-2.204h2.954v6.227h-4.204zm12.325 1.432c1.773 0 3.068-.887 3.477-2.205l-1.295-.363c-.341.909-1.131 1.363-2.182 1.363-1.574 0-2.659-1.017-2.722-2.886h6.336v-.568c0-3.25-1.932-4.364-3.75-4.364-2.364 0-3.932 1.864-3.932 4.546 0 2.681 1.545 4.477 4.068 4.477zm-2.722-5.25c.091-1.358 1.051-2.568 2.586-2.568 1.454 0 2.386 1.091 2.386 2.568h-4.972zm8.375 8.341h1.341v-4.614h.114c.295.477.864 1.523 2.545 1.523 2.182 0 3.705-1.75 3.705-4.523 0-2.75-1.523-4.5-3.727-4.5-1.705 0-2.228 1.046-2.523 1.5h-.159v-1.386h-1.296v12zm1.319-7.637c0-1.954.863-3.272 2.5-3.272 1.704 0 2.545 1.431 2.545 3.272 0 1.864-.864 3.341-2.545 3.341-1.614 0-2.5-1.363-2.5-3.341z" fill="url(#paint8_linear_247_642)"/><circle cx="215" cy="180.999" r="35" stroke="url(#paint9_linear_247_642)" stroke-width="2"/><path d="M208.846 173.454h-1.761l-3.637 2.414v1.79l3.551-2.358h.086v12.699h1.761v-14.545zm11.598 11.818c0 1.591.994 2.926 2.841 2.926 1.818 0 2.812-1.335 2.812-2.926v-.767c0-1.591-.966-2.926-2.812-2.926-1.818 0-2.841 1.335-2.841 2.926v.767zm-7.244-8.324c0 1.591.994 2.926 2.84 2.926 1.819 0 2.813-1.335 2.813-2.926v-.767c0-1.591-.966-2.926-2.813-2.926-1.818 0-2.84 1.335-2.84 2.926v.767zm.539 11.051h1.62l10-14.545h-1.62l-10 14.545zm8.154-3.494c0-.881.397-1.705 1.392-1.705 1.023 0 1.363.824 1.363 1.705v.767c0 .88-.369 1.704-1.363 1.704-1.023 0-1.392-.824-1.392-1.704v-.767zm-7.245-8.324c0-.881.398-1.705 1.392-1.705 1.023 0 1.364.824 1.364 1.705v.767c0 .881-.369 1.704-1.364 1.704-1.022 0-1.392-.823-1.392-1.704v-.767z" fill="url(#paint10_linear_247_642)"/><circle cx="216" cy="260.999" r="7" fill="#fff" stroke="url(#paint11_linear_247_642)" stroke-width="2"/><circle cx="381" cy="231.999" r="7" fill="#fff" stroke="url(#paint12_linear_247_642)" stroke-width="2"/><path stroke="url(#paint13_linear_247_642)" stroke-width="2" d="M381 239.999v12"/><path stroke="url(#paint14_linear_247_642)" stroke-width="2" d="M381 187.999v36"/><path d="M319.423 269.181c0-3.682-2.16-5.977-5.137-5.977-2.977 0-5.136 2.295-5.136 5.977 0 3.682 2.159 5.977 5.136 5.977 2.977 0 5.137-2.295 5.137-5.977zm-1.364 0c0 3.023-1.659 4.659-3.773 4.659-2.113 0-3.773-1.636-3.773-4.659 0-3.023 1.66-4.659 3.773-4.659 2.114 0 3.773 1.636 3.773 4.659zm3.551 5.818h1.341v-7.477h4.182v7.477h1.341v-8.727h-6.864v8.727zm10.653-5.568v-3.159h-1.34v8.727h3.659c2.045 0 3.159-1.25 3.159-2.818 0-1.591-1.114-2.75-3.159-2.75h-2.319zm6.864 5.568h1.341v-8.727h-1.341v8.727zm-6.864-4.318h2.319c1.062 0 1.818.648 1.818 1.568 0 .881-.756 1.5-1.818 1.5h-2.319v-3.068zm10.16-3.159h2.886v7.477h1.341v-7.477h2.863v-1.25h-7.09v1.25zm10.387-1.25h-1.341v8.727h1.341v-3.727h4.182v3.727h1.341v-8.727h-1.341v3.75h-4.182v-3.75zm9.313 3.159v-3.159h-1.341v8.727h3.659c2.046 0 3.159-1.25 3.159-2.818 0-1.591-1.113-2.75-3.159-2.75h-2.318zm6.864 5.568h1.34v-8.727h-1.34v8.727zm-6.864-4.318h2.318c1.063 0 1.818.648 1.818 1.568 0 .881-.755 1.5-1.818 1.5h-2.318v-3.068zm12 2.341v-6.75h-1.341v8.727h1.568l4.182-6.75v6.75h1.341v-8.727h-1.546l-4.204 6.75zm3.318-9.659c0 .591-.318 1.113-1.114 1.113-.795 0-1.09-.522-1.09-1.113h-1.25c0 1.227.909 2.091 2.34 2.091 1.455 0 2.364-.864 2.364-2.091h-1.25zm8.888 4.159h2.886v7.477h1.341v-7.477h2.864v-1.25h-7.091v1.25zm9.047 10.75h1.341v-4.614h.113c.296.477.864 1.523 2.546 1.523 2.182 0 3.704-1.75 3.704-4.523 0-2.75-1.522-4.5-3.727-4.5-1.705 0-2.227 1.046-2.523 1.5h-.159v-1.386h-1.295v12zm1.318-7.637c0-1.954.864-3.272 2.5-3.272 1.704 0 2.545 1.431 2.545 3.272 0 1.864-.863 3.341-2.545 3.341-1.614 0-2.5-1.363-2.5-3.341zm12.091 4.546c1.773 0 3.068-.887 3.477-2.205l-1.295-.363c-.341.909-1.131 1.363-2.182 1.363-1.574 0-2.659-1.017-2.722-2.886h6.335v-.568c0-3.25-1.931-4.364-3.75-4.364-2.363 0-3.931 1.864-3.931 4.546 0 2.681 1.545 4.477 4.068 4.477zm-2.722-5.25c.091-1.358 1.051-2.568 2.585-2.568 1.455 0 2.387 1.091 2.387 2.568h-4.972zm9.716 3.091v-6.75h-1.341v8.727h1.568l4.182-6.75v6.75h1.341v-8.727h-1.545l-4.205 6.75zm3.318-9.659c0 .591-.318 1.113-1.113 1.113-.796 0-1.091-.522-1.091-1.113h-1.25c0 1.227.909 2.091 2.341 2.091 1.454 0 2.363-.864 2.363-2.091h-1.25zm3.956 14.136h1.341v-2.5h6.455v2.5h1.341v-3.75h-1.341v-7.477h-5.546l-.295 3.454c-.21 2.443-.523 3.284-1.227 4.023h-.728v3.75zm2.25-3.75c.614-.807.835-2.199 1.023-4.023l.227-2.204h2.955v6.227h-4.205zm12.326 1.432c1.772 0 3.068-.887 3.477-2.205l-1.296-.363c-.341.909-1.13 1.363-2.181 1.363-1.574 0-2.66-1.017-2.722-2.886h6.335v-.568c0-3.25-1.932-4.364-3.75-4.364-2.363 0-3.932 1.864-3.932 4.546 0 2.681 1.546 4.477 4.069 4.477zm-2.722-5.25c.091-1.358 1.051-2.568 2.585-2.568 1.455 0 2.387 1.091 2.387 2.568h-4.972zm8.375 8.341h1.341v-4.614h.114c.295.477.863 1.523 2.545 1.523 2.182 0 3.705-1.75 3.705-4.523 0-2.75-1.523-4.5-3.728-4.5-1.704 0-2.227 1.046-2.522 1.5h-.16v-1.386h-1.295v12zm1.318-7.637c0-1.954.864-3.272 2.5-3.272 1.705 0 2.546 1.431 2.546 3.272 0 1.864-.864 3.341-2.546 3.341-1.613 0-2.5-1.363-2.5-3.341z" fill="url(#paint15_linear_247_642)"/><circle cx="380" cy="151.999" r="35" stroke="url(#paint16_linear_247_642)" stroke-width="2"/><path d="M367.826 158.999h9.176v-1.562h-6.761v-.114l3.267-3.494c2.5-2.678 3.238-3.928 3.238-5.54 0-2.245-1.818-4.034-4.375-4.034-2.549 0-4.488 1.733-4.488 4.289h1.676c0-1.654 1.072-2.755 2.756-2.755 1.576 0 2.784.966 2.784 2.5 0 1.342-.789 2.336-2.472 4.176l-4.801 5.256v1.278zm19.524-2.727c0 1.591.994 2.926 2.841 2.926 1.818 0 2.813-1.335 2.813-2.926v-.767c0-1.591-.966-2.926-2.813-2.926-1.818 0-2.841 1.335-2.841 2.926v.767zm-7.244-8.324c0 1.591.994 2.926 2.841 2.926 1.818 0 2.812-1.335 2.812-2.926v-.767c0-1.591-.966-2.926-2.812-2.926-1.818 0-2.841 1.335-2.841 2.926v.767zm.54 11.051h1.619l10-14.545h-1.619l-10 14.545zm8.153-3.494c0-.881.398-1.705 1.392-1.705 1.023 0 1.364.824 1.364 1.705v.767c0 .88-.37 1.704-1.364 1.704-1.023 0-1.392-.824-1.392-1.704v-.767zm-7.244-8.324c0-.881.397-1.705 1.392-1.705 1.022 0 1.363.824 1.363 1.705v.767c0 .881-.369 1.704-1.363 1.704-1.023 0-1.392-.823-1.392-1.704v-.767z" fill="url(#paint17_linear_247_642)"/><circle cx="547" cy="188.999" r="7" fill="#fff" stroke="url(#paint18_linear_247_642)" stroke-width="2"/><path stroke="url(#paint19_linear_247_642)" stroke-width="2" d="M547 196.999v12"/><path stroke="url(#paint20_linear_247_642)" stroke-width="2" d="M547 144.999v36"/><path d="M469.999 221.613h3.659v10.386h1.409v-10.386h3.66v-1.25h-8.728v1.25zm9.814 13.659h1.341v-4.614h.114c.295.477.863 1.523 2.545 1.523 2.182 0 3.705-1.75 3.705-4.523 0-2.75-1.523-4.5-3.728-4.5-1.704 0-2.227 1.046-2.522 1.5h-.159v-1.386h-1.296v12zm1.318-7.637c0-1.954.864-3.272 2.5-3.272 1.705 0 2.546 1.431 2.546 3.272 0 1.864-.864 3.341-2.546 3.341-1.613 0-2.5-1.363-2.5-3.341zm12.091 4.546c1.773 0 3.068-.887 3.478-2.205l-1.296-.363c-.341.909-1.131 1.363-2.182 1.363-1.574 0-2.659-1.017-2.721-2.886h6.335v-.568c0-3.25-1.932-4.364-3.75-4.364-2.364 0-3.932 1.864-3.932 4.546 0 2.681 1.546 4.477 4.068 4.477zm-2.721-5.25c.091-1.358 1.051-2.568 2.585-2.568 1.454 0 2.386 1.091 2.386 2.568h-4.971zm9.716 3.091v-6.75h-1.341v8.727h1.568l4.182-6.75v6.75h1.341v-8.727h-1.546l-4.204 6.75zm3.318-9.659c0 .591-.318 1.113-1.114 1.113-.795 0-1.091-.522-1.091-1.113h-1.25c0 1.227.909 2.091 2.341 2.091 1.455 0 2.364-.864 2.364-2.091h-1.25zm3.956 14.136h1.341v-2.5h6.454v2.5h1.341v-3.75h-1.341v-7.477h-5.545l-.296 3.454c-.21 2.443-.522 3.284-1.227 4.023h-.727v3.75zm2.25-3.75c.613-.807.835-2.199 1.022-4.023l.228-2.204h2.954v6.227h-4.204zm12.325 1.432c1.773 0 3.068-.887 3.477-2.205l-1.295-.363c-.341.909-1.131 1.363-2.182 1.363-1.574 0-2.659-1.017-2.722-2.886h6.336v-.568c0-3.25-1.932-4.364-3.75-4.364-2.364 0-3.932 1.864-3.932 4.546 0 2.681 1.545 4.477 4.068 4.477zm-2.722-5.25c.091-1.358 1.052-2.568 2.586-2.568 1.454 0 2.386 1.091 2.386 2.568h-4.972zm8.375 8.341h1.341v-4.614h.114c.295.477.864 1.523 2.545 1.523 2.182 0 3.705-1.75 3.705-4.523 0-2.75-1.523-4.5-3.727-4.5-1.705 0-2.228 1.046-2.523 1.5h-.159v-1.386h-1.296v12zm1.319-7.637c0-1.954.863-3.272 2.5-3.272 1.704 0 2.545 1.431 2.545 3.272 0 1.864-.864 3.341-2.545 3.341-1.614 0-2.5-1.363-2.5-3.341zm16.477 4.546c1.932 0 3.204-1.182 3.432-2.727h-1.341c-.25.954-1.046 1.522-2.091 1.522-1.591 0-2.614-1.318-2.614-3.341 0-1.977 1.046-3.272 2.614-3.272 1.182 0 1.886.727 2.091 1.522h1.341c-.228-1.636-1.614-2.727-3.455-2.727-2.363 0-3.932 1.864-3.932 4.523 0 2.613 1.5 4.5 3.955 4.5zm8.937 0c2.364 0 3.955-1.796 3.955-4.5 0-2.727-1.591-4.523-3.955-4.523-2.363 0-3.954 1.796-3.954 4.523 0 2.704 1.591 4.5 3.954 4.5zm0-1.205c-1.795 0-2.613-1.545-2.613-3.295s.818-3.318 2.613-3.318c1.796 0 2.614 1.568 2.614 3.318s-.818 3.295-2.614 3.295zm14.047 1.205c1.932 0 3.205-1.182 3.432-2.727h-1.341c-.25.954-1.045 1.522-2.091 1.522-1.591 0-2.613-1.318-2.613-3.341 0-1.977 1.045-3.272 2.613-3.272 1.182 0 1.887.727 2.091 1.522h1.341c-.227-1.636-1.614-2.727-3.454-2.727-2.364 0-3.932 1.864-3.932 4.523 0 2.613 1.5 4.5 3.954 4.5zm4.705-7.659h2.886v7.477h1.341v-7.477h2.864v-1.25h-7.091v1.25zm11.162 7.682c1.522 0 2.318-.819 2.591-1.387h.068v1.182h1.341v-5.75c0-2.773-2.114-3.091-3.228-3.091-1.318 0-2.818.455-3.5 2.046l1.273.454c.296-.636.995-1.318 2.273-1.318 1.233 0 1.841.653 1.841 1.773v.045c0 .648-.659.591-2.25.796-1.619.21-3.387.568-3.387 2.568 0 1.704 1.319 2.682 2.978 2.682zm.204-1.205c-1.068 0-1.841-.477-1.841-1.409 0-1.023.932-1.341 1.978-1.477.568-.069 2.091-.228 2.318-.5v1.227c0 1.091-.864 2.159-2.455 2.159zm5.698 1h1.613l2.978-3.75h.681v3.75h1.341v-3.75h.682l2.955 3.75h1.613l-3.522-4.432 3.477-4.295h-1.591l-2.909 3.727h-.705v-3.727h-1.341v3.727h-.727l-2.909-3.727h-1.591l3.5 4.295-3.545 4.432zm17.079.182c1.773 0 3.068-.887 3.478-2.205l-1.296-.363c-.341.909-1.131 1.363-2.182 1.363-1.574 0-2.659-1.017-2.721-2.886h6.335v-.568c0-3.25-1.932-4.364-3.75-4.364-2.364 0-3.932 1.864-3.932 4.546 0 2.681 1.546 4.477 4.068 4.477zm-2.721-5.25c.091-1.358 1.051-2.568 2.585-2.568 1.454 0 2.386 1.091 2.386 2.568h-4.971zm13.147 3.25l-3-6.909h-1.772v8.727h1.341v-6.801l2.886 6.801h1.091l2.886-6.676v6.676h1.341v-8.727h-1.727l-3.046 6.909z" fill="url(#paint21_linear_247_642)"/><circle cx="546" cy="108.999" r="35" stroke="url(#paint22_linear_247_642)" stroke-width="2"/><path d="M538.428 116.198c2.82 0 4.915-1.769 4.915-4.148 0-1.846-1.094-3.189-2.926-3.494v-.114c1.47-.447 2.386-1.655 2.386-3.295 0-2.06-1.626-3.892-4.318-3.892-2.514 0-4.602 1.548-4.687 3.835h1.704c.064-1.449 1.442-2.301 2.955-2.301 1.605 0 2.642.973 2.642 2.443 0 1.534-1.201 2.528-2.926 2.528h-1.165v1.563h1.165c2.208 0 3.437 1.122 3.437 2.727 0 1.541-1.342 2.585-3.21 2.585-1.683 0-3.019-.866-3.125-2.272h-1.79c.107 2.287 2.124 3.835 4.943 3.835zm15.235-2.926c0 1.591.994 2.926 2.841 2.926 1.818 0 2.812-1.335 2.812-2.926v-.767c0-1.591-.966-2.926-2.812-2.926-1.819 0-2.841 1.335-2.841 2.926v.767zm-7.245-8.324c0 1.591.995 2.926 2.841 2.926 1.818 0 2.813-1.335 2.813-2.926v-.767c0-1.591-.966-2.926-2.813-2.926-1.818 0-2.841 1.335-2.841 2.926v.767zm.54 11.051h1.619l10-14.545h-1.619l-10 14.545zm8.154-3.494c0-.881.397-1.705 1.392-1.705 1.022 0 1.363.824 1.363 1.705v.767c0 .88-.369 1.704-1.363 1.704-1.023 0-1.392-.824-1.392-1.704v-.767zm-7.245-8.324c0-.881.398-1.705 1.392-1.705 1.023 0 1.364.824 1.364 1.705v.767c0 .881-.369 1.704-1.364 1.704-1.022 0-1.392-.823-1.392-1.704v-.767z" fill="url(#paint23_linear_247_642)"/><circle cx="732" cy="156.999" r="7" fill="#fff" stroke="url(#paint24_linear_247_642)" stroke-width="2"/><path stroke="url(#paint25_linear_247_642)" stroke-width="2" d="M732 164.999v12"/><path stroke="url(#paint26_linear_247_642)" stroke-width="2" d="M732 112.999v36"/><path d="M700.497 188.363h-1.659l3.75 5.818-3.75 5.818h1.659l3-4.75h.091l3 4.75h1.659l-3.659-5.818 3.659-5.818h-1.659l-3 4.841h-.091l-3-4.841zm11.97 11.841c1.523 0 2.319-.819 2.591-1.387h.068v1.182h1.341v-5.75c0-2.773-2.113-3.091-3.227-3.091-1.318 0-2.818.455-3.5 2.046l1.273.454c.295-.636.994-1.318 2.273-1.318 1.232 0 1.84.653 1.84 1.773v.045c0 .648-.659.591-2.25.796-1.619.21-3.386.568-3.386 2.568 0 1.704 1.318 2.682 2.977 2.682zm.205-1.205c-1.068 0-1.841-.477-1.841-1.409 0-1.023.932-1.341 1.977-1.477.568-.069 2.091-.228 2.318-.5v1.227c0 1.091-.863 2.159-2.454 2.159zm7.584-.977v-6.75h-1.341v8.727h1.568l4.182-6.75v6.75h1.341v-8.727h-1.546l-4.204 6.75zm3.318-9.659c0 .591-.318 1.113-1.114 1.113-.795 0-1.091-.522-1.091-1.113h-1.25c0 1.227.909 2.091 2.341 2.091 1.455 0 2.364-.864 2.364-2.091h-1.25zm11.365-.364c-.426.358-1.063.358-1.955.352-.289 0-.608 0-.954.012-2.659.068-3.977 2.091-3.977 5.977v.932c0 3.227 1.568 4.909 3.909 4.909 2.335 0 3.886-1.693 3.886-4.432 0-2.75-1.574-4.205-3.614-4.205-1.198 0-2.318.5-2.909 1.591h-.113c.181-2.25 1.022-3.454 2.841-3.522 1.613-.069 2.772-.023 3.568-.796l-.682-.818zm-2.977 10.977c-1.591 0-2.569-1.272-2.569-3.227.029-1.909.989-3 2.546-3 1.597 0 2.568 1.091 2.568 3 0 1.966-.966 3.227-2.545 3.227zm8.505 1.228c1.523 0 2.319-.819 2.591-1.387h.068v1.182h1.341v-5.75c0-2.773-2.113-3.091-3.227-3.091-1.318 0-2.818.455-3.5 2.046l1.273.454c.295-.636.994-1.318 2.273-1.318 1.232 0 1.84.653 1.84 1.773v.045c0 .648-.659.591-2.25.796-1.619.21-3.386.568-3.386 2.568 0 1.704 1.318 2.682 2.977 2.682zm.205-1.205c-1.068 0-1.841-.477-1.841-1.409 0-1.023.932-1.341 1.977-1.477.568-.069 2.091-.228 2.318-.5v1.227c0 1.091-.863 2.159-2.454 2.159zm7.584-7.727h-1.341v8.727h1.341v-3.727h4.182v3.727h1.34v-8.727h-1.34v3.75h-4.182v-3.75zm7.971 8.727h1.341v-3.682h1.205l2.863 3.682h1.728l-3.569-4.523 3.523-4.204h-1.727l-3.136 3.795h-.887v-3.795h-1.341v8.727z" fill="url(#paint27_linear_247_642)"/><circle cx="731" cy="76.999" r="35" stroke="url(#paint28_linear_247_642)" stroke-width="2"/><path d="M717.624 81.016h6.846V84h1.676v-2.983h1.989v-1.562h-1.989v-10h-2.13l-6.392 10.113v1.45zm6.846-1.562h-4.943v-.114l4.83-7.642h.113v7.756zm13.741 1.818c0 1.59.995 2.926 2.841 2.926 1.819 0 2.813-1.335 2.813-2.926v-.767c0-1.591-.966-2.926-2.813-2.926-1.818 0-2.841 1.335-2.841 2.926v.767zm-7.244-8.324c0 1.59.994 2.926 2.841 2.926 1.818 0 2.813-1.335 2.813-2.926v-.767c0-1.591-.966-2.926-2.813-2.926-1.818 0-2.841 1.335-2.841 2.926v.767zm.54 11.051h1.619l10-14.545h-1.619l-10 14.545zm8.153-3.494c0-.881.398-1.705 1.392-1.705 1.023 0 1.364.824 1.364 1.705v.767c0 .88-.369 1.704-1.364 1.704-1.022 0-1.392-.824-1.392-1.704v-.767zm-7.244-8.324c0-.88.398-1.705 1.392-1.705 1.023 0 1.364.824 1.364 1.705v.767c0 .88-.37 1.704-1.364 1.704-1.023 0-1.392-.823-1.392-1.704v-.767z" fill="url(#paint29_linear_247_642)"/><circle cx="903" cy="115.999" r="7" fill="#fff" stroke="url(#paint30_linear_247_642)" stroke-width="2"/><path stroke="url(#paint31_linear_247_642)" stroke-width="2" d="M903 123.999v12"/><path stroke="url(#paint32_linear_247_642)" stroke-width="2" d="M903 71.999v36"/><path d="M851.553 151.289c-.358-2.585-2.346-4.085-4.926-4.085-3.04 0-5.329 2.215-5.329 5.977 0 3.756 2.261 5.977 5.329 5.977 2.767 0 4.602-1.79 4.926-4.011l-2.125-.012c-.267 1.364-1.38 2.131-2.772 2.131-1.887 0-3.239-1.415-3.239-4.085 0-2.625 1.341-4.085 3.244-4.085 1.415 0 2.523.801 2.767 2.193h2.125zm3.196 10.983c1.603 0 2.529-.824 3.023-2.216l3.506-9.773-2.199-.011-2.017 6.591h-.091l-2.011-6.591h-2.182l3.164 8.909-.176.471c-.38.995-.983 1.063-1.88.802l-.478 1.602c.279.113.779.216 1.341.216zm7.956-3.273h1.966v-7.04h3.421v7.04h1.983v-8.727h-7.37v8.727zm13.348.17c2.034 0 3.432-.994 3.796-2.511l-1.921-.216c-.278.739-.96 1.125-1.846 1.125-1.33 0-2.211-.875-2.228-2.369h6.08v-.631c0-3.062-1.841-4.409-3.989-4.409-2.5 0-4.13 1.835-4.13 4.529 0 2.738 1.608 4.482 4.238 4.482zm-2.193-5.357c.063-1.114.886-2.052 2.114-2.052 1.182 0 1.977.864 1.988 2.052h-4.102zm7.814 8.46h2.057v-4.648h.085c.324.636 1 1.528 2.5 1.528 2.057 0 3.597-1.63 3.597-4.505 0-2.909-1.586-4.489-3.603-4.489-1.539 0-2.181.926-2.494 1.557h-.119v-1.443h-2.023v12zm2.017-7.637c0-1.693.727-2.789 2.051-2.789 1.37 0 2.074 1.164 2.074 2.789 0 1.637-.716 2.83-2.074 2.83-1.312 0-2.051-1.136-2.051-2.83zm13.273-1.329h-5.239v1.693h5.239v-1.693zm9.157-6.262c-.42.319-1.085.313-1.988.313-.256 0-.523 0-.813.006-3.005.039-4.551 2.039-4.551 6.142v.784c0 3.193 1.614 4.88 4.154 4.88 2.539 0 4.142-1.693 4.142-4.386 0-2.614-1.523-4.119-3.688-4.119-1.329 0-2.335.574-2.881 1.642h-.096c.204-2.176 1.023-3.159 2.977-3.205 1.733-.039 2.705-.068 3.46-.727l-.716-1.33zm-3.187 10.478c-1.29 0-2.08-1.034-2.08-2.682.017-1.625.796-2.557 2.069-2.557 1.272 0 2.056.932 2.056 2.557 0 1.653-.778 2.682-2.045 2.682zm9.687 1.647c2.557 0 4.182-1.801 4.182-4.5 0-2.704-1.625-4.511-4.182-4.511-2.556 0-4.181 1.807-4.181 4.511 0 2.699 1.625 4.5 4.181 4.5zm.012-1.647c-1.415 0-2.108-1.262-2.108-2.858 0-1.597.693-2.875 2.108-2.875 1.392 0 2.085 1.278 2.085 2.875 0 1.596-.693 2.858-2.085 2.858zm4.97-5.563h2.824v7.04h1.988v-7.04h2.824v-1.687h-7.636v1.687zm12.722 7.21c2.556 0 4.181-1.801 4.181-4.5 0-2.704-1.625-4.511-4.181-4.511-2.557 0-4.182 1.807-4.182 4.511 0 2.699 1.625 4.5 4.182 4.5zm.011-1.647c-1.415 0-2.108-1.262-2.108-2.858 0-1.597.693-2.875 2.108-2.875 1.392 0 2.085 1.278 2.085 2.875 0 1.596-.693 2.858-2.085 2.858zm5.916 1.477h4.227c2.046 0 3.216-.926 3.216-2.369 0-1.222-.949-2.074-2.318-2.193 1.165-.216 1.892-.836 1.892-1.819 0-1.471-1.29-2.346-3.352-2.346h-3.665v8.727zm1.926-1.619v-2.165h2.301c.756 0 1.216.437 1.216 1.159 0 .625-.46 1.006-1.216 1.006h-2.301zm0-3.495v-1.966h1.739c.858 0 1.381.364 1.381.961 0 .625-.506 1.005-1.341 1.005h-1.779zm11.022 5.284c2.556 0 4.181-1.801 4.181-4.5 0-2.704-1.625-4.511-4.181-4.511-2.557 0-4.182 1.807-4.182 4.511 0 2.699 1.625 4.5 4.182 4.5zm.011-1.647c-1.415 0-2.108-1.262-2.108-2.858 0-1.597.693-2.875 2.108-2.875 1.392 0 2.085 1.278 2.085 2.875 0 1.596-.693 2.858-2.085 2.858zm5.143 4.011h2.023v-2.534h5.71v2.534h1.989v-4.227h-1.352v-7.034h-6.307l-.25 3.057c-.165 1.954-.381 3.403-1.119 3.977h-.694v4.227zm2.807-4.227c.551-.813.756-2.131.904-3.977l.136-1.398h2.557v5.375h-3.597z" fill="url(#paint33_linear_247_642)"/><circle cx="902" cy="35.999" r="35" stroke="url(#paint34_linear_247_642)" stroke-width="2"/><path d="M894.218 43.198c2.926 0 5.014-2.067 5.007-4.9.007-2.813-1.953-4.859-4.602-4.859-1.08 0-2.081.412-2.649.966h-.086l.462-4.07h6.172v-1.881h-7.997l-.817 7.33 2.01.297c.547-.49 1.527-.824 2.408-.824 1.725.015 2.975 1.307 2.975 3.083 0 1.747-1.214 3.011-2.883 3.011-1.406 0-2.521-.895-2.635-2.145h-2.131c.085 2.316 2.095 3.992 4.766 3.992zm15.193-2.926c.008 1.64 1.037 3.025 2.962 3.025 1.903 0 2.947-1.385 2.947-3.025v-.767c0-1.648-1.015-3.026-2.947-3.026-1.896 0-2.954 1.385-2.962 3.026v.767zm-7.315-8.324c0 1.64 1.037 3.026 2.962 3.026 1.896 0 2.947-1.378 2.94-3.026v-.767c.007-1.648-1.016-3.026-2.94-3.026-1.889 0-2.962 1.378-2.962 3.026v.767zm.597 11.051h1.697l10-14.545h-1.697l-10 14.545zm8.373-3.494c.007-.817.362-1.605 1.307-1.605.98 0 1.286.788 1.286 1.605v.767c0 .817-.334 1.605-1.286 1.605-.966 0-1.3-.796-1.307-1.605v-.767zm-7.308-8.324c0-.81.355-1.605 1.3-1.605.98 0 1.285.788 1.285 1.605v.767c0 .817-.334 1.605-1.285 1.605-.966 0-1.3-.788-1.3-1.605v-.767z" fill="url(#paint35_linear_247_642)"/><defs><linearGradient id="paint0_linear_247_642" x1="35.501" y1="300.855" x2="35.501" y2="316.952" gradientUnits="userSpaceOnUse"><stop stop-color="#4FFA93"/><stop offset="1" stop-color="#45F5B6"/></linearGradient><linearGradient id="paint1_linear_247_642" x1="35.501" y1="246.568" x2="35.501" y2="294.858" gradientUnits="userSpaceOnUse"><stop stop-color="#4FFA93"/><stop offset="1" stop-color="#45F5B6"/></linearGradient><linearGradient id="paint2_linear_247_642" x1="-11.327" y1="332.488" x2="81.231" y2="332.488" gradientUnits="userSpaceOnUse"><stop stop-color="#4FFA93"/><stop offset="1" stop-color="#45F5B6"/></linearGradient><linearGradient id="paint3_linear_247_642" x1="-12.863" y1="216.957" x2="83.719" y2="216.957" gradientUnits="userSpaceOnUse"><stop stop-color="#4FFA93"/><stop offset="1" stop-color="#45F5B6"/></linearGradient><linearGradient id="paint4_linear_247_642" x1="4.604" y1="216.985" x2="67.65" y2="216.985" gradientUnits="userSpaceOnUse"><stop stop-color="#4FFA93"/><stop offset="1" stop-color="#45F5B6"/></linearGradient><linearGradient id="paint5_linear_247_642" x1="26.142" y1="294.99" x2="47.604" y2="294.99" gradientUnits="userSpaceOnUse"><stop stop-color="#4FFA93"/><stop offset="1" stop-color="#45F5B6"/></linearGradient><linearGradient id="paint6_linear_247_642" x1="213.75" y1="267.364" x2="217.054" y2="267.754" gradientUnits="userSpaceOnUse"><stop stop-color="#1C221F"/><stop offset=".922" stop-color="#392D49"/><stop offset="1" stop-color="#57456F"/></linearGradient><linearGradient id="paint7_linear_247_642" x1="213.75" y1="212.094" x2="217.095" y2="212.226" gradientUnits="userSpaceOnUse"><stop stop-color="#1C221F"/><stop offset=".922" stop-color="#392D49"/><stop offset="1" stop-color="#57456F"/></linearGradient><linearGradient id="paint8_linear_247_642" x1="104.156" y1="312.758" x2="113.718" y2="250.565" gradientUnits="userSpaceOnUse"><stop stop-color="#1C221F"/><stop offset=".922" stop-color="#392D49"/><stop offset="1" stop-color="#57456F"/></linearGradient><linearGradient id="paint9_linear_247_642" x1="169.19" y1="235.035" x2="282.865" y2="154.764" gradientUnits="userSpaceOnUse"><stop stop-color="#1C221F"/><stop offset=".922" stop-color="#392D49"/><stop offset="1" stop-color="#57456F"/></linearGradient><linearGradient id="paint10_linear_247_642" x1="198.457" y1="199.011" x2="237.265" y2="169.323" gradientUnits="userSpaceOnUse"><stop stop-color="#1C221F"/><stop offset=".922" stop-color="#392D49"/><stop offset="1" stop-color="#57456F"/></linearGradient><linearGradient id="paint11_linear_247_642" x1="205.82" y1="273.007" x2="231.081" y2="255.169" gradientUnits="userSpaceOnUse"><stop stop-color="#1C221F"/><stop offset=".922" stop-color="#392D49"/><stop offset="1" stop-color="#57456F"/></linearGradient><linearGradient id="paint12_linear_247_642" x1="370.82" y1="244.007" x2="396.081" y2="226.169" gradientUnits="userSpaceOnUse"><stop stop-color="#1C221F"/><stop offset=".922" stop-color="#392D49"/><stop offset="1" stop-color="#57456F"/></linearGradient><linearGradient id="paint13_linear_247_642" x1="378.75" y1="238.364" x2="382.054" y2="238.754" gradientUnits="userSpaceOnUse"><stop stop-color="#1C221F"/><stop offset=".922" stop-color="#392D49"/><stop offset="1" stop-color="#57456F"/></linearGradient><linearGradient id="paint14_linear_247_642" x1="378.75" y1="183.094" x2="382.095" y2="183.226" gradientUnits="userSpaceOnUse"><stop stop-color="#1C221F"/><stop offset=".922" stop-color="#392D49"/><stop offset="1" stop-color="#57456F"/></linearGradient><linearGradient id="paint15_linear_247_642" x1="288.38" y1="283.758" x2="299.874" y2="222.243" gradientUnits="userSpaceOnUse"><stop stop-color="#1C221F"/><stop offset=".922" stop-color="#392D49"/><stop offset="1" stop-color="#57456F"/></linearGradient><linearGradient id="paint16_linear_247_642" x1="334.19" y1="206.035" x2="447.865" y2="125.764" gradientUnits="userSpaceOnUse"><stop stop-color="#1C221F"/><stop offset=".922" stop-color="#392D49"/><stop offset="1" stop-color="#57456F"/></linearGradient><linearGradient id="paint17_linear_247_642" x1="362.049" y1="170.011" x2="401.756" y2="136.13" gradientUnits="userSpaceOnUse"><stop stop-color="#1C221F"/><stop offset=".922" stop-color="#392D49"/><stop offset="1" stop-color="#57456F"/></linearGradient><linearGradient id="paint18_linear_247_642" x1="536.82" y1="201.007" x2="562.081" y2="183.169" gradientUnits="userSpaceOnUse"><stop stop-color="#1C221F"/><stop offset=".922" stop-color="#392D49"/><stop offset="1" stop-color="#57456F"/></linearGradient><linearGradient id="paint19_linear_247_642" x1="544.75" y1="195.364" x2="548.054" y2="195.754" gradientUnits="userSpaceOnUse"><stop stop-color="#1C221F"/><stop offset=".922" stop-color="#392D49"/><stop offset="1" stop-color="#57456F"/></linearGradient><linearGradient id="paint20_linear_247_642" x1="544.75" y1="140.094" x2="548.095" y2="140.226" gradientUnits="userSpaceOnUse"><stop stop-color="#1C221F"/><stop offset=".922" stop-color="#392D49"/><stop offset="1" stop-color="#57456F"/></linearGradient><linearGradient id="paint21_linear_247_642" x1="447.881" y1="240.758" x2="458.609" y2="178.957" gradientUnits="userSpaceOnUse"><stop stop-color="#1C221F"/><stop offset=".922" stop-color="#392D49"/><stop offset="1" stop-color="#57456F"/></linearGradient><linearGradient id="paint22_linear_247_642" x1="500.19" y1="163.035" x2="613.865" y2="82.764" gradientUnits="userSpaceOnUse"><stop stop-color="#1C221F"/><stop offset=".922" stop-color="#392D49"/><stop offset="1" stop-color="#57456F"/></linearGradient><linearGradient id="paint23_linear_247_642" x1="528.049" y1="127.011" x2="567.756" y2="93.13" gradientUnits="userSpaceOnUse"><stop stop-color="#1C221F"/><stop offset=".922" stop-color="#392D49"/><stop offset="1" stop-color="#57456F"/></linearGradient><linearGradient id="paint24_linear_247_642" x1="721.82" y1="169.007" x2="747.081" y2="151.169" gradientUnits="userSpaceOnUse"><stop stop-color="#1C221F"/><stop offset=".922" stop-color="#392D49"/><stop offset="1" stop-color="#57456F"/></linearGradient><linearGradient id="paint25_linear_247_642" x1="729.75" y1="163.364" x2="733.054" y2="163.754" gradientUnits="userSpaceOnUse"><stop stop-color="#1C221F"/><stop offset=".922" stop-color="#392D49"/><stop offset="1" stop-color="#57456F"/></linearGradient><linearGradient id="paint26_linear_247_642" x1="729.75" y1="108.094" x2="733.095" y2="108.226" gradientUnits="userSpaceOnUse"><stop stop-color="#1C221F"/><stop offset=".922" stop-color="#392D49"/><stop offset="1" stop-color="#57456F"/></linearGradient><linearGradient id="paint27_linear_247_642" x1="689.007" y1="208.758" x2="711.263" y2="154.168" gradientUnits="userSpaceOnUse"><stop stop-color="#1C221F"/><stop offset=".922" stop-color="#392D49"/><stop offset="1" stop-color="#57456F"/></linearGradient><linearGradient id="paint28_linear_247_642" x1="685.19" y1="131.035" x2="798.865" y2="50.764" gradientUnits="userSpaceOnUse"><stop stop-color="#1C221F"/><stop offset=".922" stop-color="#392D49"/><stop offset="1" stop-color="#57456F"/></linearGradient><linearGradient id="paint29_linear_247_642" x1="711.912" y1="95.011" x2="751.81" y2="59.794" gradientUnits="userSpaceOnUse"><stop stop-color="#1C221F"/><stop offset=".922" stop-color="#392D49"/><stop offset="1" stop-color="#57456F"/></linearGradient><linearGradient id="paint30_linear_247_642" x1="892.82" y1="126.108" x2="916.353" y2="107.748" gradientUnits="userSpaceOnUse"><stop stop-color="#F55991"/><stop offset="1" stop-color="#725DF2"/></linearGradient><linearGradient id="paint31_linear_247_642" x1="900.868" y1="122.364" x2="903.867" y2="122.684" gradientUnits="userSpaceOnUse"><stop stop-color="#F55991"/><stop offset="1" stop-color="#725DF2"/></linearGradient><linearGradient id="paint32_linear_247_642" x1="900.868" y1="67.094" x2="903.897" y2="67.202" gradientUnits="userSpaceOnUse"><stop stop-color="#F55991"/><stop offset="1" stop-color="#725DF2"/></linearGradient><linearGradient id="paint33_linear_247_642" x1="822.968" y1="165.503" x2="833.784" y2="109.99" gradientUnits="userSpaceOnUse"><stop stop-color="#F55991"/><stop offset="1" stop-color="#725DF2"/></linearGradient><linearGradient id="paint34_linear_247_642" x1="856.19" y1="81.489" x2="962.087" y2="-1.132" gradientUnits="userSpaceOnUse"><stop stop-color="#F55991"/><stop offset="1" stop-color="#725DF2"/></linearGradient><linearGradient id="paint35_linear_247_642" x1="884.049" y1="51.162" x2="920.378" y2="16.914" gradientUnits="userSpaceOnUse"><stop stop-color="#F55991"/><stop offset="1" stop-color="#725DF2"/></linearGradient></defs></svg>