<svg width="227" height="608" fill="none" xmlns="http://www.w3.org/2000/svg"><path stroke="#0F0B22" stroke-opacity=".3" d="M24.5 48v64m0 48v64m0 48v64m0 48v64m0 48v64"/><circle cx="24" cy="24" r="23.5" stroke="url(#paint0_linear_331_9053)"/><path d="M12.625 29.169c2.351 0 3.728-1.919 3.728-5.255 0-3.311-1.397-5.235-3.728-5.235-2.337 0-3.729 1.919-3.734 5.235 0 3.331 1.377 5.25 3.734 5.255zm0-1.327c-1.377 0-2.208-1.383-2.208-3.928.005-2.535.836-3.933 2.208-3.933 1.367 0 2.202 1.398 2.202 3.933 0 2.545-.83 3.928-2.202 3.928zm7.063-.234h-1.432l-.05.557c-.114 1.347-.432 2.704-.566 3.32h1.054c.238-.65.765-2.142.92-3.335l.074-.542zm5.276 1.531c2.049 0 3.51-1.447 3.505-3.43.005-1.969-1.367-3.4-3.221-3.4-.756 0-1.457.288-1.855.675h-.06l.324-2.848h4.32v-1.318h-5.598l-.572 5.13 1.407.21c.383-.343 1.07-.577 1.686-.577 1.208.01 2.083.915 2.083 2.158 0 1.223-.85 2.108-2.019 2.108-.984 0-1.765-.627-1.844-1.502h-1.492c.06 1.62 1.467 2.794 3.336 2.794zM35.6 27.091c.005 1.148.726 2.118 2.073 2.118 1.332 0 2.063-.97 2.063-2.118v-.537c0-1.153-.71-2.118-2.063-2.118-1.328 0-2.068.97-2.073 2.118v.537zm-5.121-5.827c0 1.149.726 2.118 2.073 2.118 1.328 0 2.063-.964 2.058-2.118v-.537c.005-1.153-.71-2.118-2.058-2.118-1.322 0-2.073.965-2.073 2.118v.537zM30.897 29h1.188l7-10.182h-1.188l-7 10.182zm5.861-2.446c.005-.572.254-1.124.915-1.124.686 0 .9.552.9 1.124v.537c0 .572-.234 1.123-.9 1.123-.676 0-.91-.556-.915-1.123v-.537zm-5.116-5.827c0-.567.249-1.123.91-1.123.686 0 .9.552.9 1.123v.537c0 .572-.234 1.124-.9 1.124-.676 0-.91-.552-.91-1.124v-.537z" fill="url(#paint1_linear_331_9053)"/><path stroke="url(#paint2_linear_331_9053)" d="M48 23.5h32"/><circle cx="84" cy="24" r="3.5" stroke="url(#paint3_linear_331_9053)"/><path d="M96.86 28h1.582v-3.707h4.044V28h1.585v-8.727h-1.585v3.694h-4.044v-3.694H96.86V28zm11.717.128c1.918 0 3.137-1.351 3.137-3.375 0-2.029-1.219-3.384-3.137-3.384-1.917 0-3.136 1.355-3.136 3.384 0 2.024 1.219 3.375 3.136 3.375zm.009-1.236c-1.061 0-1.581-.946-1.581-2.143 0-1.198.52-2.157 1.581-2.157 1.044 0 1.564.96 1.564 2.157s-.52 2.143-1.564 2.143zM113.023 28h3.171c1.534 0 2.411-.695 2.411-1.777 0-.916-.711-1.555-1.738-1.645.873-.162 1.419-.626 1.419-1.363 0-1.104-.967-1.76-2.514-1.76h-2.749V28zm1.445-1.215v-1.623h1.726c.566 0 .911.328.911.87 0 .468-.345.753-.911.753h-1.726zm0-2.62V22.69h1.304c.643 0 1.035.273 1.035.72 0 .47-.379.755-1.006.755h-1.333zm6.898 1.747v-4.457h-1.487V28h1.589l2.612-4.462V28h1.492v-6.546h-1.585l-2.621 4.458zm11.257-4.457h-1.483v3.196a4.648 4.648 0 01-1.15.145c-.912 0-1.36-.324-1.36-1.168v-2.182h-1.474v2.182c0 1.67 1.087 2.433 2.834 2.433a5.19 5.19 0 001.15-.136V28h1.483v-6.546zm4.408 6.673c1.917 0 3.136-1.351 3.136-3.375 0-2.029-1.219-3.384-3.136-3.384-1.918 0-3.137 1.355-3.137 3.384 0 2.024 1.219 3.375 3.137 3.375zm.008-1.236c-1.061 0-1.581-.946-1.581-2.143 0-1.198.52-2.157 1.581-2.157 1.044 0 1.564.96 1.564 2.157s-.52 2.143-1.564 2.143zM141.476 28h1.543v-2.467h.754L145.567 28h1.867l-2.451-3.332 2.425-3.213h-1.858l-1.969 2.642h-.562v-2.643h-1.543V28z" fill="url(#paint4_linear_331_9053)"/><circle cx="24" cy="136" r="23.5" stroke="url(#paint5_linear_331_9053)"/><path d="M20.237 130.818H18.74l-2.54 1.661v1.471l2.436-1.591h.06V141h1.54v-10.182zm8.069 8.273c.005 1.148.726 2.118 2.073 2.118 1.332 0 2.063-.97 2.063-2.118v-.537c0-1.153-.71-2.118-2.063-2.118-1.328 0-2.068.97-2.073 2.118v.537zm-5.121-5.827c0 1.149.726 2.118 2.073 2.118 1.328 0 2.063-.964 2.058-2.118v-.537c.005-1.153-.71-2.118-2.058-2.118-1.322 0-2.073.965-2.073 2.118v.537zm.418 7.736h1.188l7-10.182h-1.188l-7 10.182zm5.861-2.446c.005-.572.254-1.124.915-1.124.686 0 .9.552.9 1.124v.537c0 .572-.234 1.123-.9 1.123-.676 0-.91-.556-.915-1.123v-.537zm-5.116-5.827c0-.566.249-1.123.91-1.123.686 0 .9.552.9 1.123v.537c0 .572-.234 1.124-.9 1.124-.676 0-.91-.552-.91-1.124v-.537z" fill="url(#paint6_linear_331_9053)"/><path stroke="url(#paint7_linear_331_9053)" d="M48 135.5h32"/><circle cx="84" cy="136" r="3.5" stroke="url(#paint8_linear_331_9053)"/><path d="M97.057 140h1.057v-3.903h4.653V140h1.057v-8.727h-1.057v3.886h-4.653v-3.886h-1.057V140zm10.672.153c1.142 0 1.739-.613 1.944-1.039h.051V140h1.005v-4.312c0-2.08-1.585-2.319-2.42-2.319-.989 0-2.114.341-2.625 1.534l.954.341c.222-.477.746-.988 1.705-.988.925 0 1.381.49 1.381 1.329v.034c0 .486-.495.443-1.688.597-1.214.158-2.54.426-2.54 1.926 0 1.278.989 2.011 2.233 2.011zm.154-.903c-.801 0-1.381-.358-1.381-1.057 0-.767.699-1.005 1.483-1.108.426-.051 1.568-.17 1.739-.375v.921c0 .818-.648 1.619-1.841 1.619zm9.727-5.795h-1.005v3.319a5.507 5.507 0 01-1.585.226c-.819 0-1.449-.46-1.449-1.466v-2.096h-1.006v2.096c0 1.602.972 2.404 2.455 2.404.617 0 1.112-.081 1.585-.222V140h1.005v-6.545zm2.851 5.062v-5.062h-1.005V140h1.176l3.136-5.062V140h1.006v-6.545h-1.159l-3.154 5.062zm7.16-5.062h-1.005V140h1.005v-2.795h3.137V140h1.005v-6.545h-1.005v2.812h-3.137v-2.812zm7.905 6.698c1.142 0 1.739-.613 1.943-1.039h.052V140h1.005v-4.312c0-2.08-1.585-2.319-2.42-2.319-.989 0-2.114.341-2.625 1.534l.954.341c.222-.477.746-.988 1.705-.988.925 0 1.381.49 1.381 1.329v.034c0 .486-.495.443-1.688.597-1.214.158-2.54.426-2.54 1.926 0 1.278.989 2.011 2.233 2.011zm.154-.903c-.801 0-1.381-.358-1.381-1.057 0-.767.699-1.005 1.483-1.108.426-.051 1.568-.17 1.739-.375v.921c0 .818-.648 1.619-1.841 1.619zm5.21-5.795h-1.005V140h1.005v-2.744h1.679c.179 1.751 1.317 2.88 2.941 2.88 1.772 0 2.965-1.346 2.965-3.375 0-2.045-1.193-3.392-2.965-3.392-1.641 0-2.787 1.155-2.945 2.949h-1.675v-2.863zm4.62 5.778c-1.347 0-1.961-1.159-1.961-2.472 0-1.312.614-2.488 1.961-2.488 1.346 0 1.96 1.176 1.96 2.488 0 1.313-.614 2.472-1.96 2.472zm13.534-.171h-.972v-5.607h-1.006v5.607h-2.471v-5.607h-1.006v5.607h-2.471v-5.607h-1.006V140h7.773v1.875h1.039l.12-2.813zm2.468-.545v-5.062h-1.006V140h1.177l3.136-5.062V140h1.006v-6.545h-1.16l-3.153 5.062zm7.16 0v-5.062h-1.005V140h1.176l3.136-5.062V140h1.006v-6.545h-1.159l-3.154 5.062zm2.489-7.244c0 .443-.239.835-.835.835-.597 0-.819-.392-.819-.835h-.937c0 .92.682 1.568 1.756 1.568 1.091 0 1.772-.648 1.772-1.568h-.937zm6.666 3.119h2.164V140h1.006v-5.608h2.148v-.937h-5.318v.937zm6.785 8.063h1.006v-3.461h.085c.221.358.647 1.142 1.909 1.142 1.636 0 2.778-1.312 2.778-3.392 0-2.062-1.142-3.375-2.795-3.375-1.279 0-1.671.784-1.892 1.125h-.12v-1.039h-.971v9zm.988-5.728c0-1.466.648-2.454 1.875-2.454 1.279 0 1.91 1.074 1.91 2.454 0 1.398-.648 2.506-1.91 2.506-1.21 0-1.875-1.023-1.875-2.506zm9.069 3.409c1.329 0 2.301-.664 2.608-1.653l-.972-.273c-.256.682-.848 1.023-1.636 1.023-1.181 0-1.995-.763-2.042-2.165h4.752v-.426c0-2.437-1.449-3.273-2.813-3.273-1.772 0-2.948 1.398-2.948 3.409 0 2.012 1.159 3.358 3.051 3.358zm-2.042-3.937c.069-1.019.789-1.926 1.939-1.926 1.091 0 1.79.818 1.79 1.926h-3.729zm7.287 2.318v-5.062h-1.005V140h1.176l3.136-5.062V140h1.006v-6.545h-1.159l-3.154 5.062zm2.489-7.244c0 .443-.239.835-.835.835-.597 0-.818-.392-.818-.835h-.938c0 .92.682 1.568 1.756 1.568 1.091 0 1.773-.648 1.773-1.568h-.938zm2.967 10.602h1.006V140h4.841v1.875h1.005v-2.813h-1.005v-5.607h-4.159l-.222 2.59c-.158 1.833-.392 2.464-.921 3.017h-.545v2.813zm1.688-2.813c.46-.605.626-1.649.767-3.017l.17-1.653h2.216v4.67h-3.153zm9.243 1.074c1.33 0 2.302-.664 2.608-1.653l-.971-.273c-.256.682-.848 1.023-1.637 1.023-1.18 0-1.994-.763-2.041-2.165h4.752v-.426c0-2.437-1.449-3.273-2.813-3.273-1.773 0-2.949 1.398-2.949 3.409 0 2.012 1.159 3.358 3.051 3.358zm-2.041-3.937c.068-1.019.789-1.926 1.939-1.926 1.091 0 1.79.818 1.79 1.926h-3.729zm6.282 6.256h1.005v-3.461h.085c.222.358.648 1.142 1.91 1.142 1.636 0 2.778-1.312 2.778-3.392 0-2.062-1.142-3.375-2.795-3.375-1.279 0-1.671.784-1.893 1.125h-.119v-1.039h-.971v9zm.988-5.728c0-1.466.648-2.454 1.875-2.454 1.279 0 1.909 1.074 1.909 2.454 0 1.398-.647 2.506-1.909 2.506-1.21 0-1.875-1.023-1.875-2.506z" fill="url(#paint9_linear_331_9053)"/><circle cx="24" cy="248" r="23.5" stroke="url(#paint10_linear_331_9053)"/><path d="M15.39 253h6.701v-1.317h-4.584v-.075l2.024-2.118c1.864-1.884 2.396-2.784 2.396-3.923 0-1.635-1.332-2.888-3.251-2.888-1.904 0-3.296 1.233-3.296 3.092h1.466c-.005-1.093.701-1.809 1.8-1.809 1.034 0 1.82.636 1.82 1.65 0 .9-.537 1.546-1.631 2.705l-3.445 3.569V253zm13.9-1.909c.005 1.148.726 2.118 2.073 2.118 1.333 0 2.063-.97 2.063-2.118v-.537c0-1.153-.71-2.118-2.063-2.118-1.327 0-2.068.97-2.073 2.118v.537zm-5.12-5.827c0 1.149.725 2.118 2.072 2.118 1.328 0 2.064-.964 2.059-2.118v-.537c.005-1.153-.711-2.118-2.058-2.118-1.323 0-2.074.965-2.074 2.118v.537zm.417 7.736h1.188l7-10.182h-1.188l-7 10.182zm5.861-2.446c.005-.572.254-1.124.915-1.124.686 0 .9.552.9 1.124v.537c0 .572-.233 1.123-.9 1.123-.676 0-.91-.556-.915-1.123v-.537zm-5.115-5.827c0-.566.248-1.123.91-1.123.686 0 .9.552.9 1.123v.537c0 .572-.234 1.124-.9 1.124-.677 0-.91-.552-.91-1.124v-.537z" fill="url(#paint11_linear_331_9053)"/><path stroke="url(#paint12_linear_331_9053)" d="M48 247.5h32"/><circle cx="84" cy="248" r="3.5" stroke="url(#paint13_linear_331_9053)"/><path d="M104.42 247.636c0-2.761-1.619-4.483-3.852-4.483-2.233 0-3.852 1.722-3.852 4.483 0 2.762 1.62 4.483 3.852 4.483 2.233 0 3.852-1.721 3.852-4.483zm-1.022 0c0 2.267-1.245 3.495-2.83 3.495s-2.83-1.228-2.83-3.495c0-2.267 1.245-3.494 2.83-3.494s2.83 1.227 2.83 3.494zm2.663 4.364h1.006v-5.608h3.136V252h1.006v-6.545h-5.148V252zm7.99-4.176v-2.369h-1.006V252h2.745c1.534 0 2.369-.938 2.369-2.114 0-1.193-.835-2.062-2.369-2.062h-1.739zm5.148 4.176h1.006v-6.545h-1.006V252zm-5.148-3.239h1.739c.797 0 1.363.486 1.363 1.177 0 .66-.566 1.124-1.363 1.124h-1.739v-2.301zm7.619-2.369h2.165V252h1.006v-5.608h2.148v-.937h-5.319v.937zm7.791-.937h-1.005V252h1.005v-2.795h3.137V252h1.005v-6.545h-1.005v2.812h-3.137v-2.812zm6.985 2.369v-2.369h-1.006V252h2.744c1.534 0 2.37-.938 2.37-2.114 0-1.193-.836-2.062-2.37-2.062h-1.738zm5.147 4.176h1.006v-6.545h-1.006V252zm-5.147-3.239h1.738c.797 0 1.364.486 1.364 1.177 0 .66-.567 1.124-1.364 1.124h-1.738v-2.301zm9 1.756v-5.062h-1.006V252h1.176l3.136-5.062V252h1.006v-6.545h-1.159l-3.153 5.062zm2.488-7.244c0 .443-.238.835-.835.835s-.818-.392-.818-.835h-.938c0 .92.682 1.568 1.756 1.568 1.091 0 1.773-.648 1.773-1.568h-.938zm6.666 3.119h2.165V252h1.006v-5.608h2.147v-.937H154.6v.937zm6.785 8.063h1.006v-3.461h.085c.222.358.648 1.142 1.909 1.142 1.637 0 2.779-1.312 2.779-3.392 0-2.062-1.142-3.375-2.796-3.375-1.278 0-1.67.784-1.892 1.125h-.119v-1.039h-.972v9zm.989-5.728c0-1.466.648-2.454 1.875-2.454 1.278 0 1.909 1.074 1.909 2.454 0 1.398-.648 2.506-1.909 2.506-1.21 0-1.875-1.023-1.875-2.506zm9.068 3.409c1.33 0 2.301-.664 2.608-1.653l-.972-.273c-.255.682-.848 1.023-1.636 1.023-1.18 0-1.994-.763-2.041-2.165h4.751v-.426c0-2.437-1.449-3.273-2.812-3.273-1.773 0-2.949 1.398-2.949 3.409 0 2.012 1.159 3.358 3.051 3.358zm-2.041-3.937c.068-1.019.788-1.926 1.939-1.926 1.091 0 1.79.818 1.79 1.926h-3.729zm7.287 2.318v-5.062h-1.006V252h1.176l3.137-5.062V252H181v-6.545h-1.159l-3.153 5.062zm2.488-7.244c0 .443-.238.835-.835.835-.596 0-.818-.392-.818-.835h-.937c0 .92.681 1.568 1.755 1.568 1.091 0 1.773-.648 1.773-1.568h-.938zm2.967 10.602h1.006V252h4.841v1.875h1.006v-2.813h-1.006v-5.607h-4.159l-.222 2.59c-.157 1.833-.392 2.464-.92 3.017h-.546v2.813zm1.688-2.813c.46-.605.626-1.649.767-3.017l.17-1.653h2.216v4.67h-3.153zm9.244 1.074c1.329 0 2.301-.664 2.608-1.653l-.972-.273c-.255.682-.848 1.023-1.636 1.023-1.18 0-1.994-.763-2.041-2.165h4.751v-.426c0-2.437-1.449-3.273-2.812-3.273-1.773 0-2.949 1.398-2.949 3.409 0 2.012 1.159 3.358 3.051 3.358zm-2.041-3.937c.068-1.019.788-1.926 1.939-1.926 1.091 0 1.789.818 1.789 1.926h-3.728zm6.281 6.256h1.006v-3.461h.085c.221.358.648 1.142 1.909 1.142 1.636 0 2.778-1.312 2.778-3.392 0-2.062-1.142-3.375-2.795-3.375-1.278 0-1.671.784-1.892 1.125h-.119v-1.039h-.972v9zm.989-5.728c0-1.466.647-2.454 1.875-2.454 1.278 0 1.909 1.074 1.909 2.454 0 1.398-.648 2.506-1.909 2.506-1.211 0-1.875-1.023-1.875-2.506z" fill="url(#paint14_linear_331_9053)"/><circle cx="24" cy="360" r="23.5" stroke="url(#paint15_linear_331_9053)"/><path d="M18.716 365.139c2.078 0 3.604-1.243 3.599-2.933.005-1.288-.776-2.212-2.128-2.421v-.08c1.064-.273 1.755-1.108 1.75-2.252.005-1.496-1.223-2.774-3.182-2.774-1.869 0-3.37 1.129-3.42 2.784h1.486c.035-.935.915-1.501 1.914-1.501 1.04 0 1.72.631 1.716 1.571.005.984-.786 1.63-1.914 1.63h-.86v1.253h.86c1.412 0 2.227.716 2.227 1.74 0 .99-.86 1.661-2.058 1.661-1.104 0-1.964-.567-2.024-1.472h-1.56c.064 1.661 1.535 2.794 3.594 2.794zm10.793-2.048c.005 1.148.726 2.118 2.073 2.118 1.332 0 2.063-.97 2.063-2.118v-.537c0-1.153-.71-2.118-2.063-2.118-1.327 0-2.068.97-2.073 2.118v.537zm-5.12-5.827c0 1.149.725 2.118 2.072 2.118 1.328 0 2.064-.964 2.059-2.118v-.537c.005-1.153-.711-2.118-2.059-2.118-1.322 0-2.073.965-2.073 2.118v.537zm.417 7.736h1.188l7-10.182h-1.188l-7 10.182zm5.861-2.446c.005-.572.254-1.124.915-1.124.686 0 .9.552.9 1.124v.537c0 .572-.234 1.123-.9 1.123-.676 0-.91-.556-.915-1.123v-.537zm-5.116-5.827c0-.566.25-1.123.91-1.123.686 0 .9.552.9 1.123v.537c0 .572-.233 1.124-.9 1.124-.676 0-.91-.552-.91-1.124v-.537z" fill="url(#paint16_linear_331_9053)"/><path stroke="url(#paint17_linear_331_9053)" d="M48 359.5h32"/><circle cx="84" cy="360" r="3.5" stroke="url(#paint18_linear_331_9053)"/><path d="M96.58 356.21h2.744V364h1.057v-7.79h2.744v-.937h-6.546v.937zm7.36 10.245h1.006v-3.461h.085c.221.358.648 1.142 1.909 1.142 1.636 0 2.778-1.312 2.778-3.392 0-2.062-1.142-3.375-2.795-3.375-1.278 0-1.671.784-1.892 1.125h-.119v-1.039h-.972v9zm.989-5.728c0-1.466.647-2.454 1.875-2.454 1.278 0 1.909 1.074 1.909 2.454 0 1.398-.648 2.506-1.909 2.506-1.211 0-1.875-1.023-1.875-2.506zm9.068 3.409c1.329 0 2.301-.664 2.608-1.653l-.972-.273c-.256.682-.848 1.023-1.636 1.023-1.181 0-1.995-.763-2.041-2.165h4.751v-.426c0-2.437-1.449-3.273-2.812-3.273-1.773 0-2.949 1.398-2.949 3.409 0 2.012 1.159 3.358 3.051 3.358zm-2.041-3.937c.068-1.019.788-1.926 1.939-1.926 1.09 0 1.789.818 1.789 1.926h-3.728zm7.287 2.318v-5.062h-1.006V364h1.176l3.136-5.062V364h1.006v-6.545h-1.159l-3.153 5.062zm2.488-7.244c0 .443-.238.835-.835.835s-.818-.392-.818-.835h-.938c0 .92.682 1.568 1.756 1.568 1.091 0 1.773-.648 1.773-1.568h-.938zm2.967 10.602h1.006V364h4.841v1.875h1.005v-2.813h-1.005v-5.607h-4.159l-.222 2.59c-.158 1.833-.392 2.464-.92 3.017h-.546v2.813zm1.688-2.813c.46-.605.626-1.649.767-3.017l.17-1.653h2.216v4.67h-3.153zm9.244 1.074c1.329 0 2.301-.664 2.608-1.653l-.972-.273c-.256.682-.848 1.023-1.636 1.023-1.181 0-1.995-.763-2.042-2.165h4.752v-.426c0-2.437-1.449-3.273-2.813-3.273-1.772 0-2.949 1.398-2.949 3.409 0 2.012 1.16 3.358 3.052 3.358zm-2.042-3.937c.069-1.019.789-1.926 1.939-1.926 1.091 0 1.79.818 1.79 1.926h-3.729zm6.282 6.256h1.005v-3.461h.086c.221.358.647 1.142 1.909 1.142 1.636 0 2.778-1.312 2.778-3.392 0-2.062-1.142-3.375-2.795-3.375-1.279 0-1.671.784-1.892 1.125h-.12v-1.039h-.971v9zm.988-5.728c0-1.466.648-2.454 1.875-2.454 1.279 0 1.909 1.074 1.909 2.454 0 1.398-.647 2.506-1.909 2.506-1.21 0-1.875-1.023-1.875-2.506zm12.358 3.409c1.449 0 2.404-.886 2.574-2.045h-1.006c-.187.716-.784 1.142-1.568 1.142-1.193 0-1.96-.989-1.96-2.506 0-1.483.784-2.454 1.96-2.454.887 0 1.415.545 1.568 1.142h1.006c-.17-1.227-1.21-2.046-2.591-2.046-1.773 0-2.949 1.398-2.949 3.392 0 1.961 1.125 3.375 2.966 3.375zm6.703 0c1.773 0 2.966-1.346 2.966-3.375 0-2.045-1.193-3.392-2.966-3.392-1.772 0-2.966 1.347-2.966 3.392 0 2.029 1.194 3.375 2.966 3.375zm0-.903c-1.346 0-1.96-1.159-1.96-2.472 0-1.312.614-2.488 1.96-2.488 1.347 0 1.961 1.176 1.961 2.488 0 1.313-.614 2.472-1.961 2.472zm10.536.903c1.448 0 2.403-.886 2.573-2.045h-1.005c-.188.716-.784 1.142-1.568 1.142-1.194 0-1.961-.989-1.961-2.506 0-1.483.784-2.454 1.961-2.454.886 0 1.414.545 1.568 1.142h1.005c-.17-1.227-1.21-2.046-2.59-2.046-1.773 0-2.949 1.398-2.949 3.392 0 1.961 1.125 3.375 2.966 3.375zm3.528-5.744h2.165V364h1.005v-5.608h2.148v-.937h-5.318v.937zm8.371 5.761c1.142 0 1.739-.613 1.944-1.039h.051V364h1.005v-4.312c0-2.08-1.585-2.319-2.42-2.319-.989 0-2.114.341-2.625 1.534l.954.341c.222-.477.746-.988 1.705-.988.925 0 1.381.49 1.381 1.329v.034c0 .486-.495.443-1.688.597-1.214.158-2.54.426-2.54 1.926 0 1.278.989 2.011 2.233 2.011zm.154-.903c-.801 0-1.381-.358-1.381-1.057 0-.767.699-1.005 1.483-1.108.426-.051 1.568-.17 1.739-.375v.921c0 .818-.648 1.619-1.841 1.619zm4.273.75h1.21l2.233-2.812h.511V364h1.006v-2.812h.511l2.216 2.812h1.211l-2.642-3.324 2.608-3.221h-1.194l-2.181 2.795h-.529v-2.795h-1.006v2.795h-.545l-2.182-2.795h-1.193l2.625 3.221-2.659 3.324zm12.81.136c1.329 0 2.301-.664 2.608-1.653l-.972-.273c-.256.682-.848 1.023-1.636 1.023-1.181 0-1.995-.763-2.042-2.165h4.752v-.426c0-2.437-1.449-3.273-2.813-3.273-1.772 0-2.949 1.398-2.949 3.409 0 2.012 1.16 3.358 3.052 3.358zm-2.042-3.937c.069-1.019.789-1.926 1.939-1.926 1.091 0 1.79.818 1.79 1.926h-3.729zm9.861 2.437l-2.25-5.181h-1.329V364h1.005v-5.101l2.165 5.101h.818l2.165-5.007V364h1.006v-6.545h-1.296l-2.284 5.181z" fill="url(#paint19_linear_331_9053)"/><circle cx="24" cy="472" r="23.5" stroke="url(#paint20_linear_331_9053)"/><path d="M14.889 475.011h4.827V477h1.467v-1.989h1.347v-1.302h-1.347v-6.891h-1.895l-4.4 6.95v1.243zm4.837-1.302H16.5v-.08l3.146-4.981h.08v5.061zm9.851 1.382c.005 1.148.726 2.118 2.073 2.118 1.333 0 2.064-.97 2.064-2.118v-.537c0-1.153-.711-2.118-2.064-2.118-1.327 0-2.068.97-2.073 2.118v.537zm-5.12-5.827c0 1.149.725 2.118 2.073 2.118 1.327 0 2.063-.964 2.058-2.118v-.537c.005-1.153-.711-2.118-2.058-2.118-1.323 0-2.074.965-2.074 2.118v.537zm.417 7.736h1.188l7-10.182h-1.188l-7 10.182zm5.862-2.446c.005-.572.253-1.124.914-1.124.687 0 .9.552.9 1.124v.537c0 .572-.233 1.123-.9 1.123-.676 0-.91-.556-.914-1.123v-.537zm-5.116-5.827c0-.566.248-1.123.91-1.123.686 0 .9.552.9 1.123v.537c0 .572-.234 1.124-.9 1.124-.677 0-.91-.552-.91-1.124v-.537z" fill="url(#paint21_linear_331_9053)"/><path stroke="url(#paint22_linear_331_9053)" d="M48 471.5h32"/><circle cx="84" cy="472" r="3.5" stroke="url(#paint23_linear_331_9053)"/><path d="M97.568 467.273h-1.244l2.812 4.363L96.324 476h1.244l2.25-3.562h.068l2.25 3.562h1.245l-2.745-4.364 2.745-4.363h-1.245l-2.25 3.63h-.068l-2.25-3.63zm8.978 8.88c1.142 0 1.738-.613 1.943-1.039h.051V476h1.006v-4.312c0-2.08-1.585-2.319-2.421-2.319-.988 0-2.113.341-2.625 1.534l.955.341c.221-.477.746-.988 1.704-.988.925 0 1.381.49 1.381 1.329v.034c0 .486-.494.443-1.687.597-1.215.158-2.54.426-2.54 1.926 0 1.278.988 2.011 2.233 2.011zm.153-.903c-.801 0-1.38-.358-1.38-1.057 0-.767.698-1.005 1.482-1.108.427-.051 1.569-.17 1.739-.375v.921c0 .818-.648 1.619-1.841 1.619zm5.688-.733v-5.062h-1.006V476h1.177l3.136-5.062V476h1.006v-6.545h-1.16l-3.153 5.062zm2.489-7.244c0 .443-.239.835-.836.835-.596 0-.818-.392-.818-.835h-.937c0 .92.682 1.568 1.755 1.568 1.091 0 1.773-.648 1.773-1.568h-.937zM123.4 467c-.32.268-.797.268-1.466.264-.218 0-.456 0-.716.009-1.995.051-2.983 1.568-2.983 4.483v.699c0 2.42 1.176 3.681 2.932 3.681 1.751 0 2.914-1.27 2.914-3.324 0-2.062-1.18-3.153-2.71-3.153-.899 0-1.739.375-2.182 1.193h-.085c.136-1.687.767-2.591 2.131-2.642 1.21-.051 2.079-.017 2.676-.596L123.4 467zm-2.233 8.233c-1.194 0-1.927-.955-1.927-2.421.022-1.431.742-2.25 1.91-2.25 1.197 0 1.926.819 1.926 2.25 0 1.475-.725 2.421-1.909 2.421zm6.379.92c1.142 0 1.738-.613 1.943-1.039h.051V476h1.006v-4.312c0-2.08-1.585-2.319-2.421-2.319-.988 0-2.113.341-2.625 1.534l.955.341c.221-.477.746-.988 1.704-.988.925 0 1.381.49 1.381 1.329v.034c0 .486-.494.443-1.687.597-1.215.158-2.54.426-2.54 1.926 0 1.278.988 2.011 2.233 2.011zm.153-.903c-.801 0-1.38-.358-1.38-1.057 0-.767.698-1.005 1.482-1.108.427-.051 1.569-.17 1.739-.375v.921c0 .818-.648 1.619-1.841 1.619zm5.688-5.795h-1.006V476h1.006v-2.795h3.136V476h1.006v-6.545h-1.006v2.812h-3.136v-2.812zm5.979 6.545h1.005v-2.761h.904l2.148 2.761h1.295l-2.676-3.392 2.642-3.153h-1.296l-2.352 2.846h-.665v-2.846h-1.005V476z" fill="url(#paint24_linear_331_9053)"/><circle cx="24" cy="584" r="23.5" stroke="url(#paint25_linear_331_9053)"/><path d="M18.703 589.139c2.048 0 3.51-1.447 3.505-3.43.004-1.969-1.368-3.401-3.222-3.401-.756 0-1.457.289-1.855.676h-.06l.324-2.848h4.32v-1.318h-5.598l-.572 5.131 1.408.209c.382-.343 1.068-.577 1.685-.577 1.208.01 2.083.915 2.083 2.158 0 1.223-.85 2.108-2.018 2.108-.985 0-1.765-.627-1.845-1.502h-1.491c.06 1.621 1.466 2.794 3.335 2.794zm10.635-2.048c.005 1.148.726 2.118 2.073 2.118 1.332 0 2.063-.97 2.063-2.118v-.537c0-1.153-.71-2.118-2.063-2.118-1.327 0-2.068.97-2.073 2.118v.537zm-5.12-5.827c0 1.149.725 2.118 2.072 2.118 1.328 0 2.064-.964 2.059-2.118v-.537c.005-1.153-.711-2.118-2.059-2.118-1.322 0-2.073.965-2.073 2.118v.537zm.417 7.736h1.188l7-10.182h-1.188l-7 10.182zm5.861-2.446c.005-.572.254-1.124.915-1.124.686 0 .9.552.9 1.124v.537c0 .572-.234 1.123-.9 1.123-.676 0-.91-.556-.915-1.123v-.537zm-5.115-5.827c0-.566.248-1.123.91-1.123.686 0 .9.552.9 1.123v.537c0 .572-.234 1.124-.9 1.124-.677 0-.91-.552-.91-1.124v-.537z" fill="url(#paint26_linear_331_9053)"/><path stroke="url(#paint27_linear_331_9053)" d="M48 583.5h32"/><circle cx="84" cy="584" r="3.5" stroke="url(#paint28_linear_331_9053)"/><path d="M104.331 582.217c-.269-1.939-1.76-3.064-3.695-3.064-2.28 0-3.997 1.662-3.997 4.483 0 2.817 1.696 4.483 3.997 4.483 2.076 0 3.452-1.342 3.695-3.008l-1.594-.009c-.2 1.023-1.035 1.598-2.079 1.598-1.415 0-2.43-1.061-2.43-3.064 0-1.968 1.006-3.064 2.434-3.064 1.061 0 1.892.601 2.075 1.645h1.594zm2.397 8.238c1.202 0 1.896-.618 2.267-1.662l2.629-7.33-1.649-.008-1.513 4.943h-.068l-1.508-4.943h-1.637l2.374 6.681-.132.354c-.286.746-.737.797-1.411.601l-.358 1.202c.209.085.584.162 1.006.162zm5.967-2.455h1.474v-5.28h2.566V588h1.487v-6.545h-5.527V588zm10.011.128c1.526 0 2.574-.746 2.847-1.884l-1.441-.162c-.209.554-.72.844-1.385.844-.997 0-1.657-.656-1.67-1.777h4.559v-.473c0-2.297-1.38-3.307-2.991-3.307-1.875 0-3.098 1.377-3.098 3.397 0 2.054 1.206 3.362 3.179 3.362zm-1.645-4.019c.047-.835.665-1.538 1.585-1.538.887 0 1.483.648 1.492 1.538h-3.077zm5.861 6.346h1.542v-3.486h.064c.243.477.75 1.146 1.875 1.146 1.543 0 2.697-1.223 2.697-3.379 0-2.182-1.188-3.367-2.701-3.367-1.155 0-1.637.695-1.871 1.168h-.089v-1.082h-1.517v9zm1.512-5.728c0-1.27.546-2.092 1.539-2.092 1.027 0 1.555.874 1.555 2.092 0 1.228-.537 2.122-1.555 2.122-.985 0-1.539-.852-1.539-2.122zm9.955-.997h-3.929V585h3.929v-1.27zm6.868-4.696c-.315.239-.814.234-1.491.234-.192 0-.392 0-.61.005-2.254.03-3.413 1.53-3.413 4.606v.588c0 2.395 1.21 3.661 3.115 3.661 1.905 0 3.106-1.27 3.106-3.29 0-1.96-1.142-3.089-2.765-3.089-.997 0-1.752.43-2.161 1.231h-.072c.153-1.632.767-2.369 2.233-2.403 1.3-.03 2.028-.051 2.595-.546l-.537-.997zm-2.391 7.858c-.967 0-1.559-.776-1.559-2.011.013-1.219.596-1.918 1.551-1.918.954 0 1.543.699 1.543 1.918 0 1.24-.584 2.011-1.535 2.011zm7.266 1.236c1.918 0 3.136-1.351 3.136-3.375 0-2.029-1.218-3.384-3.136-3.384-1.918 0-3.136 1.355-3.136 3.384 0 2.024 1.218 3.375 3.136 3.375zm.009-1.236c-1.061 0-1.581-.946-1.581-2.143 0-1.198.52-2.157 1.581-2.157 1.044 0 1.564.959 1.564 2.157 0 1.197-.52 2.143-1.564 2.143zm3.727-4.172h2.118V588h1.492v-5.28h2.118v-1.265h-5.728v1.265zm9.541 5.408c1.918 0 3.137-1.351 3.137-3.375 0-2.029-1.219-3.384-3.137-3.384-1.917 0-3.136 1.355-3.136 3.384 0 2.024 1.219 3.375 3.136 3.375zm.009-1.236c-1.061 0-1.581-.946-1.581-2.143 0-1.198.52-2.157 1.581-2.157 1.044 0 1.564.959 1.564 2.157 0 1.197-.52 2.143-1.564 2.143zm4.437 1.108h3.171c1.534 0 2.412-.695 2.412-1.777 0-.916-.712-1.555-1.739-1.645.873-.162 1.419-.626 1.419-1.364 0-1.103-.967-1.759-2.514-1.759h-2.749V588zm1.445-1.214v-1.624h1.726c.566 0 .912.328.912.869 0 .469-.346.755-.912.755H169.3zm0-2.621v-1.475h1.304c.643 0 1.035.273 1.035.721 0 .468-.379.754-1.005.754H169.3zm8.266 3.963c1.917 0 3.136-1.351 3.136-3.375 0-2.029-1.219-3.384-3.136-3.384-1.918 0-3.137 1.355-3.137 3.384 0 2.024 1.219 3.375 3.137 3.375zm.008-1.236c-1.061 0-1.581-.946-1.581-2.143 0-1.198.52-2.157 1.581-2.157 1.044 0 1.564.959 1.564 2.157 0 1.197-.52 2.143-1.564 2.143zm3.858 3.009h1.517V588h4.283v1.901h1.491v-3.171h-1.014v-5.275h-4.73l-.188 2.292c-.123 1.466-.285 2.553-.839 2.983h-.52v3.171zm2.105-3.171c.413-.609.567-1.598.677-2.983l.103-1.048h1.917v4.031h-2.697z" fill="url(#paint29_linear_331_9053)"/><defs><linearGradient id="paint0_linear_331_9053" x1="-8.575" y1="23.972" x2="55.813" y2="23.972" gradientUnits="userSpaceOnUse"><stop stop-color="#4FFA93"/><stop offset="1" stop-color="#45F5B6"/></linearGradient><linearGradient id="paint1_linear_331_9053" x1="2.105" y1="23.49" x2="46.371" y2="23.49" gradientUnits="userSpaceOnUse"><stop stop-color="#4FFA93"/><stop offset="1" stop-color="#45F5B6"/></linearGradient><linearGradient id="paint2_linear_331_9053" x1="42.283" y1="24.499" x2="85.208" y2="24.499" gradientUnits="userSpaceOnUse"><stop stop-color="#4FFA93"/><stop offset="1" stop-color="#45F5B6"/></linearGradient><linearGradient id="paint3_linear_331_9053" x1="78.571" y1="23.995" x2="89.302" y2="23.995" gradientUnits="userSpaceOnUse"><stop stop-color="#4FFA93"/><stop offset="1" stop-color="#45F5B6"/></linearGradient><linearGradient id="paint4_linear_331_9053" x1="86.71" y1="23.491" x2="156.464" y2="23.491" gradientUnits="userSpaceOnUse"><stop stop-color="#4FFA93"/><stop offset="1" stop-color="#45F5B6"/></linearGradient><linearGradient id="paint5_linear_331_9053" x1="-6.54" y1="172.024" x2="69.243" y2="118.51" gradientUnits="userSpaceOnUse"><stop stop-color="#1C221F"/><stop offset=".922" stop-color="#392D49"/><stop offset="1" stop-color="#57456F"/></linearGradient><linearGradient id="paint6_linear_331_9053" x1="12.411" y1="148.258" x2="40.112" y2="126.396" gradientUnits="userSpaceOnUse"><stop stop-color="#1C221F"/><stop offset=".922" stop-color="#392D49"/><stop offset="1" stop-color="#57456F"/></linearGradient><linearGradient id="paint7_linear_331_9053" x1="43.64" y1="137.25" x2="43.788" y2="133.906" gradientUnits="userSpaceOnUse"><stop stop-color="#1C221F"/><stop offset=".922" stop-color="#392D49"/><stop offset="1" stop-color="#57456F"/></linearGradient><linearGradient id="paint8_linear_331_9053" x1="78.91" y1="142.004" x2="91.54" y2="133.085" gradientUnits="userSpaceOnUse"><stop stop-color="#1C221F"/><stop offset=".922" stop-color="#392D49"/><stop offset="1" stop-color="#57456F"/></linearGradient><linearGradient id="paint9_linear_331_9053" x1="78.151" y1="146.757" x2="86.092" y2="97.785" gradientUnits="userSpaceOnUse"><stop stop-color="#1C221F"/><stop offset=".922" stop-color="#392D49"/><stop offset="1" stop-color="#57456F"/></linearGradient><linearGradient id="paint10_linear_331_9053" x1="-6.54" y1="284.024" x2="69.243" y2="230.51" gradientUnits="userSpaceOnUse"><stop stop-color="#1C221F"/><stop offset=".922" stop-color="#392D49"/><stop offset="1" stop-color="#57456F"/></linearGradient><linearGradient id="paint11_linear_331_9053" x1="11.139" y1="260.258" x2="39.356" y2="235.645" gradientUnits="userSpaceOnUse"><stop stop-color="#1C221F"/><stop offset=".922" stop-color="#392D49"/><stop offset="1" stop-color="#57456F"/></linearGradient><linearGradient id="paint12_linear_331_9053" x1="43.64" y1="249.25" x2="43.788" y2="245.906" gradientUnits="userSpaceOnUse"><stop stop-color="#1C221F"/><stop offset=".922" stop-color="#392D49"/><stop offset="1" stop-color="#57456F"/></linearGradient><linearGradient id="paint13_linear_331_9053" x1="78.91" y1="254.004" x2="91.54" y2="245.085" gradientUnits="userSpaceOnUse"><stop stop-color="#1C221F"/><stop offset=".922" stop-color="#392D49"/><stop offset="1" stop-color="#57456F"/></linearGradient><linearGradient id="paint14_linear_331_9053" x1="81.285" y1="258.757" x2="90.802" y2="210.369" gradientUnits="userSpaceOnUse"><stop stop-color="#1C221F"/><stop offset=".922" stop-color="#392D49"/><stop offset="1" stop-color="#57456F"/></linearGradient><linearGradient id="paint15_linear_331_9053" x1="-6.54" y1="396.024" x2="69.243" y2="342.51" gradientUnits="userSpaceOnUse"><stop stop-color="#1C221F"/><stop offset=".922" stop-color="#392D49"/><stop offset="1" stop-color="#57456F"/></linearGradient><linearGradient id="paint16_linear_331_9053" x1="11.139" y1="372.258" x2="39.356" y2="347.645" gradientUnits="userSpaceOnUse"><stop stop-color="#1C221F"/><stop offset=".922" stop-color="#392D49"/><stop offset="1" stop-color="#57456F"/></linearGradient><linearGradient id="paint17_linear_331_9053" x1="43.64" y1="361.25" x2="43.788" y2="357.906" gradientUnits="userSpaceOnUse"><stop stop-color="#1C221F"/><stop offset=".922" stop-color="#392D49"/><stop offset="1" stop-color="#57456F"/></linearGradient><linearGradient id="paint18_linear_331_9053" x1="78.91" y1="366.004" x2="91.54" y2="357.085" gradientUnits="userSpaceOnUse"><stop stop-color="#1C221F"/><stop offset=".922" stop-color="#392D49"/><stop offset="1" stop-color="#57456F"/></linearGradient><linearGradient id="paint19_linear_331_9053" x1="80.195" y1="370.757" x2="89.1" y2="322.128" gradientUnits="userSpaceOnUse"><stop stop-color="#1C221F"/><stop offset=".922" stop-color="#392D49"/><stop offset="1" stop-color="#57456F"/></linearGradient><linearGradient id="paint20_linear_331_9053" x1="-6.54" y1="508.024" x2="69.243" y2="454.51" gradientUnits="userSpaceOnUse"><stop stop-color="#1C221F"/><stop offset=".922" stop-color="#392D49"/><stop offset="1" stop-color="#57456F"/></linearGradient><linearGradient id="paint21_linear_331_9053" x1="11.139" y1="484.258" x2="39.356" y2="459.645" gradientUnits="userSpaceOnUse"><stop stop-color="#1C221F"/><stop offset=".922" stop-color="#392D49"/><stop offset="1" stop-color="#57456F"/></linearGradient><linearGradient id="paint22_linear_331_9053" x1="43.64" y1="473.25" x2="43.788" y2="469.906" gradientUnits="userSpaceOnUse"><stop stop-color="#1C221F"/><stop offset=".922" stop-color="#392D49"/><stop offset="1" stop-color="#57456F"/></linearGradient><linearGradient id="paint23_linear_331_9053" x1="78.91" y1="478.004" x2="91.54" y2="469.085" gradientUnits="userSpaceOnUse"><stop stop-color="#1C221F"/><stop offset=".922" stop-color="#392D49"/><stop offset="1" stop-color="#57456F"/></linearGradient><linearGradient id="paint24_linear_331_9053" x1="89.324" y1="482.757" x2="107.665" y2="440.448" gradientUnits="userSpaceOnUse"><stop stop-color="#1C221F"/><stop offset=".922" stop-color="#392D49"/><stop offset="1" stop-color="#57456F"/></linearGradient><linearGradient id="paint25_linear_331_9053" x1="-6.54" y1="614.327" x2="64.058" y2="559.246" gradientUnits="userSpaceOnUse"><stop stop-color="#F55991"/><stop offset="1" stop-color="#725DF2"/></linearGradient><linearGradient id="paint26_linear_331_9053" x1="11.139" y1="594.241" x2="36.899" y2="569.414" gradientUnits="userSpaceOnUse"><stop stop-color="#F55991"/><stop offset="1" stop-color="#725DF2"/></linearGradient><linearGradient id="paint27_linear_331_9053" x1="43.64" y1="585.132" x2="43.761" y2="582.104" gradientUnits="userSpaceOnUse"><stop stop-color="#F55991"/><stop offset="1" stop-color="#725DF2"/></linearGradient><linearGradient id="paint28_linear_331_9053" x1="78.91" y1="589.054" x2="90.676" y2="579.874" gradientUnits="userSpaceOnUse"><stop stop-color="#F55991"/><stop offset="1" stop-color="#725DF2"/></linearGradient><linearGradient id="paint29_linear_331_9053" x1="83.192" y1="592.977" x2="92.123" y2="549.314" gradientUnits="userSpaceOnUse"><stop stop-color="#F55991"/><stop offset="1" stop-color="#725DF2"/></linearGradient></defs></svg>