<svg width="97" height="74" fill="none" xmlns="http://www.w3.org/2000/svg"><circle cx="2.5" cy="2.5" r="2.5" fill="url(#paint0_linear_213_466)"/><circle cx="2.5" cy="25.5" r="2.5" fill="url(#paint1_linear_213_466)"/><circle cx="2.5" cy="48.5" r="2.5" fill="url(#paint2_linear_213_466)"/><circle cx="2.5" cy="71.5" r="2.5" fill="url(#paint3_linear_213_466)"/><circle cx="25.5" cy="2.5" r="2.5" fill="url(#paint4_linear_213_466)"/><circle cx="25.5" cy="25.5" r="2.5" fill="url(#paint5_linear_213_466)"/><circle cx="25.5" cy="48.5" r="2.5" fill="url(#paint6_linear_213_466)"/><circle cx="25.5" cy="71.5" r="2.5" fill="url(#paint7_linear_213_466)"/><circle cx="48.5" cy="2.5" r="2.5" fill="url(#paint8_linear_213_466)"/><circle cx="48.5" cy="25.5" r="2.5" fill="url(#paint9_linear_213_466)"/><circle cx="48.5" cy="48.5" r="2.5" fill="url(#paint10_linear_213_466)"/><circle cx="48.5" cy="71.5" r="2.5" fill="url(#paint11_linear_213_466)"/><circle cx="71.5" cy="2.5" r="2.5" fill="url(#paint12_linear_213_466)"/><circle cx="71.5" cy="25.5" r="2.5" fill="url(#paint13_linear_213_466)"/><circle cx="71.5" cy="48.5" r="2.5" fill="url(#paint14_linear_213_466)"/><circle cx="71.5" cy="71.5" r="2.5" fill="url(#paint15_linear_213_466)"/><circle cx="94.5" cy="2.5" r="2.5" fill="url(#paint16_linear_213_466)"/><circle cx="94.5" cy="25.5" r="2.5" fill="url(#paint17_linear_213_466)"/><circle cx="94.5" cy="48.5" r="2.5" fill="url(#paint18_linear_213_466)"/><circle cx="94.5" cy="71.5" r="2.5" fill="url(#paint19_linear_213_466)"/><defs><linearGradient id="paint0_linear_213_466" x1="-.893" y1="2.497" x2="5.814" y2="2.497" gradientUnits="userSpaceOnUse"><stop stop-color="#4FFA93"/><stop offset="1" stop-color="#45F5B6"/></linearGradient><linearGradient id="paint1_linear_213_466" x1="-.893" y1="25.497" x2="5.814" y2="25.497" gradientUnits="userSpaceOnUse"><stop stop-color="#4FFA93"/><stop offset="1" stop-color="#45F5B6"/></linearGradient><linearGradient id="paint2_linear_213_466" x1="-.893" y1="48.497" x2="5.814" y2="48.497" gradientUnits="userSpaceOnUse"><stop stop-color="#4FFA93"/><stop offset="1" stop-color="#45F5B6"/></linearGradient><linearGradient id="paint3_linear_213_466" x1="-.893" y1="71.497" x2="5.814" y2="71.497" gradientUnits="userSpaceOnUse"><stop stop-color="#4FFA93"/><stop offset="1" stop-color="#45F5B6"/></linearGradient><linearGradient id="paint4_linear_213_466" x1="22.107" y1="2.497" x2="28.814" y2="2.497" gradientUnits="userSpaceOnUse"><stop stop-color="#4FFA93"/><stop offset="1" stop-color="#45F5B6"/></linearGradient><linearGradient id="paint5_linear_213_466" x1="22.107" y1="25.497" x2="28.814" y2="25.497" gradientUnits="userSpaceOnUse"><stop stop-color="#4FFA93"/><stop offset="1" stop-color="#45F5B6"/></linearGradient><linearGradient id="paint6_linear_213_466" x1="22.107" y1="48.497" x2="28.814" y2="48.497" gradientUnits="userSpaceOnUse"><stop stop-color="#4FFA93"/><stop offset="1" stop-color="#45F5B6"/></linearGradient><linearGradient id="paint7_linear_213_466" x1="22.107" y1="71.497" x2="28.814" y2="71.497" gradientUnits="userSpaceOnUse"><stop stop-color="#4FFA93"/><stop offset="1" stop-color="#45F5B6"/></linearGradient><linearGradient id="paint8_linear_213_466" x1="45.107" y1="2.497" x2="51.814" y2="2.497" gradientUnits="userSpaceOnUse"><stop stop-color="#4FFA93"/><stop offset="1" stop-color="#45F5B6"/></linearGradient><linearGradient id="paint9_linear_213_466" x1="45.107" y1="25.497" x2="51.814" y2="25.497" gradientUnits="userSpaceOnUse"><stop stop-color="#4FFA93"/><stop offset="1" stop-color="#45F5B6"/></linearGradient><linearGradient id="paint10_linear_213_466" x1="45.107" y1="48.497" x2="51.814" y2="48.497" gradientUnits="userSpaceOnUse"><stop stop-color="#4FFA93"/><stop offset="1" stop-color="#45F5B6"/></linearGradient><linearGradient id="paint11_linear_213_466" x1="45.107" y1="71.497" x2="51.814" y2="71.497" gradientUnits="userSpaceOnUse"><stop stop-color="#4FFA93"/><stop offset="1" stop-color="#45F5B6"/></linearGradient><linearGradient id="paint12_linear_213_466" x1="68.107" y1="2.497" x2="74.814" y2="2.497" gradientUnits="userSpaceOnUse"><stop stop-color="#4FFA93"/><stop offset="1" stop-color="#45F5B6"/></linearGradient><linearGradient id="paint13_linear_213_466" x1="68.107" y1="25.497" x2="74.814" y2="25.497" gradientUnits="userSpaceOnUse"><stop stop-color="#4FFA93"/><stop offset="1" stop-color="#45F5B6"/></linearGradient><linearGradient id="paint14_linear_213_466" x1="68.107" y1="48.497" x2="74.814" y2="48.497" gradientUnits="userSpaceOnUse"><stop stop-color="#4FFA93"/><stop offset="1" stop-color="#45F5B6"/></linearGradient><linearGradient id="paint15_linear_213_466" x1="68.107" y1="71.497" x2="74.814" y2="71.497" gradientUnits="userSpaceOnUse"><stop stop-color="#4FFA93"/><stop offset="1" stop-color="#45F5B6"/></linearGradient><linearGradient id="paint16_linear_213_466" x1="91.107" y1="2.497" x2="97.814" y2="2.497" gradientUnits="userSpaceOnUse"><stop stop-color="#4FFA93"/><stop offset="1" stop-color="#45F5B6"/></linearGradient><linearGradient id="paint17_linear_213_466" x1="91.107" y1="25.497" x2="97.814" y2="25.497" gradientUnits="userSpaceOnUse"><stop stop-color="#4FFA93"/><stop offset="1" stop-color="#45F5B6"/></linearGradient><linearGradient id="paint18_linear_213_466" x1="91.107" y1="48.497" x2="97.814" y2="48.497" gradientUnits="userSpaceOnUse"><stop stop-color="#4FFA93"/><stop offset="1" stop-color="#45F5B6"/></linearGradient><linearGradient id="paint19_linear_213_466" x1="91.107" y1="71.497" x2="97.814" y2="71.497" gradientUnits="userSpaceOnUse"><stop stop-color="#4FFA93"/><stop offset="1" stop-color="#45F5B6"/></linearGradient></defs></svg>