<svg width="1273" height="1378" fill="none" xmlns="http://www.w3.org/2000/svg"><mask id="a" style="mask-type:alpha" maskUnits="userSpaceOnUse" x="118" y="197" width="1001" height="836"><path d="M964.028 371.714C1046.07 465.752 1125 591.932 1117.6 713.15c-7.45 121.303-101.26 237.507-218.716 259.401-117.455 21.894-258.552-50.523-395.117-35.299-136.565 15.223-268.459 118.048-328.071 90.808-59.476-27.27-46.67-184.618-49.083-301.609-2.551-116.957-20.407-193.612 4.344-252.395 24.699-58.698 91.92-99.577 152.061-133.404 60.193-33.913 113.186-60.964 183.463-90.87 70.276-29.907 157.801-62.806 244.07-48.292 86.321 14.429 171.385 76.272 253.477 170.224z" fill="url(#paint0_linear_526_966)" fill-opacity=".25"/></mask><g mask="url(#a)"><g filter="url(#filter0_d_526_966)"><path d="M1105.67 496.832c49.5 114.56 86.24 258.788 42.26 371.991-44.04 113.268-168.797 195.367-287.339 180.447-118.541-14.93-230.872-126.889-365.584-153.991-134.711-27.102-291.661 30.66-340.142-13.446-48.339-44.097 11.791-190.064 45.132-302.229 33.199-112.176 39.543-190.626 81.025-239.075 41.407-48.384 117.886-66.842 185.473-80.741 67.663-13.964 126.378-23.585 202.425-30.662 76.046-7.076 169.434-11.749 247.181 28.356 77.822 40.039 139.999 124.856 189.569 239.35z" fill="url(#paint1_linear_526_966)" fill-opacity=".25" shape-rendering="crispEdges"/></g><path d="M352.331 143l132.122 114.03h66.061L648.229 143l88.081 53.58 132.121-35.72-13.762 197.835h88.081l26.149 127.768-60.556 141.507 122.487 52.207L1079 1041.5H818.886l-34.407 87.93H594.554l-88.081-61.83-202.311 92.05-66.061-65.94V921.975l-66.06-92.048 66.06-149.75v-149.75L128 486.463V257.03L352.331 143z" stroke="#fff" stroke-opacity=".5" stroke-width="3"/><path d="M553.793 609.132l23.893-12.203h31.516l21.988 23.082 5.716 28.815 13.046 5.587 5.131 38.666h-27.705l-33.274 2.793-21.548 9.85-7.036-7.057v-60.277l-11.727-4.704v-24.552z" stroke="#fff" stroke-opacity=".5" stroke-width="3"/><path d="M368.748 177.918l122.877 104.789h63.403l91.044-104.371 82.152 50.347 122.178-31.865-12.484 183.725 82.309.43L944.562 500.4l-55.7 132.109L1000.86 680.7l43.4 333.53-241.385.11-33.04 81.27-176.973.75-81.576-57.33-187.019 84.69-60.98-61.58V902.914l-60.979-88.191 60.528-138.411-.451-138.412-101.632-41.526V283.645l207.995-105.727z" stroke="#fff" stroke-opacity=".5" stroke-width="3"/><path d="M385.164 212.836l113.633 95.548h60.746l84.373-94.711 76.222 47.112 112.234-28.008-11.205 169.615 76.537.86 22.521 111.086-50.845 122.711 101.512 44.174 38.628 305.735-222.656.215-31.673 74.617-164.021 1.51-75.071-52.85-171.728 77.34-55.897-57.21V883.854l-55.898-84.333 54.996-127.073-.903-127.074-93.162-39.088V310.261l191.657-97.425z" stroke="#fff" stroke-opacity=".5" stroke-width="3"/><path d="M401.58 247.753l104.388 86.307h58.089l77.703-85.052 70.291 43.879 102.292-24.152-9.927 155.506 70.765 1.289 20.707 102.745-45.99 113.312 91.025 40.159 33.857 277.941-203.928.322-30.306 67.961-151.068 2.27-68.567-48.37-156.436 69.99-50.816-52.845V864.793l-50.815-80.475 49.462-115.736-1.353-115.735-84.693-36.65V336.876l175.32-89.123z" stroke="#fff" stroke-opacity=".5" stroke-width="3"/><path d="M417.995 282.671l95.145 77.066h55.432l71.031-75.393 64.362 40.645 92.348-20.296-8.648 141.396 64.993 1.719 18.893 94.403-41.134 103.915 80.537 36.143 29.085 250.147-185.198.43-28.939 61.302-138.117 3.03-62.061-43.886-141.144 62.638-45.735-48.479V845.732l-45.734-76.618 43.93-104.397-1.804-104.396-76.224-34.214V363.492l158.982-80.821z" stroke="#fff" stroke-opacity=".5" stroke-width="3"/><path d="M434.412 317.589l85.9 67.825h52.774l64.361-65.733 58.432 37.411 82.405-16.44-7.37 127.286 59.221 2.148 17.079 86.063-36.279 94.517 70.05 32.127 24.314 222.352-166.469.537-27.572 54.646-125.165 3.789-55.556-39.402-125.853 55.288-40.652-44.116V826.672l-40.653-72.76 38.397-93.059-2.255-93.058-67.754-31.776V390.107l142.645-72.518z" stroke="#fff" stroke-opacity=".5" stroke-width="3"/><path d="M450.828 352.506l76.656 58.585h50.117l57.69-56.074 52.502 34.177 72.462-12.584-6.092 113.176 53.45 2.579 15.264 77.721-31.423 85.119 59.561 28.111 19.544 194.559-147.74.644-26.205 47.99-112.213 4.546-49.052-34.918-110.56 47.936-35.571-39.75v-96.711l-35.572-68.903 32.866-81.721-2.707-81.72-59.285-29.338V416.723l126.308-64.217z" stroke="#fff" stroke-opacity=".5" stroke-width="3"/><path d="M467.243 387.423l67.412 49.344h47.46l51.019-46.415 46.572 30.944 62.519-8.728-4.813 99.066 47.677 3.008 13.451 69.38-26.568 75.721 49.074 24.095 14.773 166.765-129.011.752-24.839 41.334-99.26 5.303-42.547-30.433-95.269 40.584-30.49-35.384V788.55l-30.489-65.045 27.332-70.382-3.157-70.382-50.816-26.901V443.338l109.97-55.915z" stroke="#fff" stroke-opacity=".5" stroke-width="3"/><path d="M483.659 422.341l58.168 40.103h44.802l44.349-36.756 40.642 27.71 52.575-4.872-3.534 84.956 41.906 3.438 11.636 61.039-21.712 66.323 38.586 20.079 10.002 138.971-110.282.859-23.472 34.678-86.308 6.061-36.043-25.949-79.977 33.232-25.408-31.018V769.49l-25.408-61.188 21.8-59.044-3.608-59.044-42.347-24.463v-95.798l93.633-47.612z" stroke="#fff" stroke-opacity=".5" stroke-width="3"/><path d="M500.076 457.259l48.923 30.862h42.145l37.677-27.096 34.713 24.476 42.632-1.016-2.256 70.847 36.134 3.867 9.822 52.698-16.857 56.925 28.099 16.063 5.231 111.176-91.553.967-22.105 28.022-73.356 6.819-29.538-21.465-64.685 25.879-20.326-26.652V750.43l-20.327-57.331 16.267-47.705-4.059-47.705-33.877-22.026v-79.094l77.296-39.31z" stroke="#fff" stroke-opacity=".5" stroke-width="3"/><path d="M516.492 492.177l39.679 21.621h39.488l31.006-17.437 28.783 21.242 32.689 2.84-.978 56.737 30.362 4.297 8.008 44.357-12.001 47.526 17.61 12.048.461 83.382-72.824 1.075-20.738 21.365-60.404 7.577-23.033-16.981-49.393 18.528-15.245-22.287v-46.698l-15.245-53.473 10.734-36.367-4.51-36.367-25.408-19.588v-62.39l60.959-31.007z" stroke="#fff" stroke-opacity=".5" stroke-width="3"/><path d="M532.907 527.094l30.435 12.38h36.831l24.335-7.778 22.854 18.009 22.745 6.695.301 42.628 24.59 4.727 6.193 36.015-7.145 38.129 7.123 8.032-4.311 55.588-54.095 1.182-19.371 14.709-47.452 8.334-16.528-12.497-34.101 11.176-10.164-17.92v-34.195l-10.163-49.615 5.202-25.029-4.961-25.029-16.939-17.151v-45.685l44.621-22.705z" stroke="#fff" stroke-opacity=".5" stroke-width="3"/><path d="M549.323 562.012l21.191 3.139h34.173l17.665 1.882 16.924 14.775 12.801 10.551 1.58 28.518 18.818 5.157 4.38 27.674-2.291 28.73-3.364 4.016-9.082 27.794-35.366 1.29-18.004 8.053-34.5 9.092-10.023-8.013-18.81 3.824-5.081-13.555v-21.691l-5.082-45.758-.331-13.69-5.412-13.691-8.469-14.713v-28.981l28.283-14.403z" stroke="#fff" stroke-opacity=".5" stroke-width="3"/></g><mask id="b" style="mask-type:alpha" maskUnits="userSpaceOnUse" x="159" y="274" width="949" height="689"><path d="M348.103 870.037c-95.312-64.292-163.169-146.825-182.68-242.216-19.285-95.249 9.79-203.198 94.628-270.388 84.837-67.191 225.652-93.639 339.005-79.849 113.352 13.79 199.445 67.644 298.39 120.495 98.945 52.85 210.744 104.698 209.984 161.343-.75 56.645-114.024 118.403-202.709 197.051-88.685 78.648-152.777 174.187-245.866 199.143-93.316 24.814-215.654-21.27-310.752-85.579z" fill="url(#paint2_linear_526_966)" fill-opacity=".5"/></mask><g mask="url(#b)"><g filter="url(#filter1_d_526_966)"><path d="M348.103 870.037c-95.312-64.292-163.169-146.825-182.68-242.216-19.285-95.249 9.79-203.198 94.628-270.388 84.837-67.191 225.652-93.639 339.005-79.849 113.352 13.79 199.445 67.644 298.39 120.495 98.945 52.85 210.744 104.698 209.984 161.343-.75 56.645-114.024 118.403-202.709 197.051-88.685 78.648-152.777 174.187-245.866 199.143-93.316 24.814-215.654-21.27-310.752-85.579z" fill="url(#paint3_linear_526_966)" fill-opacity=".5" shape-rendering="crispEdges"/></g><path d="M352.331 143l132.122 114.03h66.061L648.229 143l88.081 53.58 132.121-35.72-13.762 197.835h88.081l26.149 127.768-60.556 141.507 122.487 52.207L1079 1041.5H818.886l-34.407 87.93H594.554l-88.081-61.83-202.311 92.05-66.061-65.94V921.975l-66.06-92.048 66.06-149.75v-149.75L128 486.463V257.03L352.331 143z" stroke="#fff" stroke-opacity=".5" stroke-width="3"/><path d="M553.793 609.132l23.893-12.203h31.516l21.988 23.082 5.716 28.815 13.046 5.587 5.131 38.666h-27.705l-33.274 2.793-21.548 9.85-7.036-7.057v-60.277l-11.727-4.704v-24.552z" stroke="#fff" stroke-opacity=".5" stroke-width="3"/><path d="M368.748 177.918l122.877 104.789h63.403l91.044-104.371 82.152 50.347 122.178-31.865-12.484 183.725 82.309.43L944.562 500.4l-55.7 132.109L1000.86 680.7l43.4 333.53-241.385.11-33.04 81.27-176.973.75-81.576-57.33-187.019 84.69-60.98-61.58V902.914l-60.979-88.191 60.528-138.411-.451-138.412-101.632-41.526V283.645l207.995-105.727z" stroke="#fff" stroke-opacity=".5" stroke-width="3"/><path d="M385.164 212.836l113.633 95.548h60.746l84.373-94.711 76.222 47.112 112.234-28.008-11.205 169.615 76.537.86 22.521 111.086-50.845 122.711 101.512 44.174 38.628 305.735-222.656.215-31.673 74.617-164.021 1.51-75.071-52.85-171.728 77.34-55.897-57.21V883.854l-55.898-84.333 54.996-127.073-.903-127.074-93.162-39.088V310.261l191.657-97.425z" stroke="#fff" stroke-opacity=".5" stroke-width="3"/><path d="M401.579 247.753l104.389 86.307h58.089l77.702-85.052 70.292 43.879 102.292-24.152-9.927 155.506 70.765 1.289 20.707 102.745-45.99 113.312 91.025 40.159 33.856 277.941-203.927.322-30.306 67.961-151.068 2.27-68.567-48.37-156.436 69.99-50.816-52.845V864.793l-50.816-80.475 49.463-115.736-1.353-115.735-84.693-36.65V336.876l175.319-89.123z" stroke="#fff" stroke-opacity=".5" stroke-width="3"/><path d="M417.995 282.671l95.145 77.066h55.432l71.031-75.393 64.362 40.645 92.348-20.296-8.648 141.396 64.993 1.719 18.893 94.403-41.134 103.915 80.537 36.143 29.085 250.147-185.198.43-28.939 61.302-138.117 3.03-62.061-43.886-141.144 62.638-45.735-48.479V845.732l-45.734-76.618 43.93-104.397-1.804-104.396-76.224-34.214V363.492l158.982-80.821z" stroke="#fff" stroke-opacity=".5" stroke-width="3"/><path d="M434.412 317.589l85.9 67.825h52.774l64.361-65.733 58.432 37.411 82.405-16.44-7.37 127.286 59.221 2.148 17.079 86.063-36.279 94.517 70.05 32.127 24.314 222.352-166.469.537-27.572 54.646-125.165 3.789-55.556-39.402-125.853 55.288-40.652-44.116V826.672l-40.653-72.76 38.397-93.059-2.255-93.058-67.754-31.776V390.107l142.645-72.518z" stroke="#fff" stroke-opacity=".5" stroke-width="3"/><path d="M450.828 352.506l76.656 58.585h50.117l57.69-56.074 52.502 34.177 72.462-12.584-6.092 113.176 53.45 2.579 15.264 77.721-31.423 85.119 59.561 28.111 19.544 194.559-147.74.644-26.205 47.99-112.213 4.546-49.052-34.918-110.56 47.936-35.571-39.75v-96.711l-35.572-68.903 32.866-81.721-2.707-81.72-59.285-29.338V416.723l126.308-64.217z" stroke="#fff" stroke-opacity=".5" stroke-width="3"/><path d="M467.243 387.423l67.412 49.344h47.46l51.019-46.415 46.572 30.944 62.519-8.728-4.813 99.066 47.677 3.008 13.451 69.38-26.568 75.721 49.074 24.095 14.773 166.765-129.011.752-24.839 41.334-99.26 5.303-42.547-30.433-95.269 40.584-30.49-35.384V788.55l-30.489-65.045 27.332-70.382-3.157-70.382-50.816-26.901V443.338l109.97-55.915z" stroke="#fff" stroke-opacity=".5" stroke-width="3"/><path d="M483.659 422.341l58.168 40.103h44.802l44.349-36.756 40.642 27.71 52.575-4.872-3.534 84.956 41.906 3.438 11.636 61.039-21.712 66.323 38.586 20.079 10.002 138.971-110.282.859-23.472 34.678-86.308 6.061-36.043-25.949-79.977 33.232-25.408-31.018V769.49l-25.408-61.188 21.8-59.044-3.608-59.044-42.347-24.463v-95.798l93.633-47.612z" stroke="#fff" stroke-opacity=".5" stroke-width="3"/><path d="M500.076 457.259l48.923 30.862h42.145l37.677-27.096 34.713 24.476 42.632-1.016-2.256 70.847 36.134 3.867 9.822 52.698-16.857 56.925 28.099 16.063 5.231 111.176-91.553.967-22.105 28.022-73.356 6.819-29.538-21.465-64.685 25.879-20.326-26.652V750.43l-20.327-57.331 16.267-47.705-4.059-47.705-33.877-22.026v-79.094l77.296-39.31z" stroke="#fff" stroke-opacity=".5" stroke-width="3"/><path d="M516.492 492.177l39.679 21.621h39.488l31.006-17.437 28.783 21.242 32.689 2.84-.978 56.737 30.362 4.297 8.008 44.357-12.001 47.526 17.61 12.048.461 83.382-72.824 1.075-20.738 21.365-60.404 7.577-23.033-16.981-49.393 18.528-15.245-22.287v-46.698l-15.245-53.473 10.734-36.367-4.51-36.367-25.408-19.588v-62.39l60.959-31.007z" stroke="#fff" stroke-opacity=".5" stroke-width="3"/><path d="M532.907 527.094l30.435 12.38h36.831l24.335-7.778 22.854 18.009 22.745 6.695.301 42.628 24.59 4.727 6.193 36.015-7.145 38.129 7.123 8.032-4.311 55.588-54.095 1.182-19.371 14.709-47.452 8.334-16.528-12.497-34.101 11.176-10.164-17.92v-34.195l-10.163-49.615 5.202-25.029-4.961-25.029-16.939-17.151v-45.685l44.621-22.705z" stroke="#fff" stroke-opacity=".5" stroke-width="3"/><path d="M549.323 562.012l21.191 3.139h34.173l17.665 1.882 16.924 14.775 12.801 10.551 1.58 28.518 18.818 5.157 4.38 27.674-2.291 28.73-3.364 4.016-9.082 27.794-35.366 1.29-18.004 8.053-34.5 9.092-10.023-8.013-18.81 3.824-5.081-13.555v-21.691l-5.082-45.758-.331-13.69-5.412-13.691-8.469-14.713v-28.981l28.283-14.403z" stroke="#fff" stroke-opacity=".5" stroke-width="3"/></g><mask id="c" style="mask-type:alpha" maskUnits="userSpaceOnUse" x="322" y="297" width="615" height="686"><path d="M877.09 748.059c-35.172 35.525-85.991 49.7-131.361 94.017-45.294 44.198-85.16 118.441-136.294 136.175-51.015 17.81-113.277-20.793-160.036-70.118-46.858-49.303-78.214-109.327-100.283-176.294-22.166-66.944-34.895-141.071-21.041-217.373 13.855-76.302 54.247-154.974 118.486-190.781 64.119-35.881 152.062-28.994 234.397-14.775 82.313 14.123 159.018 35.578 203.176 85.19 44.061 49.633 55.455 127.347 51.44 194.632-4.038 67.186-23.388 123.921-58.484 159.327z" fill="url(#paint4_linear_526_966)"/></mask><g mask="url(#c)"><g filter="url(#filter2_d_526_966)"><path d="M877.087 748.059c-35.171 35.525-85.991 49.7-131.36 94.017-45.294 44.198-85.16 118.441-136.295 136.175-51.015 17.81-113.276-20.793-160.036-70.118-46.857-49.303-78.213-109.327-100.282-176.294-22.167-66.944-34.895-141.071-21.041-217.373 13.854-76.302 54.247-154.974 118.486-190.781 64.119-35.881 152.062-28.994 234.396-14.775 82.313 14.123 159.018 35.578 203.177 85.19 44.06 49.633 55.455 127.347 51.439 194.632-4.038 67.186-23.388 123.921-58.484 159.327z" fill="url(#paint5_linear_526_966)"/></g><path d="M352.331 143l132.122 114.03h66.061L648.229 143l88.081 53.58 132.121-35.72-13.762 197.835h88.081l26.149 127.768-60.556 141.507 122.487 52.207L1079 1041.5H818.886l-34.407 87.93H594.554l-88.081-61.83-202.311 92.05-66.061-65.94V921.975l-66.06-92.048 66.06-149.75v-149.75L128 486.463V257.03L352.331 143z" stroke="#fff" stroke-opacity=".5" stroke-width="3"/><path d="M553.793 609.132l23.893-12.203h31.516l21.988 23.082 5.716 28.815 13.046 5.587 5.131 38.666h-27.705l-33.274 2.793-21.548 9.85-7.036-7.057v-60.277l-11.727-4.704v-24.552z" stroke="#fff" stroke-opacity=".5" stroke-width="3"/><path d="M368.748 177.918l122.877 104.789h63.403l91.044-104.371 82.152 50.347 122.178-31.865-12.484 183.725 82.309.43L944.562 500.4l-55.7 132.109L1000.86 680.7l43.4 333.53-241.385.11-33.04 81.27-176.973.75-81.576-57.33-187.019 84.69-60.98-61.58V902.914l-60.979-88.191 60.528-138.411-.451-138.412-101.632-41.526V283.645l207.995-105.727z" stroke="#fff" stroke-opacity=".5" stroke-width="3"/><path d="M385.164 212.836l113.633 95.548h60.746l84.373-94.711 76.222 47.112 112.234-28.008-11.205 169.615 76.537.86 22.521 111.086-50.845 122.711 101.512 44.174 38.628 305.735-222.656.215-31.673 74.617-164.021 1.51-75.071-52.85-171.728 77.34-55.897-57.21V883.854l-55.898-84.333 54.996-127.073-.903-127.074-93.162-39.088V310.261l191.657-97.425z" stroke="#fff" stroke-opacity=".5" stroke-width="3"/><path d="M401.58 247.753l104.388 86.307h58.089l77.703-85.052 70.291 43.879 102.292-24.152-9.927 155.506 70.765 1.289 20.707 102.745-45.99 113.312 91.025 40.159 33.857 277.941-203.928.322-30.306 67.961-151.068 2.27-68.567-48.37-156.436 69.99-50.816-52.845V864.793l-50.815-80.475 49.462-115.736-1.353-115.735-84.693-36.65V336.876l175.32-89.123z" stroke="#fff" stroke-opacity=".5" stroke-width="3"/><path d="M417.995 282.671l95.145 77.066h55.432l71.031-75.393 64.362 40.645 92.348-20.296-8.648 141.396 64.993 1.719 18.893 94.403-41.134 103.915 80.537 36.143 29.085 250.147-185.198.43-28.939 61.302-138.117 3.03-62.061-43.886-141.144 62.638-45.735-48.479V845.732l-45.734-76.618 43.93-104.397-1.804-104.396-76.224-34.214V363.492l158.982-80.821z" stroke="#fff" stroke-opacity=".5" stroke-width="3"/><path d="M434.412 317.589l85.9 67.825h52.774l64.361-65.733 58.432 37.411 82.405-16.44-7.37 127.286 59.221 2.148 17.079 86.063-36.279 94.517 70.05 32.127 24.314 222.352-166.469.537-27.572 54.646-125.165 3.789-55.556-39.402-125.853 55.288-40.652-44.116V826.672l-40.653-72.76 38.397-93.059-2.255-93.058-67.754-31.776V390.107l142.645-72.518z" stroke="#fff" stroke-opacity=".5" stroke-width="3"/><path d="M450.828 352.506l76.656 58.585h50.117l57.69-56.074 52.502 34.177 72.462-12.584-6.092 113.176 53.45 2.579 15.264 77.721-31.423 85.119 59.561 28.111 19.544 194.559-147.74.644-26.205 47.99-112.213 4.546-49.052-34.918-110.56 47.936-35.571-39.75v-96.711l-35.572-68.903 32.866-81.721-2.707-81.72-59.285-29.338V416.723l126.308-64.217z" stroke="#fff" stroke-opacity=".5" stroke-width="3"/><path d="M467.243 387.423l67.412 49.344h47.46l51.019-46.415 46.572 30.944 62.519-8.728-4.813 99.066 47.677 3.008 13.451 69.38-26.568 75.721 49.074 24.095 14.773 166.765-129.011.752-24.839 41.334-99.26 5.303-42.547-30.433-95.269 40.584-30.49-35.384V788.55l-30.489-65.045 27.332-70.382-3.157-70.382-50.816-26.901V443.338l109.97-55.915z" stroke="#fff" stroke-opacity=".5" stroke-width="3"/><path d="M483.659 422.341l58.168 40.103h44.802l44.349-36.756 40.642 27.71 52.575-4.872-3.534 84.956 41.906 3.438 11.636 61.039-21.712 66.323 38.586 20.079 10.002 138.971-110.282.859-23.472 34.678-86.308 6.061-36.043-25.949-79.977 33.232-25.408-31.018V769.49l-25.408-61.188 21.8-59.044-3.608-59.044-42.347-24.463v-95.798l93.633-47.612z" stroke="#fff" stroke-opacity=".5" stroke-width="3"/><path d="M500.076 457.259l48.923 30.862h42.145l37.677-27.096 34.713 24.476 42.632-1.016-2.256 70.847 36.134 3.867 9.822 52.698-16.857 56.925 28.099 16.063 5.231 111.176-91.553.967-22.105 28.022-73.356 6.819-29.538-21.465-64.685 25.879-20.326-26.652V750.43l-20.327-57.331 16.267-47.705-4.059-47.705-33.877-22.026v-79.094l77.296-39.31z" stroke="#fff" stroke-opacity=".5" stroke-width="3"/><path d="M516.492 492.177l39.679 21.621h39.488l31.006-17.437 28.783 21.242 32.689 2.84-.978 56.737 30.362 4.297 8.008 44.357-12.001 47.526 17.61 12.048.461 83.382-72.824 1.075-20.738 21.365-60.404 7.577-23.033-16.981-49.393 18.528-15.245-22.287v-46.698l-15.245-53.473 10.734-36.367-4.51-36.367-25.408-19.588v-62.39l60.959-31.007z" stroke="#fff" stroke-opacity=".5" stroke-width="3"/><path d="M532.907 527.094l30.435 12.38h36.831l24.335-7.778 22.854 18.009 22.745 6.695.301 42.628 24.59 4.727 6.193 36.015-7.145 38.129 7.123 8.032-4.311 55.588-54.095 1.182-19.371 14.709-47.452 8.334-16.528-12.497-34.101 11.176-10.164-17.92v-34.195l-10.163-49.615 5.202-25.029-4.961-25.029-16.939-17.151v-45.685l44.621-22.705z" stroke="#fff" stroke-opacity=".5" stroke-width="3"/><path d="M549.323 562.012l21.191 3.139h34.173l17.665 1.882 16.924 14.775 12.801 10.551 1.58 28.518 18.818 5.157 4.38 27.674-2.291 28.73-3.364 4.016-9.082 27.794-35.366 1.29-18.004 8.053-34.5 9.092-10.023-8.013-18.81 3.824-5.081-13.555v-21.691l-5.082-45.758-.331-13.69-5.412-13.691-8.469-14.713v-28.981l28.283-14.403z" stroke="#fff" stroke-opacity=".5" stroke-width="3"/></g><defs><linearGradient id="paint0_linear_526_966" x1="-289.232" y1="901.417" x2="1567.71" y2="684.995" gradientUnits="userSpaceOnUse"><stop stop-color="#F06965"/><stop offset="1" stop-color="#F58241"/></linearGradient><linearGradient id="paint1_linear_526_966" x1="-249.384" y1="619.573" x2="1585.23" y2="979.126" gradientUnits="userSpaceOnUse"><stop stop-color="#F06965"/><stop offset="1" stop-color="#F58241"/></linearGradient><linearGradient id="paint2_linear_526_966" x1="1203.41" y1="128.801" x2="243.649" y2="1324.96" gradientUnits="userSpaceOnUse"><stop stop-color="#F06965"/><stop offset="1" stop-color="#F58241"/></linearGradient><linearGradient id="paint3_linear_526_966" x1="1203.41" y1="128.801" x2="243.649" y2="1324.96" gradientUnits="userSpaceOnUse"><stop stop-color="#F06965"/><stop offset="1" stop-color="#F58241"/></linearGradient><linearGradient id="paint4_linear_526_966" x1="160.371" y1="286.171" x2="1145.29" y2="1017.02" gradientUnits="userSpaceOnUse"><stop stop-color="#F06965"/><stop offset="1" stop-color="#F58241"/></linearGradient><linearGradient id="paint5_linear_526_966" x1="160.368" y1="286.171" x2="1145.29" y2="1017.02" gradientUnits="userSpaceOnUse"><stop stop-color="#F06965"/><stop offset="1" stop-color="#F58241"/></linearGradient><filter id="filter0_d_526_966" x="132.769" y="224.394" width="1038.82" height="834.625" filterUnits="userSpaceOnUse" color-interpolation-filters="sRGB"><feFlood flood-opacity="0" result="BackgroundImageFix"/><feColorMatrix in="SourceAlpha" values="0 0 0 0 0 0 0 0 0 0 0 0 0 0 0 0 0 0 127 0" result="hardAlpha"/><feOffset dy="4"/><feGaussianBlur stdDeviation="2"/><feComposite in2="hardAlpha" operator="out"/><feColorMatrix values="0 0 0 0 0 0 0 0 0 0 0 0 0 0 0 0 0 0 0.25 0"/><feBlend in2="BackgroundImageFix" result="effect1_dropShadow_526_966"/><feBlend in="SourceGraphic" in2="effect1_dropShadow_526_966" result="shape"/></filter><filter id="filter1_d_526_966" x="155.712" y="274.042" width="955.726" height="696.402" filterUnits="userSpaceOnUse" color-interpolation-filters="sRGB"><feFlood flood-opacity="0" result="BackgroundImageFix"/><feColorMatrix in="SourceAlpha" values="0 0 0 0 0 0 0 0 0 0 0 0 0 0 0 0 0 0 127 0" result="hardAlpha"/><feOffset dy="4"/><feGaussianBlur stdDeviation="2"/><feComposite in2="hardAlpha" operator="out"/><feColorMatrix values="0 0 0 0 0 0 0 0 0 0 0 0 0 0 0 0 0 0 0.25 0"/><feBlend in2="BackgroundImageFix" result="effect1_dropShadow_526_966"/><feBlend in="SourceGraphic" in2="effect1_dropShadow_526_966" result="shape"/></filter><filter id="filter2_d_526_966" x="318.308" y="297.391" width="622.014" height="693.277" filterUnits="userSpaceOnUse" color-interpolation-filters="sRGB"><feFlood flood-opacity="0" result="BackgroundImageFix"/><feColorMatrix in="SourceAlpha" values="0 0 0 0 0 0 0 0 0 0 0 0 0 0 0 0 0 0 127 0" result="hardAlpha"/><feOffset dy="4"/><feGaussianBlur stdDeviation="2"/><feComposite in2="hardAlpha" operator="out"/><feColorMatrix values="0 0 0 0 0 0 0 0 0 0 0 0 0 0 0 0 0 0 0.25 0"/><feBlend in2="BackgroundImageFix" result="effect1_dropShadow_526_966"/><feBlend in="SourceGraphic" in2="effect1_dropShadow_526_966" result="shape"/></filter></defs></svg>