<svg width="213" height="113" fill="none" xmlns="http://www.w3.org/2000/svg"><path d="M2 66l.333 1.05.333 1.05.332 1.046.333 1.044.333 1.04.333 1.036.333 1.03.332 1.024.333 1.016.333 1.008.333.998.333.988.332.977.333.965.333.952.333.939.333.924.332.908.333.893.333.875.333.858.333.839.332.82.333.799.333.779.333.757.333.736.332.712.333.69.333.664.333.64.333.615.332.59.333.562.333.536.333.51.333.48.332.453.333.424.333.395.333.366.333.336.333.306.332.276.333.245.333.214.333.184.332.153.333.121.333.09.333.059.333.027.332-.005.333-.036.333-.067.333-.099.333-.13.332-.161.333-.193.333-.223.333-.254.333-.284.333-.314.332-.345.333-.374.333-.403.333-.432.333-.46.332-.49.333-.516.333-.544.333-.57.333-.597.332-.622.333-.647.333-.672.333-.695.333-.72.332-.74.333-.764.333-.785.333-.805.333-.826.332-.844.333-.863.333-.88.333-.897.333-.913.332-.928.333-.942.333-.956.333-.969.333-.98.332-.99.333-1.002.333-1.01.333-1.018.333-1.026.332-1.031.333-1.038.333-1.041.333-1.045.333-1.048.332-1.049.333-1.05.333-1.05.333-1.048.333-1.046.333-1.044.332-1.039.333-1.034.333-1.028.333-1.022.333-1.014.332-1.005.333-.995.333-.985.333-.974.332-.962.333-.948.333-.935.333-.92.333-.903.332-.888.333-.87.333-.853.333-.834.333-.814.333-.794.332-.773.333-.751.333-.729.333-.706.333-.682.332-.658.333-.634.333-.607.333-.582.333-.556.332-.528.333-.501.333-.473.333-.445.333-.416.332-.387.333-.357.333-.328.333-.298.333-.267.332-.237.333-.206.333-.174.333-.144.333-.113.332-.08.333-.05.333-.019.333.013.333.045.332.076.333.108.333.139.333.17.333.2.332.232.333.263.333.293.333.322.333.353.332.383.333.41.333.441.333.469.333.496.332.524.333.552.333.577.333.604.333.63.332.653.333.679.333.702.333.725.333.748.333.77.332.79.333.811.333.83.333.85.332.868.333.885.333.902.333.917.333.932.333.946.332.96.333.972.333.983.333.994.333 1.004.332 1.012.333 1.02.333 1.028.333 1.033.333 1.038.332 1.043.333 1.046.333 1.048.333 1.05.332 1.05.333 1.05.333 1.047.333 1.046.333 1.042.332 1.038.333 1.032.333 1.027.333 1.02.333 1.01.333 1.003.332.993.333.982.333.97.333.958.333.945.332.93.333.916.333.9.333.882.333.866.332.847.333.828.333.809.333.788.333.767.332.745.333.723.333.7.333.675.333.65.332.627.333.6.333.575.333.548.333.52.332.494.333.465.333.437.333.408.333.379.332.349.333.319.333.29.333.258.333.228.333.197.332.166.333.136.333.103.333.073.333.041.332.009.333-.022.333-.054.333-.085.332-.116.333-.147.333-.179.333-.21.333-.24.332-.271.333-.302.333-.33.333-.362.333-.39.332-.42.333-.448.333-.476.333-.505.333-.531.332-.56.333-.584.333-.611.333-.636.333-.661.332-.686.333-.708.333-.732.333-.754.333-.776.332-.796.333-.817.333-.835.333-.855.333-.873.333-.89.332-.906.333-.921.333-.936.333-.95.333-.963.332-.976.333-.986.333-.997.333-1.006.333-1.015.332-1.022.333-1.03.333-1.034.333-1.04.333-1.043.332-1.047.333-1.049.333-1.05.333-1.05.333-1.049.332-1.047.333-1.045.333-1.04.333-1.037.333-1.031.332-1.025.333-1.017.333-1.01.333-.999.333-.99.332-.979.333-.967.333-.954.333-.94.333-.927.332-.911.333-.895.333-.878.333-.86.333-.843.332-.823.333-.802.333-.783.333-.76.333-.74.332-.715.333-.693.333-.67.333-.643.333-.62.332-.593.333-.567.333-.54.333-.513.333-.486.333-.457.332-.429.333-.4.333-.37.333-.34.333-.312.332-.28.333-.25.333-.22.333-.188.333-.158.332-.126.333-.095.333-.064.333-.032h.333l.332.03.333.063.333.094.333.125.333.156.332.187.333.219.333.249.333.28.333.309.332.34.333.369.333.399.333.427.333.456.332.485.333.512.333.539.333.566.333.592.332.618.333.644.333.668.333.691.333.716.332.738.333.76.333.781.333.802.333.822.332.842.333.86.333.877.333.894.333.91.332.927.333.94.333.954.333.966.333.979.332.989.333 1 .333 1.008.333 1.017.333 1.024.332 1.031.333 1.037.333 1.04.333 1.045.333 1.047.332 1.05.333 1.05.333 1.05.333 1.048.333 1.047.332 1.043.333 1.04.333 1.035.333 1.03.333 1.022.332 1.015.333 1.007.333.997.333.987.333.975.333.964.332.95.333.937.333.922.333.907.333.89.332.874.333.855.333.837.333.817.333.797.332.777.333.755.333.732.333.71.333.686.332.662.333.637.333.612.333.586.333.56.332.532.333.506.333.477.333.45.333.42.332.392.333.362.333.332.333.303.333.272.332.242.333.21.333.18.333.149.333.118.332.086.333.054.333.024.333-.008.333-.04.332-.071.333-.103.333-.134.333-.165.333-.196.332-.227.333-.257.333-.288.333-.319.333-.347.332-.378.333-.407.333-.436.333-.463.333-.493.332-.52.333-.546.333-.574.333-.6.333-.625.332-.65.333-.675.333-.698.333-.722.333-.744.332-.766.333-.787.333-.808.333-.828.333-.846.332-.865.333-.882.333-.9.333-.914.333-.93.333-.944.332-.958.333-.97.333-.981.333-.993.333-1.002.332-1.01.333-1.02.333-1.026.333-1.032.333-1.038.332-1.042.333-1.046.333-1.048.333-1.049.333-1.05.332-1.05.333-1.048.333-1.046.333-1.043.333-1.038.332-1.034.333-1.027.333-1.021.333-1.013.333-1.004.332-.994.333-.984.333-.972.333-.96.333-.947.332-.933.333-.918.333-.902.333-.885.333-.869.332-.85.333-.831.333-.812.333-.791.333-.77.332-.75.333-.726.333-.703.333-.68.333-.654.332-.63.333-.605.333-.579.333-.552.333-.525.332-.498.333-.47.333-.44.333-.413.333-.384.332-.354.333-.324.333-.294.333-.263.333-.233.332-.202.333-.171.333-.14.333-.11.333-.077.332-.046.333-.014.333.017.333.049.333.08.332.11.333.143.333.174.333.205.333.236.332.266.333.296.333.327.333.356.333.386.333.415.332.443.333.472.333.5.333.528.333.554.332.58.333.608.333.632.333.657.333.681.332.706.333.728.333.75.333.772.333.793.332.814.333.833.333.852.333.87.333.886.332.904.333.919.333.934.333.948.333.96.332.974.333.985.333.995.333 1.005.333 1.013.332 1.021.333 1.028.333 1.035.333 1.038.333 1.044.332 1.046.333 1.048.333 1.05L2 66z" stroke="url(#paint0_linear_633_1008)" stroke-opacity=".5" stroke-width="2"/><g filter="url(#filter0_d_633_1008)"><path d="M136.286 25.052l.25-.433-.433-.25-.25.433.433.25zm17.32 10l-.25.434.433.25.25-.433-.433-.25zM168.071 10l-5 2.887 5 2.886V10zm-50.888 49.14l19.536-33.837-.866-.5-19.536 33.837.866.5zm18.853-33.655l17.32 10 .5-.865-17.32-10-.5.865zm18.003 9.818l12.215-21.156-.867-.5-12.214 21.155.866.5z" fill="url(#paint1_linear_633_1008)"/></g><g filter="url(#filter1_d_633_1008)"><path d="M138.236 37.674l.25-.433-.433-.25-.25.433.433.25zm20.785 12l-.25.433.433.25.25-.433-.433-.25zm17.442-30.21l-5 2.887 5 2.886v-5.773zm-61.352 59.264l23.558-40.804-.866-.5-23.558 40.804.866.5zm22.875-40.62l20.785 12 .5-.867-20.785-12-.5.866zm21.468 11.816l15.192-26.313-.866-.5-15.192 26.313.866.5z" fill="url(#paint2_linear_633_1008)"/></g><g filter="url(#filter2_d_633_1008)"><path d="M140.589 53.6l.25-.433-.434-.25-.25.433.434.25zm23.382 13.5l-.25.433.433.25.25-.433-.433-.25zm19.25-33.342l-5 2.887 5 2.887v-5.774zm-68.199 65.126l26-45.034-.867-.5-26 45.034.867.5zm25.317-44.85l23.382 13.5.5-.867-23.382-13.5-.5.866zm24.065 13.316l17-29.445-.866-.5-17 29.445.866.5z" fill="url(#paint3_linear_633_1008)"/></g><defs><linearGradient id="paint0_linear_633_1008" x1="-26.477" y1="110.226" x2="50.474" y2="-69.027" gradientUnits="userSpaceOnUse"><stop stop-color="#F06965"/><stop offset="1" stop-color="#F58241"/></linearGradient><linearGradient id="paint1_linear_633_1008" x1="109.909" y1="65.289" x2="153.998" y2="78.833" gradientUnits="userSpaceOnUse"><stop stop-color="#F55991"/><stop offset="1" stop-color="#725DF2"/></linearGradient><linearGradient id="paint2_linear_633_1008" x1="106.442" y1="86.203" x2="159.345" y2="102.516" gradientUnits="userSpaceOnUse"><stop stop-color="#F55991"/><stop offset="1" stop-color="#725DF2"/></linearGradient><linearGradient id="paint3_linear_633_1008" x1="105.438" y1="107.125" x2="164.973" y2="125.209" gradientUnits="userSpaceOnUse"><stop stop-color="#F55991"/><stop offset="1" stop-color="#725DF2"/></linearGradient><filter id="filter0_d_633_1008" x="114.317" y="8" width="55.754" height="53.14" filterUnits="userSpaceOnUse" color-interpolation-filters="sRGB"><feFlood flood-opacity="0" result="BackgroundImageFix"/><feColorMatrix in="SourceAlpha" values="0 0 0 0 0 0 0 0 0 0 0 0 0 0 0 0 0 0 127 0" result="hardAlpha"/><feOffset/><feGaussianBlur stdDeviation="1"/><feComposite in2="hardAlpha" operator="out"/><feColorMatrix values="0 0 0 0 0.44651 0 0 0 0 0.364706 0 0 0 0 0.94902 0 0 0 0.75 0"/><feBlend in2="BackgroundImageFix" result="effect1_dropShadow_633_1008"/><feBlend in="SourceGraphic" in2="effect1_dropShadow_633_1008" result="shape"/></filter><filter id="filter1_d_633_1008" x="112.245" y="17.464" width="66.218" height="63.264" filterUnits="userSpaceOnUse" color-interpolation-filters="sRGB"><feFlood flood-opacity="0" result="BackgroundImageFix"/><feColorMatrix in="SourceAlpha" values="0 0 0 0 0 0 0 0 0 0 0 0 0 0 0 0 0 0 127 0" result="hardAlpha"/><feOffset/><feGaussianBlur stdDeviation="1"/><feComposite in2="hardAlpha" operator="out"/><feColorMatrix values="0 0 0 0 0.44651 0 0 0 0 0.364706 0 0 0 0 0.94902 0 0 0 0.75 0"/><feBlend in2="BackgroundImageFix" result="effect1_dropShadow_633_1008"/><feBlend in="SourceGraphic" in2="effect1_dropShadow_633_1008" result="shape"/></filter><filter id="filter2_d_633_1008" x="112.156" y="31.758" width="73.066" height="69.126" filterUnits="userSpaceOnUse" color-interpolation-filters="sRGB"><feFlood flood-opacity="0" result="BackgroundImageFix"/><feColorMatrix in="SourceAlpha" values="0 0 0 0 0 0 0 0 0 0 0 0 0 0 0 0 0 0 127 0" result="hardAlpha"/><feOffset/><feGaussianBlur stdDeviation="1"/><feComposite in2="hardAlpha" operator="out"/><feColorMatrix values="0 0 0 0 0.44651 0 0 0 0 0.364706 0 0 0 0 0.94902 0 0 0 0.75 0"/><feBlend in2="BackgroundImageFix" result="effect1_dropShadow_633_1008"/><feBlend in="SourceGraphic" in2="effect1_dropShadow_633_1008" result="shape"/></filter></defs></svg>