<svg width="1196" height="950" fill="none" xmlns="http://www.w3.org/2000/svg"><mask id="a" style="mask-type:alpha" maskUnits="userSpaceOnUse" x="54" y="57" width="1098" height="803"><path d="M860.172 117.944c81.107 53.893 134.522 129.352 191.978 199.42 57.48 70.157 119.11 134.998 92.46 194.763-26.76 59.781-141.6 114.457-204.865 166.889-63.28 52.343-74.873 102.516-108.515 134.47-33.745 31.968-89.425 45.792-142.327 46.045-52.889.342-102.897-12.902-151.247-29.198-48.363-16.386-95.195-35.988-174.787-60.836-79.49-24.864-191.867-55.137-254.771-119.342-62.905-64.205-76.336-162.343-5.227-206.712 71.007-44.355 226.466-34.838 317.025-99.874 90.56-65.036 116.22-204.626 183.398-258.25 67.179-53.624 175.874-21.283 256.878 32.625z" fill="url(#paint0_linear_237_271)" fill-opacity=".25"/></mask><g mask="url(#a)"><g filter="url(#filter0_d_237_271)"><path d="M860.172 117.944c81.107 53.893 134.522 129.352 191.978 199.42 57.48 70.157 119.11 134.998 92.46 194.763-26.76 59.781-141.6 114.457-204.865 166.889-63.28 52.343-74.873 102.516-108.515 134.47-33.745 31.968-89.425 45.792-142.327 46.045-52.889.342-102.897-12.902-151.247-29.198-48.363-16.386-95.195-35.988-174.787-60.836-79.49-24.864-191.867-55.137-254.771-119.342-62.905-64.205-76.336-162.343-5.227-206.712 71.007-44.355 226.466-34.838 317.025-99.874 90.56-65.036 116.22-204.626 183.398-258.25 67.179-53.624 175.874-21.283 256.878 32.625z" fill="url(#paint1_linear_237_271)" fill-opacity=".25" shape-rendering="crispEdges"/></g><path d="M478.584-39.081c-28.14-72.299-165.99-107.477-142.656 36.615 3.826 23.627 4.373 64.335.482 113.904-3.564 45.408-76.996 70.557-99.32 129.304-35.012 92.134 97.622 155.687 76.763 204.13-27.32 63.449-111.677 91.285-158.256 126.131-43.848 32.804-71.644 85.26-82.175 139.114-18.473 94.48 16.196 193.262 110.566 197.785 47.241 2.264 109.443-19.093 187.428-76.436 34.867-25.638 65.619-46.776 92.956-63.878 70.363-44.017 51.834 59.475 135.737 62.91 47.808 1.957 97.353-87.531 135.347-40.07 27.015 33.747 58.026 74.701 102.244 116.754 77.653 73.851 174.39 84.363 187.62-21.563 6.25-50.003-6.12-125.953-47.886-233.436-26.729-68.782 39.036-66.632 46.246-154.95 7.2-88.318-54.929-128.77-10.23-165.499l.89-.736c34.07-27.993 70.41-57.848 90.08-114.98 16.94-49.213 15.1-97.876-.58-135.208-16.77-39.955-49.38-66.93-91.74-67.713-42.508-.785-94.836 24.8-150.84 90.107-36.924 43.057-62.475-56.66-128.909-46.173-66.434 10.485-75.266 106.841-115.208 79.074C547.76 87.871 511.54 45.595 478.584-39.081z" stroke="#fff" stroke-opacity=".5" stroke-width="3"/><path d="M614.532 355.369c-4.283-11.099-24.012-8.098-24.96 3.955-1.079 13.723 5.931 31.57 5.188 45.324-1.436 26.557-10.783 34.154-29.4 48.227-6.673 5.035-10.903 13.088-12.505 21.355-2.811 14.505 2.466 29.67 16.828 30.364 7.189.348 16.655-2.93 28.523-11.733 5.306-3.935 9.986-7.18 14.146-9.805 18.107-12.338 35.048-2.803 41.255 3.507 4.112 5.181 8.832 11.468 15.561 17.924 11.818 11.338 29.635 9.771 28.553-3.309-1.528-18.477-33.378-87.339-.421-99.51 15.309-5.653 14.752-18.31 12.367-24.041-2.553-6.134-7.516-10.275-13.963-10.395-6.469-.121-17.139 10.527-22.955 13.832-21.468 12.2-40.643 18.54-58.217-25.695z" stroke="#fff" stroke-opacity=".5" stroke-width="3"/><path d="M359.085 28.983C338.362-102.193 464.334-70.005 490.133-3.725c31.585 81.03 66.284 118.923 131.367 161.705 36.607 25.114 45.017-62.867 105.846-72.683 60.829-9.816 84.467 80.67 118.358 41.501 51.543-59.406 99.606-82.31 138.514-81.043 38.652.97 68.392 25.929 83.522 62.694 14.12 34.379 15.46 79.067-.65 124.097-21.05 53.533-51.64 86.928-82.731 114.259-40.619 34.008 15.531 71.142 8.45 151.55-7.082 80.408-67.598 78.232-43.816 140.3 37.392 97.207 48.214 165.741 42.158 210.767-12.319 96.089-100.868 86.167-172.184 18.829-40.894-38.408-69.907-75.606-95.311-105.753-34.948-42.943-80.454 38.767-124.436 37.342-76.881-2.728-60.507-96.614-124.96-56.397-25.306 15.729-53.665 35.026-85.717 58.337-72.262 52.108-129.338 70.171-172.066 66.803-85.792-4.488-117.204-94.73-100.205-181.022 9.771-49.328 35.31-97.349 75.511-127.422 44.073-32.974 121.678-58.985 146.667-119.108 19.013-44.695-101.811-103.23-70.093-187.767 20.175-54.162 86.853-77.755 90.145-119.687 3.584-45.643 3.556-83.02.583-104.594z" stroke="#fff" stroke-opacity=".5" stroke-width="3"/><path d="M383.28 61.757C365.2-56.073 479.11-26.982 502.529 33.06c30.166 77.112 63.295 110.496 123.982 147.69 33.218 22.378 41.196-56.939 96.331-66.053 55.136-9.115 76.826 71.845 107.634 36.692 47.007-53.311 90.735-73.46 125.988-71.716 34.888 1.155 61.706 24.012 75.166 57.466 12.56 31.313 13.4 71.878-1.86 112.577-22.23 49.257-46.562 86.049-74.377 112.41-36.483 31.173 13.605 64.867 6.655 137.102s-62.124 70.04-41.323 125.191c32.959 86.614 42.22 147.507 36.362 187.41-11.392 85.937-91.619 76.64-156.493 16.036-37.511-34.635-64.484-67.954-88.239-94.403-31.851-38.286-73.251 35.378-113.343 34.489-69.747-2.012-55.552-85.986-114.001-49.7-23.237 14.304-49.162 31.698-78.352 52.604-66.436 46.705-118.302 61.418-156.454 56.959-77.089-4.437-105.197-85.842-89.697-163.661 8.999-44.642 32.244-88.069 68.738-115.313 41.505-30.991 112.245-55.091 134.866-111.687 17.139-40.799-91.696-94.121-63.318-170.783 17.994-49.398 77.823-71.357 80.838-109.675 3.271-41.565 3.763-75.487 1.648-94.938z" stroke="#fff" stroke-opacity=".5" stroke-width="3"/><path d="M406.43 93.208c-15.466-104.914 86.558-78.813 107.634-24.79 28.796 73.465 60.407 102.465 116.793 134.208 29.881 19.725 37.438-51.217 86.964-59.662 49.526-8.445 69.303 63.285 97.075 32.021 42.544-47.411 82.005-64.88 113.656-62.653 31.176 1.343 55.124 22.182 66.934 52.447 11.014 28.36 11.344 64.949-3.083 101.465-23.448 45.157-41.553 85.466-66.133 110.95-32.402 28.45 11.7 58.827 4.872 123.152-6.829 64.325-56.747 62.103-38.895 110.54 28.578 76.339 36.294 129.816 30.624 164.742-10.482 76.099-82.51 67.393-141.044 13.302-34.186-30.99-59.161-60.552-81.305-83.401-28.804-33.769-66.162 32.118-102.425 31.76-62.72-1.305-50.682-75.674-103.219-43.189-21.204 12.932-44.735 28.486-71.108 47.064-60.711 41.471-107.448 52.89-141.083 47.327-68.503-4.402-93.352-77.267-79.327-146.897 8.24-40.117 29.226-79.108 62.069-103.62 39.002-29.118 102.985-51.394 123.273-104.662 15.292-37.051-81.723-85.354-56.642-154.42 15.842-44.812 68.912-65.215 71.655-100.056 2.963-37.639 3.976-68.229 2.715-85.628z" stroke="#fff" stroke-opacity=".5" stroke-width="3"/><path d="M430.609 124.653c-12.826-91.994 77.131-68.882 95.827-20.88 27.376 69.825 57.413 94.438 109.399 120.727 26.49 17.071 33.613-45.494 77.443-53.269 43.829-7.775 61.657 54.721 86.344 27.347 38.005-41.508 73.128-56.294 101.122-53.583 27.409 1.531 48.44 20.352 58.582 47.427 9.442 25.408 9.275 58.021-4.298 90.352-24.622 41.058-36.471 84.897-57.772 109.506-28.263 25.728 9.776 52.787 3.081 109.199-6.695 56.413-51.268 54.164-36.398 95.884 24.147 66.059 30.304 112.115 24.832 142.062-9.552 66.259-73.255 58.142-125.345 10.566-30.8-27.344-53.732-53.149-74.227-72.396-25.705-29.25-58.954 28.857-91.325 29.031-55.583-.598-45.724-65.356-92.253-36.673-19.134 11.558-40.23 25.271-63.738 41.521-54.88 36.234-96.404 44.355-125.462 37.685-59.797-4.368-81.341-68.69-68.817-130.13 7.465-35.59 26.156-70.145 55.289-91.925 36.43-27.246 93.543-47.697 111.461-97.642 13.417-33.303-71.606-76.587-49.867-138.055 13.661-40.226 59.878-59.073 62.344-90.439 2.65-33.711 4.182-60.969 3.778-76.315z" stroke="#fff" stroke-opacity=".5" stroke-width="3"/><path d="M454.784 157.583c-10.185-78.868 67.702-58.798 84.017-16.924 25.95 66.027 54.408 86.197 101.989 106.975 23.098 14.378 29.786-39.67 67.917-46.758 38.132-7.088 54.009 46.035 75.611 22.612 33.464-35.514 64.249-47.584 88.584-44.396 23.64 1.716 41.754 18.477 50.228 42.301 7.874 22.397 7.205 50.961-5.51 79.036-25.789 36.867-31.389 84.133-49.411 107.813-24.124 22.948 7.851 46.627 1.29 95.002-6.56 48.374-45.785 46.104-33.896 81.013 19.717 55.632 24.315 94.166 19.043 119.067-8.623 56.27-63.998 48.762-109.641 7.807-27.413-23.636-48.301-45.625-67.142-61.228-22.606-24.666-51.745 25.532-80.222 26.238-48.442.111-40.762-54.895-81.283-30.077-17.062 10.159-35.72 22.001-56.364 35.886-49.044 30.918-85.355 35.724-109.835 27.963-51.09-4.324-69.331-59.96-58.308-113.071 6.692-30.984 23.086-61.026 48.509-80.026 33.852-25.313 84.093-43.893 99.641-90.402 11.543-29.479-61.486-67.647-43.088-121.38 11.48-35.55 50.844-52.799 53.033-80.618 2.337-29.709 4.386-53.574 4.838-66.833z" stroke="#fff" stroke-opacity=".5" stroke-width="3"/><path d="M477.911 189.033c-7.566-65.941 58.414-48.863 72.382-13.012 24.579 62.393 51.517 78.173 94.792 93.491 19.755 11.723 26.022-33.944 58.534-40.364 32.513-6.419 46.473 37.466 65.034 17.934 28.992-29.608 55.503-38.994 76.231-35.32 19.921 1.905 35.155 16.647 41.978 37.282 6.324 19.443 5.15 44.029-6.734 67.918-27.01 32.768-26.372 83.579-41.152 106.387-20.036 20.225 5.942 40.585-.497 81.044-6.44 40.458-40.4 38.16-31.466 66.347 15.328 45.346 18.377 76.455 13.293 96.373-7.711 46.423-54.874 39.505-94.165 5.069-24.082-19.989-42.969-38.218-60.198-50.216-19.552-20.144-44.643 22.27-69.285 23.51-41.403.82-35.885-44.571-70.482-23.556-15.026 8.786-31.286 18.786-49.108 30.341-43.31 25.68-74.482 27.183-94.437 18.312-42.489-4.29-57.463-51.38-47.918-96.296 5.931-26.457 20.062-52.061 41.829-68.328 31.345-23.443 74.818-40.199 88.029-83.388 9.691-25.73-51.495-58.878-36.401-105.01 9.323-30.963 41.917-46.658 43.833-71 2.028-25.781 4.6-46.313 5.908-57.518z" stroke="#fff" stroke-opacity=".5" stroke-width="3"/><path d="M502.05 220.476c-4.927-53.004 48.97-38.919 60.555-9.093 23.143 58.773 48.489 70.157 87.341 80.007 16.36 9.064 22.188-28.216 48.995-33.967 26.808-5.75 38.815 28.887 54.285 13.251 24.445-23.697 46.61-30.395 63.675-26.233 16.15 2.095 28.465 14.82 33.62 32.263 4.756 16.488 3.082 37.095-7.939 56.796-28.156 28.67-21.284 83.053-32.784 104.995-15.894 17.503 4.019 34.543-2.282 67.078-6.3 32.536-34.904 30.21-28.948 51.668 10.898 35.048 12.391 58.724 7.509 73.653-6.778 36.568-45.603 30.238-78.439 2.323-20.688-16.338-37.524-30.804-53.093-39.192-16.448-15.618-37.423 19.008-58.164 20.782-34.255 1.531-30.913-34.236-59.494-17.026a1464.894 1464.894 0 00-41.722 24.791c-37.46 20.436-63.412 18.629-78.789 8.641-33.776-4.258-45.445-42.796-37.404-79.512 5.155-21.928 16.986-43.09 35.037-56.623 28.754-21.577 65.344-36.51 76.182-76.386 7.814-21.979-41.369-50.107-29.618-88.635 7.142-26.375 32.878-40.516 34.516-61.381 1.714-21.853 4.801-39.05 6.961-48.2z" stroke="#fff" stroke-opacity=".5" stroke-width="3"/><path d="M525.516 251.92c-2.311-40.05 39.796-28.962 49.059-5.167 21.84 55.171 45.742 62.149 80.394 66.516 13.052 6.401 18.477-22.483 39.725-27.566 21.248-5.083 31.367 20.293 43.832 8.557 20.031-17.78 37.973-21.783 51.468-17.13 12.465 2.287 21.926 12.993 25.439 27.243 3.212 13.532 1.026 30.158-9.196 45.667-29.475 24.573-16.312 82.569-24.592 103.655-11.838 14.78 2.114 28.497-4.086 53.1-6.201 24.603-29.606 22.247-26.601 36.963 6.521 24.734 6.462 40.964 1.754 50.895-5.885 26.696-36.583 20.955-63.142-.429-17.409-12.684-32.288-23.381-46.287-28.15-13.434-11.085-30.407 15.745-47.363 18.057-27.292 2.245-26.112-23.882-48.833-10.482l-.635.349c-10.754 5.931-22 12.133-33.931 18.888-31.821 15.186-52.693 10.056-63.571-1.057-25.243-4.228-33.667-34.205-27.085-62.713 4.408-17.393 14.004-34.111 28.439-44.907 26.33-19.716 56.236-32.828 64.761-69.401 5.98-18.229-31.462-41.332-22.992-72.251 4.998-21.785 24.013-34.376 25.383-51.763 1.41-17.921 5.032-31.781 8.06-38.874z" stroke="#fff" stroke-opacity=".5" stroke-width="3"/><path d="M549.604 284.891c.326-26.92 30.313-18.877 37.184-1.218 20.374 51.319 42.652 53.861 72.84 52.73 9.645 3.71 14.624-16.652 30.147-21.044 15.524-4.392 23.678 11.612 33.041 3.828 15.462-11.783 29.042-13.076 38.862-7.953 8.682 2.469 15.215 11.109 17.058 22.102 1.643 10.516-1.039 23.086-10.385 34.334-30.577 20.367-11.212 81.711-16.205 101.844-7.688 11.992.19 22.324-5.863 38.887-6.053 16.562-24.079 14.187-24.052 22.098 2.091 14.312.479 23.025-4.021 27.915-4.946 16.709-27.278 11.581-47.356-3.178-13.995-8.974-26.806-15.856-39.128-16.986-10.315-6.503-23.157 12.412-36.195 15.251-20.118 2.949-21.111-13.426-37.796-3.895-8.858 4.635-17.859 9.075-27.143 13.598-25.937 9.868-41.569 1.441-47.861-10.747-16.511-4.179-21.624-25.462-16.552-45.635 3.627-12.782 10.914-24.982 21.62-32.994 23.706-17.765 46.7-28.998 52.844-62.102 4.099-14.397-21.309-32.373-16.188-55.545 2.814-17.099 14.958-28.082 16.048-41.914 1.096-13.91 5.226-24.372 9.101-29.376z" stroke="#fff" stroke-opacity=".5" stroke-width="3"/><path d="M574.04 316.374c2.951-13.885 20.913-8.861 25.412 2.716 18.94 47.583 39.631 45.709 65.414 39.094 6.265 1.034 10.807-10.871 20.653-14.584 9.846-3.712 16.055 2.98 22.342-.88 10.936-5.829 20.19-4.421 26.366 1.181 4.928 2.655 8.556 9.252 8.739 17.021.083 7.531-3.097 16.082-11.582 23.106-31.711 16.214-6.149 81.02-7.879 100.245-3.567 9.236-1.723 16.216-7.637 24.795-5.915 8.579-18.61 6.181-21.546 7.323-2.315 3.951-5.475 5.187-9.773 5.062-4.018 6.786-18.053 2.258-31.704-5.926-10.617-5.293-21.384-8.384-32.053-5.89-7.225-1.948-15.971 9.114-25.127 12.485-13.002 3.656-16.161-3.03-26.858 2.664-6.792 3.247-13.363 5.829-19.791 8.004-20.114 4.587-30.549-7.145-32.287-20.429-7.84-4.139-9.664-16.798-6.089-28.703 2.855-8.211 7.852-15.93 14.861-21.183 21.125-15.857 37.267-25.238 41.05-54.952 2.231-10.605-11.232-23.507-9.437-39.003.644-12.461 5.965-21.864 6.778-32.179.784-9.941 5.426-17.035 10.148-19.967z" stroke="#fff" stroke-opacity=".5" stroke-width="3"/></g><mask id="b" style="mask-type:alpha" maskUnits="userSpaceOnUse" x="143" y="123" width="922" height="751"><path d="M522.487 705.738c-65.752-17.762-154.301 2.606-215.819-22.666-61.404-25.419-95.777-96.478-126.108-180.2-30.346-83.853-56.78-180.352-17.124-238.831 39.656-58.479 145.401-78.937 228.676-90.617 83.419-11.564 144.354-14.48 207.097-26.755 62.871-12.289 127.552-33.936 179.964-17.715 52.555 16.338 92.713 70.559 140.895 124.27 48.053 53.726 104.132 106.942 128.482 173.564 24.49 66.607 17.54 146.855-1.99 231.178-19.39 84.309-51.348 172.824-115.451 203.029-64.118 30.073-160.513 1.85-230.18-40.144-69.652-41.863-112.705-97.481-178.442-115.113z" fill="url(#paint2_linear_237_271)" fill-opacity=".5"/></mask><g mask="url(#b)"><g filter="url(#filter1_d_237_271)"><path d="M522.487 705.738c-65.752-17.762-154.301 2.606-215.819-22.666-61.404-25.419-95.777-96.478-126.108-180.2-30.346-83.853-56.78-180.352-17.124-238.831 39.656-58.479 145.401-78.937 228.676-90.617 83.419-11.564 144.354-14.48 207.097-26.755 62.871-12.289 127.552-33.936 179.964-17.715 52.555 16.338 92.713 70.559 140.895 124.27 48.053 53.726 104.132 106.942 128.482 173.564 24.49 66.607 17.54 146.855-1.99 231.178-19.39 84.309-51.348 172.824-115.451 203.029-64.118 30.073-160.513 1.85-230.18-40.144-69.652-41.863-112.705-97.481-178.442-115.113z" fill="url(#paint3_linear_237_271)" fill-opacity=".5" shape-rendering="crispEdges"/></g><path d="M478.584-39.081c-28.14-72.3-165.99-107.477-142.656 36.615 3.826 23.626 4.373 64.334.482 113.904-3.564 45.408-76.996 70.557-99.32 129.304-35.012 92.134 97.622 155.687 76.763 204.13-27.32 63.448-111.677 91.284-158.256 126.131-43.848 32.804-71.644 85.26-82.175 139.114-18.473 94.48 16.196 193.262 110.566 197.785 47.241 2.264 109.443-19.094 187.428-76.436 34.867-25.638 65.619-46.776 92.956-63.878 70.363-44.017 51.834 59.475 135.737 62.91 47.808 1.956 97.353-87.531 135.347-40.071 27.015 33.747 58.026 74.702 102.244 116.754 77.653 73.852 174.39 84.364 187.62-21.562 6.25-50.003-6.12-125.953-47.886-233.436-26.729-68.783 39.036-66.632 46.246-154.95 7.2-88.318-54.929-128.77-10.23-165.5l.89-.735c34.07-27.993 70.41-57.848 90.08-114.98 16.94-49.213 15.1-97.876-.58-135.209-16.77-39.954-49.38-66.93-91.74-67.712-42.508-.785-94.836 24.8-150.84 90.107-36.924 43.057-62.475-56.66-128.909-46.174-66.434 10.486-75.266 106.842-115.208 79.075C547.76 87.871 511.54 45.594 478.584-39.081z" stroke="#fff" stroke-opacity=".5" stroke-width="3"/><path d="M614.532 355.369c-4.283-11.1-24.012-8.098-24.96 3.955-1.079 13.723 5.931 31.57 5.188 45.324-1.436 26.557-10.783 34.154-29.4 48.226-6.673 5.036-10.903 13.089-12.505 21.356-2.811 14.504 2.466 29.669 16.828 30.364 7.189.348 16.655-2.93 28.523-11.733 5.306-3.936 9.986-7.18 14.146-9.806 18.107-12.337 35.048-2.802 41.255 3.508 4.112 5.181 8.832 11.468 15.561 17.924 11.818 11.338 29.635 9.771 28.553-3.309-1.528-18.478-33.378-87.339-.421-99.51 15.309-5.653 14.752-18.31 12.367-24.041-2.553-6.134-7.516-10.275-13.963-10.396-6.469-.12-17.139 10.528-22.955 13.832-21.468 12.2-40.643 18.541-58.217-25.694z" stroke="#fff" stroke-opacity=".5" stroke-width="3"/><path d="M359.085 28.983C338.362-102.194 464.334-70.005 490.133-3.726c31.585 81.03 66.284 118.923 131.367 161.706 36.607 25.114 45.017-62.867 105.846-72.683 60.829-9.816 84.467 80.67 118.358 41.501 51.543-59.406 99.606-82.31 138.514-81.043 38.652.97 68.392 25.929 83.522 62.693 14.12 34.38 15.46 79.068-.65 124.098-21.05 53.533-51.64 86.928-82.731 114.259-40.619 34.007 15.531 71.142 8.45 151.55-7.082 80.408-67.598 78.231-43.816 140.3 37.392 97.207 48.214 165.74 42.158 210.767-12.319 96.088-100.868 86.167-172.184 18.828-40.894-38.407-69.907-75.605-95.311-105.752-34.948-42.943-80.454 38.767-124.436 37.342-76.881-2.728-60.507-96.615-124.96-56.397-25.306 15.729-53.665 35.026-85.717 58.336-72.262 52.109-129.338 70.172-172.066 66.804-85.792-4.488-117.204-94.731-100.205-181.022 9.771-49.329 35.31-97.349 75.511-127.422 44.073-32.974 121.678-58.985 146.667-119.108 19.013-44.695-101.811-103.23-70.093-187.767 20.175-54.162 86.853-77.755 90.145-119.688 3.584-45.642 3.556-83.019.583-104.593z" stroke="#fff" stroke-opacity=".5" stroke-width="3"/><path d="M383.28 61.757C365.2-56.073 479.11-26.982 502.529 33.06c30.166 77.112 63.295 110.496 123.982 147.689 33.218 22.379 41.196-56.938 96.331-66.053 55.136-9.114 76.826 71.846 107.634 36.693 47.007-53.311 90.735-73.46 125.988-71.716 34.888 1.154 61.706 24.012 75.166 57.466 12.56 31.313 13.4 71.878-1.86 112.577-22.23 49.256-46.562 86.049-74.377 112.41-36.483 31.173 13.605 64.867 6.655 137.102s-62.124 70.04-41.323 125.191c32.959 86.614 42.22 147.507 36.362 187.41-11.392 85.937-91.619 76.64-156.493 16.036-37.511-34.635-64.484-67.955-88.239-94.404-31.851-38.286-73.251 35.379-113.343 34.49-69.747-2.012-55.552-85.986-114.001-49.701-23.237 14.305-49.162 31.699-78.352 52.605-66.436 46.705-118.302 61.417-156.454 56.958-77.089-4.436-105.197-85.841-89.697-163.661 8.999-44.641 32.244-88.069 68.738-115.312 41.505-30.991 112.245-55.091 134.866-111.687 17.139-40.799-91.696-94.121-63.318-170.783 17.994-49.398 77.823-71.357 80.838-109.675 3.271-41.566 3.763-75.487 1.648-94.938z" stroke="#fff" stroke-opacity=".5" stroke-width="3"/><path d="M406.43 93.207c-15.466-104.913 86.558-78.812 107.634-24.79 28.796 73.466 60.407 102.466 116.793 134.209 29.881 19.725 37.438-51.217 86.964-59.662 49.526-8.445 69.303 63.285 97.075 32.021 42.544-47.411 82.005-64.88 113.656-62.653 31.176 1.343 55.124 22.182 66.934 52.446 11.014 28.361 11.344 64.95-3.083 101.466-23.448 45.157-41.553 85.466-66.133 110.95-32.402 28.45 11.7 58.826 4.872 123.152-6.829 64.325-56.747 62.103-38.895 110.54 28.578 76.338 36.294 129.815 30.624 164.741-10.482 76.1-82.51 67.394-141.044 13.303-34.186-30.99-59.161-60.552-81.305-83.402-28.804-33.769-66.162 32.118-102.425 31.761-62.72-1.306-50.682-75.674-103.219-43.189-21.204 12.932-44.735 28.485-71.108 47.064-60.711 41.471-107.448 52.889-141.083 47.326-68.503-4.401-93.352-77.266-79.327-146.896 8.24-40.117 29.226-79.109 62.069-103.621 39.002-29.117 102.985-51.393 123.273-104.662 15.292-37.05-81.723-85.353-56.642-154.419 15.842-44.812 68.912-65.215 71.655-100.057 2.963-37.639 3.976-68.229 2.715-85.628z" stroke="#fff" stroke-opacity=".5" stroke-width="3"/><path d="M430.609 124.652c-12.826-91.993 77.131-68.881 95.827-20.879 27.376 69.825 57.413 94.438 109.399 120.727 26.49 17.071 33.613-45.494 77.443-53.269 43.829-7.775 61.657 54.721 86.344 27.347 38.005-41.508 73.128-56.294 101.122-53.583 27.409 1.531 48.44 20.352 58.582 47.427 9.442 25.407 9.275 58.02-4.298 90.352-24.622 41.058-36.471 84.896-57.772 109.506-28.263 25.728 9.776 52.786 3.081 109.199s-51.268 54.164-36.398 95.884c24.147 66.058 30.304 112.115 24.832 142.062-9.552 66.259-73.255 58.142-125.345 10.566-30.8-27.344-53.732-53.149-74.227-72.396-25.705-29.251-58.954 28.857-91.325 29.031-55.583-.598-45.724-65.357-92.253-36.673-19.134 11.558-40.23 25.271-63.738 41.521-54.88 36.234-96.404 44.355-125.462 37.685-59.797-4.368-81.341-68.691-68.817-130.13 7.465-35.59 26.156-70.146 55.289-91.926 36.43-27.246 93.543-47.696 111.461-97.642 13.417-33.302-71.606-76.586-49.867-138.054 13.661-40.226 59.878-59.073 62.344-90.439 2.65-33.712 4.182-60.97 3.778-76.316z" stroke="#fff" stroke-opacity=".5" stroke-width="3"/><path d="M454.784 157.583c-10.185-78.868 67.702-58.798 84.017-16.925 25.95 66.027 54.408 86.198 101.989 106.975 23.098 14.379 29.786-39.669 67.917-46.757 38.132-7.089 54.009 46.035 75.611 22.612 33.464-35.514 64.249-47.585 88.584-44.396 23.64 1.716 41.754 18.476 50.228 42.301 7.874 22.397 7.205 50.961-5.51 79.036-25.789 36.867-31.389 84.133-49.411 107.813-24.124 22.947 7.851 46.627 1.29 95.001-6.56 48.375-45.785 46.105-33.896 81.014 19.717 55.632 24.315 94.166 19.043 119.067-8.623 56.27-63.998 48.762-109.641 7.807-27.413-23.636-48.301-45.626-67.142-61.228-22.606-24.667-51.745 25.531-80.222 26.237-48.442.111-40.762-54.894-81.283-30.076-17.062 10.159-35.72 22.001-56.364 35.886-49.044 30.918-85.355 35.724-109.835 27.962-51.09-4.323-69.331-59.959-58.308-113.07 6.692-30.985 23.086-61.026 48.509-80.026 33.852-25.313 84.093-43.893 99.641-90.402 11.543-29.479-61.486-67.648-43.088-121.38 11.48-35.55 50.844-52.799 53.033-80.618 2.337-29.709 4.386-53.574 4.838-66.833z" stroke="#fff" stroke-opacity=".5" stroke-width="3"/><path d="M477.911 189.032c-7.566-65.94 58.414-48.863 72.382-13.011 24.579 62.393 51.517 78.173 94.792 93.491 19.755 11.722 26.022-33.945 58.534-40.364 32.513-6.419 46.473 37.465 65.034 17.934 28.992-29.608 55.503-38.994 76.231-35.321 19.921 1.905 35.155 16.648 41.978 37.282 6.324 19.443 5.15 44.03-6.734 67.919-27.01 32.768-26.372 83.579-41.152 106.387-20.036 20.225 5.942 40.585-.497 81.043-6.44 40.459-40.4 38.161-31.466 66.348 15.328 45.346 18.377 76.455 13.293 96.373-7.711 46.423-54.874 39.505-94.165 5.068-24.082-19.988-42.969-38.217-60.198-50.215-19.552-20.145-44.643 22.27-69.285 23.509-41.403.82-35.885-44.57-70.482-23.555-15.026 8.786-31.286 18.786-49.108 30.341-43.31 25.679-74.482 27.183-94.437 18.312-42.489-4.29-57.463-51.38-47.918-96.296 5.931-26.457 20.062-52.061 41.829-68.328 31.345-23.443 74.818-40.199 88.029-83.389 9.691-25.729-51.495-58.877-36.401-105.01 9.323-30.962 41.917-46.657 43.833-70.999 2.028-25.782 4.6-46.313 5.908-57.519z" stroke="#fff" stroke-opacity=".5" stroke-width="3"/><path d="M502.05 220.476c-4.927-53.004 48.97-38.919 60.555-9.093 23.143 58.772 48.489 70.156 87.341 80.007 16.36 9.064 22.188-28.217 48.995-33.967 26.808-5.75 38.815 28.887 54.285 13.251 24.445-23.698 46.61-30.395 63.675-26.234 16.15 2.096 28.465 14.82 33.62 32.263 4.756 16.489 3.082 37.096-7.939 56.797-28.156 28.67-21.284 83.053-32.784 104.995-15.894 17.503 4.019 34.542-2.282 67.078-6.3 32.536-34.904 30.21-28.948 51.667 10.898 35.049 12.391 58.725 7.509 73.654-6.778 36.567-45.603 30.238-78.439 2.323-20.688-16.338-37.524-30.805-53.093-39.192-16.448-15.619-37.423 19.008-58.164 20.782-34.255 1.53-30.913-34.236-59.494-17.027a1467.411 1467.411 0 00-41.722 24.792c-37.46 20.436-63.412 18.629-78.789 8.641-33.776-4.258-45.445-42.796-37.404-79.513 5.155-21.927 16.986-43.09 35.037-56.622 28.754-21.577 65.344-36.51 76.182-76.386 7.814-21.98-41.369-50.107-29.618-88.635 7.142-26.375 32.878-40.516 34.516-61.382 1.714-21.852 4.801-39.049 6.961-48.199z" stroke="#fff" stroke-opacity=".5" stroke-width="3"/><path d="M525.516 251.919c-2.311-40.049 39.796-28.961 49.059-5.166 21.84 55.17 45.742 62.148 80.394 66.516 13.052 6.401 18.477-22.484 39.725-27.567 21.248-5.082 31.367 20.294 43.832 8.558 20.031-17.78 37.973-21.783 51.468-17.131 12.465 2.288 21.926 12.994 25.439 27.244 3.212 13.532 1.026 30.157-9.196 45.666-29.475 24.574-16.312 82.57-24.592 103.656-11.838 14.78 2.114 28.497-4.086 53.1-6.201 24.603-29.606 22.247-26.601 36.963 6.521 24.734 6.462 40.963 1.754 50.895-5.885 26.696-36.583 20.954-63.142-.429-17.409-12.684-32.288-23.381-46.287-28.15-13.434-11.085-30.407 15.745-47.363 18.057-27.292 2.245-26.112-23.883-48.833-10.483l-.635.35c-10.754 5.931-22 12.133-33.931 18.888-31.821 15.186-52.693 10.056-63.571-1.057-25.243-4.229-33.667-34.205-27.085-62.713 4.408-17.393 14.004-34.111 28.439-44.908 26.33-19.715 56.236-32.828 64.761-69.4 5.98-18.229-31.462-41.332-22.992-72.251 4.998-21.785 24.013-34.376 25.383-51.763 1.41-17.922 5.032-31.782 8.06-38.875z" stroke="#fff" stroke-opacity=".5" stroke-width="3"/><path d="M549.604 284.89c.326-26.919 30.313-18.876 37.184-1.218 20.374 51.32 42.652 53.862 72.84 52.731 9.645 3.71 14.624-16.652 30.147-21.044 15.524-4.392 23.678 11.612 33.041 3.828 15.462-11.784 29.042-13.076 38.862-7.953 8.682 2.469 15.215 11.109 17.058 22.102 1.643 10.516-1.039 23.086-10.385 34.334-30.577 20.367-11.212 81.71-16.205 101.844-7.688 11.992.19 22.324-5.863 38.886-6.053 16.562-24.079 14.188-24.052 22.099 2.091 14.312.479 23.024-4.021 27.915-4.946 16.709-27.278 11.58-47.356-3.178-13.995-8.974-26.806-15.856-39.128-16.987-10.315-6.502-23.157 12.412-36.195 15.252-20.118 2.949-21.111-13.427-37.796-3.895-8.858 4.635-17.859 9.075-27.143 13.598-25.937 9.868-41.569 1.441-47.861-10.747-16.511-4.179-21.624-25.462-16.552-45.635 3.627-12.782 10.914-24.982 21.62-32.994 23.706-17.766 46.7-28.998 52.844-62.102 4.099-14.397-21.309-32.373-16.188-55.545 2.814-17.099 14.958-28.082 16.048-41.914 1.096-13.911 5.226-24.372 9.101-29.377z" stroke="#fff" stroke-opacity=".5" stroke-width="3"/><path d="M574.04 316.373c2.951-13.884 20.913-8.861 25.412 2.716 18.94 47.584 39.631 45.71 65.414 39.094 6.265 1.035 10.807-10.871 20.653-14.583 9.846-3.713 16.055 2.98 22.342-.88 10.936-5.829 20.19-4.421 26.366 1.181 4.928 2.655 8.556 9.252 8.739 17.021.083 7.53-3.097 16.082-11.582 23.105-31.711 16.215-6.149 81.02-7.879 100.246-3.567 9.236-1.723 16.215-7.637 24.795-5.915 8.579-18.61 6.181-21.546 7.323-2.315 3.951-5.475 5.187-9.773 5.062-4.018 6.786-18.053 2.258-31.704-5.926-10.617-5.293-21.384-8.385-32.053-5.89-7.225-1.948-15.971 9.113-25.127 12.484-13.002 3.657-16.161-3.029-26.858 2.665-6.792 3.247-13.363 5.829-19.791 8.003-20.114 4.588-30.549-7.144-32.287-20.428-7.84-4.139-9.664-16.799-6.089-28.703 2.855-8.211 7.852-15.93 14.861-21.183 21.125-15.857 37.267-25.239 41.05-54.952 2.231-10.605-11.232-23.507-9.437-39.003.644-12.461 5.965-21.864 6.778-32.179.784-9.941 5.426-17.035 10.148-19.968z" stroke="#fff" stroke-opacity=".5" stroke-width="3"/></g><mask id="c" style="mask-type:alpha" maskUnits="userSpaceOnUse" x="465" y="89" width="582" height="698"><path d="M488.737 386.061c16.143-56.87 37.923-108.129 72.86-155.709 35.028-47.549 83.275-91.449 146.078-117.052 62.802-25.603 140.221-32.789 209.001-8.068 68.81 24.78 129.134 81.467 129.624 145.244.46 63.717-58.842 134.494-90.211 194.714-31.339 60.129-34.68 109.672-60.012 143.179-25.393 33.538-72.745 51.101-141.079 95.509-68.365 44.499-157.74 115.784-211.818 101.032-54.107-14.812-72.976-115.781-77.051-197.52-4.165-81.77 6.434-144.369 22.608-201.329z" fill="url(#paint4_linear_237_271)"/></mask><g mask="url(#c)"><g filter="url(#filter2_d_237_271)"><path d="M488.737 386.061c16.143-56.87 37.923-108.129 72.86-155.709 35.028-47.549 83.275-91.449 146.078-117.052 62.802-25.603 140.221-32.789 209.001-8.068 68.81 24.78 129.134 81.467 129.624 145.244.46 63.717-58.842 134.494-90.211 194.714-31.339 60.129-34.68 109.672-60.012 143.179-25.393 33.538-72.745 51.101-141.079 95.509-68.365 44.499-157.74 115.784-211.818 101.032-54.107-14.812-72.976-115.781-77.051-197.52-4.165-81.77 6.434-144.369 22.608-201.329z" fill="url(#paint5_linear_237_271)"/></g><path d="M478.584-39.081c-28.14-72.299-165.99-107.477-142.656 36.615 3.826 23.627 4.373 64.335.482 113.904-3.564 45.408-76.996 70.557-99.32 129.304-35.012 92.134 97.622 155.687 76.763 204.13-27.32 63.449-111.677 91.285-158.256 126.131-43.848 32.804-71.644 85.26-82.175 139.114-18.473 94.48 16.196 193.262 110.566 197.785 47.241 2.264 109.443-19.093 187.428-76.436 34.867-25.638 65.619-46.776 92.956-63.878 70.363-44.017 51.834 59.475 135.737 62.91 47.808 1.957 97.353-87.531 135.347-40.07 27.015 33.747 58.026 74.701 102.244 116.754 77.653 73.851 174.39 84.363 187.62-21.563 6.25-50.003-6.12-125.953-47.886-233.436-26.729-68.782 39.036-66.632 46.246-154.95 7.2-88.318-54.929-128.77-10.23-165.499l.89-.736c34.07-27.993 70.41-57.848 90.08-114.98 16.94-49.213 15.1-97.876-.58-135.208-16.77-39.955-49.38-66.93-91.74-67.713-42.508-.785-94.836 24.8-150.84 90.107-36.924 43.057-62.475-56.66-128.909-46.173-66.434 10.485-75.266 106.841-115.208 79.074C547.76 87.871 511.54 45.595 478.584-39.081z" stroke="#fff" stroke-opacity=".5" stroke-width="3"/><path d="M614.532 355.369c-4.283-11.099-24.012-8.098-24.96 3.955-1.079 13.723 5.931 31.57 5.188 45.324-1.436 26.557-10.783 34.154-29.4 48.227-6.673 5.035-10.903 13.088-12.505 21.355-2.811 14.505 2.466 29.67 16.828 30.364 7.189.348 16.655-2.93 28.523-11.733 5.306-3.935 9.986-7.18 14.146-9.805 18.107-12.338 35.048-2.803 41.255 3.507 4.112 5.181 8.832 11.468 15.561 17.924 11.818 11.338 29.635 9.771 28.553-3.309-1.528-18.477-33.378-87.339-.421-99.51 15.309-5.653 14.752-18.31 12.367-24.041-2.553-6.134-7.516-10.275-13.963-10.395-6.469-.121-17.139 10.527-22.955 13.832-21.468 12.2-40.643 18.54-58.217-25.695z" stroke="#fff" stroke-opacity=".5" stroke-width="3"/><path d="M359.085 28.983C338.362-102.193 464.334-70.005 490.133-3.725c31.585 81.03 66.284 118.923 131.367 161.705 36.607 25.114 45.017-62.867 105.846-72.683 60.829-9.816 84.467 80.67 118.358 41.501 51.543-59.406 99.606-82.31 138.514-81.043 38.652.97 68.392 25.929 83.522 62.694 14.12 34.379 15.46 79.067-.65 124.097-21.05 53.533-51.64 86.928-82.731 114.259-40.619 34.008 15.531 71.142 8.45 151.55-7.082 80.408-67.598 78.232-43.816 140.3 37.392 97.207 48.214 165.741 42.158 210.767-12.319 96.089-100.868 86.167-172.184 18.829-40.894-38.408-69.907-75.606-95.311-105.753-34.948-42.943-80.454 38.767-124.436 37.342-76.881-2.728-60.507-96.614-124.96-56.397-25.306 15.729-53.665 35.026-85.717 58.337-72.262 52.108-129.338 70.171-172.066 66.803-85.792-4.488-117.204-94.73-100.205-181.022 9.771-49.328 35.31-97.349 75.511-127.422 44.073-32.974 121.678-58.985 146.667-119.108 19.013-44.695-101.811-103.23-70.093-187.767 20.175-54.162 86.853-77.755 90.145-119.687 3.584-45.643 3.556-83.02.583-104.594z" stroke="#fff" stroke-opacity=".5" stroke-width="3"/><path d="M383.28 61.757C365.2-56.073 479.11-26.982 502.529 33.06c30.166 77.112 63.295 110.496 123.982 147.69 33.218 22.378 41.196-56.939 96.331-66.053 55.136-9.115 76.826 71.845 107.634 36.692 47.007-53.311 90.735-73.46 125.988-71.716 34.888 1.155 61.706 24.012 75.166 57.466 12.56 31.313 13.4 71.878-1.86 112.577-22.23 49.257-46.562 86.049-74.377 112.41-36.483 31.173 13.605 64.867 6.655 137.102s-62.124 70.04-41.323 125.191c32.959 86.614 42.22 147.507 36.362 187.41-11.392 85.937-91.619 76.64-156.493 16.036-37.511-34.635-64.484-67.954-88.239-94.403-31.851-38.286-73.251 35.378-113.343 34.489-69.747-2.012-55.552-85.986-114.001-49.7-23.237 14.304-49.162 31.698-78.352 52.604-66.436 46.705-118.302 61.418-156.454 56.959-77.089-4.437-105.197-85.842-89.697-163.661 8.999-44.642 32.244-88.069 68.738-115.313 41.505-30.991 112.245-55.091 134.866-111.687 17.139-40.799-91.696-94.121-63.318-170.783 17.994-49.398 77.823-71.357 80.838-109.675 3.271-41.565 3.763-75.487 1.648-94.938z" stroke="#fff" stroke-opacity=".5" stroke-width="3"/><path d="M406.43 93.208c-15.466-104.914 86.558-78.813 107.634-24.79 28.796 73.465 60.407 102.465 116.793 134.208 29.881 19.725 37.438-51.217 86.964-59.662 49.526-8.445 69.303 63.285 97.075 32.021 42.544-47.411 82.005-64.88 113.656-62.653 31.176 1.343 55.124 22.182 66.934 52.447 11.014 28.36 11.344 64.949-3.083 101.465-23.448 45.157-41.553 85.466-66.133 110.95-32.402 28.45 11.7 58.827 4.872 123.152-6.829 64.325-56.747 62.103-38.895 110.54 28.578 76.339 36.294 129.816 30.624 164.742-10.482 76.099-82.51 67.393-141.044 13.302-34.186-30.99-59.161-60.552-81.305-83.401-28.804-33.769-66.162 32.118-102.425 31.76-62.72-1.305-50.682-75.674-103.219-43.189-21.204 12.932-44.735 28.486-71.108 47.064-60.711 41.471-107.448 52.89-141.083 47.327-68.503-4.402-93.352-77.267-79.327-146.897 8.24-40.117 29.226-79.108 62.069-103.62 39.002-29.118 102.985-51.394 123.273-104.662 15.292-37.051-81.723-85.354-56.642-154.42 15.842-44.812 68.912-65.215 71.655-100.056 2.963-37.639 3.976-68.229 2.715-85.628z" stroke="#fff" stroke-opacity=".5" stroke-width="3"/><path d="M430.609 124.653c-12.826-91.994 77.131-68.882 95.827-20.88 27.376 69.825 57.413 94.438 109.399 120.727 26.49 17.071 33.613-45.494 77.443-53.269 43.829-7.775 61.657 54.721 86.344 27.347 38.005-41.508 73.128-56.294 101.122-53.583 27.409 1.531 48.44 20.352 58.582 47.427 9.442 25.408 9.275 58.021-4.298 90.352-24.622 41.058-36.471 84.897-57.772 109.506-28.263 25.728 9.776 52.787 3.081 109.199-6.695 56.413-51.268 54.164-36.398 95.884 24.147 66.059 30.304 112.115 24.832 142.062-9.552 66.259-73.255 58.142-125.345 10.566-30.8-27.344-53.732-53.149-74.227-72.396-25.705-29.25-58.954 28.857-91.325 29.031-55.583-.598-45.724-65.356-92.253-36.673-19.134 11.558-40.23 25.271-63.738 41.521-54.88 36.234-96.404 44.355-125.462 37.685-59.797-4.368-81.341-68.69-68.817-130.13 7.465-35.59 26.156-70.145 55.289-91.925 36.43-27.246 93.543-47.697 111.461-97.642 13.417-33.303-71.606-76.587-49.867-138.055 13.661-40.226 59.878-59.073 62.344-90.439 2.65-33.711 4.182-60.969 3.778-76.315z" stroke="#fff" stroke-opacity=".5" stroke-width="3"/><path d="M454.784 157.583c-10.185-78.868 67.702-58.798 84.017-16.924 25.95 66.027 54.408 86.197 101.989 106.975 23.098 14.378 29.786-39.67 67.917-46.758 38.132-7.088 54.009 46.035 75.611 22.612 33.464-35.514 64.249-47.584 88.584-44.396 23.64 1.716 41.754 18.477 50.228 42.301 7.874 22.397 7.205 50.961-5.51 79.036-25.789 36.867-31.389 84.133-49.411 107.813-24.124 22.948 7.851 46.627 1.29 95.002-6.56 48.374-45.785 46.104-33.896 81.013 19.717 55.632 24.315 94.166 19.043 119.067-8.623 56.27-63.998 48.762-109.641 7.807-27.413-23.636-48.301-45.625-67.142-61.228-22.606-24.666-51.745 25.532-80.222 26.238-48.442.111-40.762-54.895-81.283-30.077-17.062 10.159-35.72 22.001-56.364 35.886-49.044 30.918-85.355 35.724-109.835 27.963-51.09-4.324-69.331-59.96-58.308-113.071 6.692-30.984 23.086-61.026 48.509-80.026 33.852-25.313 84.093-43.893 99.641-90.402 11.543-29.479-61.486-67.647-43.088-121.38 11.48-35.55 50.844-52.799 53.033-80.618 2.337-29.709 4.386-53.574 4.838-66.833z" stroke="#fff" stroke-opacity=".5" stroke-width="3"/><path d="M477.911 189.033c-7.566-65.941 58.414-48.863 72.382-13.012 24.579 62.393 51.517 78.173 94.792 93.491 19.755 11.723 26.022-33.944 58.534-40.364 32.513-6.419 46.473 37.466 65.034 17.934 28.992-29.608 55.503-38.994 76.231-35.32 19.921 1.905 35.155 16.647 41.978 37.282 6.324 19.443 5.15 44.029-6.734 67.918-27.01 32.768-26.372 83.579-41.152 106.387-20.036 20.225 5.942 40.585-.497 81.044-6.44 40.458-40.4 38.16-31.466 66.347 15.328 45.346 18.377 76.455 13.293 96.373-7.711 46.423-54.874 39.505-94.165 5.069-24.082-19.989-42.969-38.218-60.198-50.216-19.552-20.144-44.643 22.27-69.285 23.51-41.403.82-35.885-44.571-70.482-23.556-15.026 8.786-31.286 18.786-49.108 30.341-43.31 25.68-74.482 27.183-94.437 18.312-42.489-4.29-57.463-51.38-47.918-96.296 5.931-26.457 20.062-52.061 41.829-68.328 31.345-23.443 74.818-40.199 88.029-83.388 9.691-25.73-51.495-58.878-36.401-105.01 9.323-30.963 41.917-46.658 43.833-71 2.028-25.781 4.6-46.313 5.908-57.518z" stroke="#fff" stroke-opacity=".5" stroke-width="3"/><path d="M502.05 220.476c-4.927-53.004 48.97-38.919 60.555-9.093 23.143 58.773 48.489 70.157 87.341 80.007 16.36 9.064 22.188-28.216 48.995-33.967 26.808-5.75 38.815 28.887 54.285 13.251 24.445-23.697 46.61-30.395 63.675-26.233 16.15 2.095 28.465 14.82 33.62 32.263 4.756 16.488 3.082 37.095-7.939 56.796-28.156 28.67-21.284 83.053-32.784 104.995-15.894 17.503 4.019 34.543-2.282 67.078-6.3 32.536-34.904 30.21-28.948 51.668 10.898 35.048 12.391 58.724 7.509 73.653-6.778 36.568-45.603 30.238-78.439 2.323-20.688-16.338-37.524-30.804-53.093-39.192-16.448-15.618-37.423 19.008-58.164 20.782-34.255 1.531-30.913-34.236-59.494-17.026a1464.894 1464.894 0 00-41.722 24.791c-37.46 20.436-63.412 18.629-78.789 8.641-33.776-4.258-45.445-42.796-37.404-79.512 5.155-21.928 16.986-43.09 35.037-56.623 28.754-21.577 65.344-36.51 76.182-76.386 7.814-21.979-41.369-50.107-29.618-88.635 7.142-26.375 32.878-40.516 34.516-61.381 1.714-21.853 4.801-39.05 6.961-48.2z" stroke="#fff" stroke-opacity=".5" stroke-width="3"/><path d="M525.516 251.92c-2.311-40.05 39.796-28.962 49.059-5.167 21.84 55.171 45.742 62.149 80.394 66.516 13.052 6.401 18.477-22.483 39.725-27.566 21.248-5.083 31.367 20.293 43.832 8.557 20.031-17.78 37.973-21.783 51.468-17.13 12.465 2.287 21.926 12.993 25.439 27.243 3.212 13.532 1.026 30.158-9.196 45.667-29.475 24.573-16.312 82.569-24.592 103.655-11.838 14.78 2.114 28.497-4.086 53.1-6.201 24.603-29.606 22.247-26.601 36.963 6.521 24.734 6.462 40.964 1.754 50.895-5.885 26.696-36.583 20.955-63.142-.429-17.409-12.684-32.288-23.381-46.287-28.15-13.434-11.085-30.407 15.745-47.363 18.057-27.292 2.245-26.112-23.882-48.833-10.482l-.635.349c-10.754 5.931-22 12.133-33.931 18.888-31.821 15.186-52.693 10.056-63.571-1.057-25.243-4.228-33.667-34.205-27.085-62.713 4.408-17.393 14.004-34.111 28.439-44.907 26.33-19.716 56.236-32.828 64.761-69.401 5.98-18.229-31.462-41.332-22.992-72.251 4.998-21.785 24.013-34.376 25.383-51.763 1.41-17.921 5.032-31.781 8.06-38.874z" stroke="#fff" stroke-opacity=".5" stroke-width="3"/><path d="M549.604 284.891c.326-26.92 30.313-18.877 37.184-1.218 20.374 51.319 42.652 53.861 72.84 52.73 9.645 3.71 14.624-16.652 30.147-21.044 15.524-4.392 23.678 11.612 33.041 3.828 15.462-11.783 29.042-13.076 38.862-7.953 8.682 2.469 15.215 11.109 17.058 22.102 1.643 10.516-1.039 23.086-10.385 34.334-30.577 20.367-11.212 81.711-16.205 101.844-7.688 11.992.19 22.324-5.863 38.887-6.053 16.562-24.079 14.187-24.052 22.098 2.091 14.312.479 23.025-4.021 27.915-4.946 16.709-27.278 11.581-47.356-3.178-13.995-8.974-26.806-15.856-39.128-16.986-10.315-6.503-23.157 12.412-36.195 15.251-20.118 2.949-21.111-13.426-37.796-3.895-8.858 4.635-17.859 9.075-27.143 13.598-25.937 9.868-41.569 1.441-47.861-10.747-16.511-4.179-21.624-25.462-16.552-45.635 3.627-12.782 10.914-24.982 21.62-32.994 23.706-17.765 46.7-28.998 52.844-62.102 4.099-14.397-21.309-32.373-16.188-55.545 2.814-17.099 14.958-28.082 16.048-41.914 1.096-13.91 5.226-24.372 9.101-29.376z" stroke="#fff" stroke-opacity=".5" stroke-width="3"/><path d="M574.04 316.374c2.951-13.885 20.913-8.861 25.412 2.716 18.94 47.583 39.631 45.709 65.414 39.094 6.265 1.034 10.807-10.871 20.653-14.584 9.846-3.712 16.055 2.98 22.342-.88 10.936-5.829 20.19-4.421 26.366 1.181 4.928 2.655 8.556 9.252 8.739 17.021.083 7.531-3.097 16.082-11.582 23.106-31.711 16.214-6.149 81.02-7.879 100.245-3.567 9.236-1.723 16.216-7.637 24.795-5.915 8.579-18.61 6.181-21.546 7.323-2.315 3.951-5.475 5.187-9.773 5.062-4.018 6.786-18.053 2.258-31.704-5.926-10.617-5.293-21.384-8.384-32.053-5.89-7.225-1.948-15.971 9.114-25.127 12.485-13.002 3.656-16.161-3.03-26.858 2.664-6.792 3.247-13.363 5.829-19.791 8.004-20.114 4.587-30.549-7.145-32.287-20.429-7.84-4.139-9.664-16.798-6.089-28.703 2.855-8.211 7.852-15.93 14.861-21.183 21.125-15.857 37.267-25.238 41.05-54.952 2.231-10.605-11.232-23.507-9.437-39.003.644-12.461 5.965-21.864 6.778-32.179.784-9.941 5.426-17.035 10.148-19.967z" stroke="#fff" stroke-opacity=".5" stroke-width="3"/></g><defs><linearGradient id="paint0_linear_237_271" x1="-137.396" y1="576.262" x2="1315.71" y2="369.637" gradientUnits="userSpaceOnUse"><stop stop-color="#42DDFF"/><stop offset="1" stop-color="#50C9FD"/></linearGradient><linearGradient id="paint1_linear_237_271" x1="-137.396" y1="576.262" x2="1315.71" y2="369.637" gradientUnits="userSpaceOnUse"><stop stop-color="#42DDFF"/><stop offset="1" stop-color="#50C9FD"/></linearGradient><linearGradient id="paint2_linear_237_271" x1="1219.72" y1="451.491" x2="22.713" y2="586.966" gradientUnits="userSpaceOnUse"><stop stop-color="#42DDFF"/><stop offset="1" stop-color="#50C9FD"/></linearGradient><linearGradient id="paint3_linear_237_271" x1="1219.72" y1="451.491" x2="22.713" y2="586.966" gradientUnits="userSpaceOnUse"><stop stop-color="#42DDFF"/><stop offset="1" stop-color="#50C9FD"/></linearGradient><linearGradient id="paint4_linear_237_271" x1="899.038" y1="740.382" x2="571.472" y2="80.111" gradientUnits="userSpaceOnUse"><stop stop-color="#42DDFF"/><stop offset="1" stop-color="#50C9FD"/></linearGradient><linearGradient id="paint5_linear_237_271" x1="899.038" y1="740.382" x2="571.472" y2="80.111" gradientUnits="userSpaceOnUse"><stop stop-color="#42DDFF"/><stop offset="1" stop-color="#50C9FD"/></linearGradient><filter id="filter0_d_237_271" x="50.987" y="57.824" width="1104.02" height="809.714" filterUnits="userSpaceOnUse" color-interpolation-filters="sRGB"><feFlood flood-opacity="0" result="BackgroundImageFix"/><feColorMatrix in="SourceAlpha" values="0 0 0 0 0 0 0 0 0 0 0 0 0 0 0 0 0 0 127 0" result="hardAlpha"/><feOffset dy="4"/><feGaussianBlur stdDeviation="2"/><feComposite in2="hardAlpha" operator="out"/><feColorMatrix values="0 0 0 0 0 0 0 0 0 0 0 0 0 0 0 0 0 0 0.25 0"/><feBlend in2="BackgroundImageFix" result="effect1_dropShadow_237_271"/><feBlend in="SourceGraphic" in2="effect1_dropShadow_237_271" result="shape"/></filter><filter id="filter1_d_237_271" x="139.402" y="123.149" width="928.827" height="758.388" filterUnits="userSpaceOnUse" color-interpolation-filters="sRGB"><feFlood flood-opacity="0" result="BackgroundImageFix"/><feColorMatrix in="SourceAlpha" values="0 0 0 0 0 0 0 0 0 0 0 0 0 0 0 0 0 0 127 0" result="hardAlpha"/><feOffset dy="4"/><feGaussianBlur stdDeviation="2"/><feComposite in2="hardAlpha" operator="out"/><feColorMatrix values="0 0 0 0 0 0 0 0 0 0 0 0 0 0 0 0 0 0 0.25 0"/><feBlend in2="BackgroundImageFix" result="effect1_dropShadow_237_271"/><feBlend in="SourceGraphic" in2="effect1_dropShadow_237_271" result="shape"/></filter><filter id="filter2_d_237_271" x="461.22" y="89.967" width="589.083" height="704.918" filterUnits="userSpaceOnUse" color-interpolation-filters="sRGB"><feFlood flood-opacity="0" result="BackgroundImageFix"/><feColorMatrix in="SourceAlpha" values="0 0 0 0 0 0 0 0 0 0 0 0 0 0 0 0 0 0 127 0" result="hardAlpha"/><feOffset dy="4"/><feGaussianBlur stdDeviation="2"/><feComposite in2="hardAlpha" operator="out"/><feColorMatrix values="0 0 0 0 0 0 0 0 0 0 0 0 0 0 0 0 0 0 0.25 0"/><feBlend in2="BackgroundImageFix" result="effect1_dropShadow_237_271"/><feBlend in="SourceGraphic" in2="effect1_dropShadow_237_271" result="shape"/></filter></defs></svg>