<svg width="1116" height="1042" fill="none" xmlns="http://www.w3.org/2000/svg"><mask id="a" style="mask-type:alpha" maskUnits="userSpaceOnUse" x="4" y="117" width="1016" height="808"><path d="M721.17 128.896c103.468 14.589 239.881 44.282 282.43 117.915 42.73 73.633-8.403 191.377-36.029 329.03-27.797 137.826-32.087 295.561-109.817 336.24-77.901 40.849-229.071-35.186-369.43-50.29-140.36-15.105-269.909 30.894-320.356-18.709-50.619-49.603-22.478-194.981-55.423-315.814C79.771 406.435-14.431 310.146 7.189 253.848c21.792-56.125 159.234-72.259 256.868-88.908 97.634-16.477 155.46-33.47 219.462-42.051 64.003-8.582 134.354-8.754 237.651 6.007z" fill="url(#paint0_linear_526_2901)" fill-opacity=".25"/></mask><g mask="url(#a)"><g filter="url(#filter0_d_526_2901)"><path d="M721.17 128.896c103.468 14.589 239.881 44.282 282.43 117.915 42.73 73.633-8.403 191.377-36.029 329.03-27.797 137.826-32.087 295.561-109.817 336.24-77.901 40.849-229.071-35.186-369.43-50.29-140.36-15.105-269.909 30.894-320.356-18.709-50.619-49.603-22.478-194.981-55.423-315.814C79.771 406.435-14.431 310.146 7.189 253.848c21.792-56.125 159.234-72.259 256.868-88.908 97.634-16.477 155.46-33.47 219.462-42.051 64.003-8.582 134.354-8.754 237.651 6.007z" fill="url(#paint1_linear_526_2901)" fill-opacity=".25" shape-rendering="crispEdges"/></g><path opacity=".034" d="M152.435 35.346c6.628-4.834 15.275-6.702 25.779-5.715 10.513.987 22.821 4.831 36.666 11.347 27.688 13.03 61.331 36.65 98.72 68.993 74.767 64.677 164.346 164.087 250.996 282.903 86.649 118.816 153.926 234.491 192.658 325.447 19.369 45.486 31.577 84.737 35.521 115.083 1.972 15.174 1.871 28.068-.402 38.379-2.27 10.303-6.692 17.966-13.32 22.799-6.628 4.834-15.275 6.702-25.779 5.715-10.513-.987-22.821-4.832-36.665-11.347-27.689-13.029-61.331-36.649-98.721-68.993-74.767-64.677-164.346-164.087-250.996-282.903-86.649-118.817-153.926-234.492-192.658-325.447-19.369-45.486-31.577-84.738-35.521-115.083-1.972-15.174-1.871-28.068.402-38.379 2.27-10.303 6.692-17.966 13.32-22.8z" stroke="#fff" stroke-opacity=".5" stroke-width="2"/><path opacity=".069" d="M192.091 5.546c7.024-4.237 15.802-5.345 26.18-3.446 10.386 1.9 22.312 6.802 35.537 14.5 26.447 15.392 57.903 41.855 92.331 77.334 68.846 70.947 149.42 177.786 225.384 303.703 75.965 125.916 132.903 247.014 163.561 341 15.331 47 24.071 87.166 25.356 117.74.642 15.288-.583 28.124-3.745 38.198-3.16 10.066-8.233 17.314-15.257 21.552-7.024 4.237-15.801 5.345-26.179 3.446-10.387-1.9-22.313-6.802-35.537-14.499-26.448-15.393-57.904-41.856-92.332-77.335-68.845-70.947-149.419-177.786-225.384-303.702-75.964-125.917-132.903-247.015-163.56-341-15.331-47.001-24.072-87.167-25.356-117.741-.642-15.288.582-28.124 3.745-38.198 3.16-10.066 8.233-17.314 15.256-21.552z" stroke="#fff" stroke-opacity=".5" stroke-width="2"/><path opacity=".103" d="M233.84-20.79c7.366-3.609 16.207-3.947 26.38-1.151 10.181 2.798 21.635 8.721 34.138 17.541 25.005 17.64 54.035 46.743 85.24 85.088 62.4 76.677 133.356 190.133 198.057 322.19 64.701 132.058 110.869 257.658 133.218 353.958 11.176 48.158 16.383 88.933 14.998 119.503-.693 15.285-3.032 27.966-7.06 37.726-4.025 9.752-9.711 16.53-17.077 20.14-7.367 3.609-16.207 3.947-26.38 1.151-10.182-2.798-21.635-8.721-34.138-17.541-25.005-17.64-54.035-46.743-85.24-85.088-62.4-76.677-133.356-190.132-198.057-322.19S247.05 252.879 224.701 156.579c-11.176-48.158-16.383-88.933-14.998-119.502.693-15.286 3.032-27.966 7.06-37.727 4.025-9.752 9.711-16.53 17.077-20.14z" stroke="#fff" stroke-opacity=".5" stroke-width="2"/><path opacity=".138" d="M277.368-43.491c7.653-2.953 16.489-2.52 26.38 1.152 9.899 3.675 20.793 10.573 32.479 20.45 23.373 19.752 49.756 51.274 77.5 92.193 55.48 81.824 116.277 201.032 169.223 338.226 52.945 137.194 87.99 266.34 101.861 364.221 6.937 48.949 8.57 90.023 4.526 120.355-2.023 15.167-5.458 27.596-10.322 36.968-4.859 9.364-11.114 15.621-18.767 18.574-7.653 2.954-16.489 2.521-26.38-1.151-9.899-3.675-20.792-10.574-32.479-20.45-23.373-19.752-49.756-51.275-77.5-92.194-55.48-81.824-116.277-201.031-169.222-338.226-52.946-137.194-87.991-266.34-101.862-364.221-6.937-48.949-8.57-90.023-4.525-120.355 2.022-15.167 5.457-27.595 10.321-36.967 4.86-9.365 11.114-15.622 18.767-18.575z" stroke="#fff" stroke-opacity=".5" stroke-width="2"/><path opacity=".172" d="M322.353-62.417c7.882-2.275 16.647-1.073 26.18 3.447 9.54 4.523 19.791 12.346 30.573 23.203 21.562 21.714 45.097 55.416 69.17 98.597 48.137 86.348 98.314 210.401 139.1 351.687 40.786 141.287 64.442 272.996 69.73 371.713 2.644 49.367.691 90.428-5.982 120.292-3.336 14.933-7.841 27.015-13.503 35.927-5.658 8.905-12.434 14.593-20.315 16.869-7.881 2.275-16.646 1.073-26.179-3.447-9.541-4.524-19.792-12.346-30.574-23.203-21.562-21.714-45.097-55.416-69.169-98.597-48.137-86.348-98.314-210.401-139.101-351.688-40.786-141.286-64.442-272.995-69.73-371.713-2.644-49.367-.691-90.427 5.982-120.291 3.336-14.933 7.842-27.015 13.504-35.927 5.657-8.905 12.433-14.594 20.314-16.869z" stroke="#fff" stroke-opacity=".5" stroke-width="2"/><path opacity=".207" d="M368.462-77.455c8.049-1.58 16.676.382 25.779 5.716 9.11 5.338 18.64 14.023 28.435 25.779 19.587 23.51 40.095 59.135 60.313 104.25 40.428 90.215 79.602 218.169 107.919 362.473 28.317 144.304 40.404 277.573 37.068 376.376-1.669 49.41-7.193 90.143-16.443 119.312-4.625 14.586-10.166 26.229-16.584 34.614-6.412 8.378-13.658 13.454-21.707 15.034-8.05 1.579-16.677-.382-25.78-5.716-9.11-5.338-18.64-14.023-28.434-25.779-19.588-23.51-40.096-59.136-60.314-104.25-40.428-90.215-79.602-218.169-107.919-362.473-28.317-144.304-40.404-277.573-37.067-376.376 1.668-49.41 7.192-90.143 16.442-119.313 4.626-14.585 10.167-26.228 16.584-34.613 6.412-8.378 13.658-13.454 21.708-15.034z" stroke="#fff" stroke-opacity=".5" stroke-width="2"/><path opacity=".241" d="M415.349-88.524c8.156-.872 16.579 1.834 25.183 7.94 8.61 6.112 17.347 15.595 26.079 28.16 17.464 25.128 34.79 62.405 50.998 109.11 32.412 93.395 60.285 224.276 75.917 370.499 15.633 146.223 16.058 280.039 4.123 378.175-5.968 49.076-15.021 89.173-26.779 117.425-5.878 14.127-12.413 25.243-19.537 33.036-7.118 7.788-14.779 12.213-22.935 13.085-8.157.872-16.58-1.834-25.183-7.94-8.61-6.112-17.348-15.595-26.08-28.16-17.464-25.128-34.789-62.405-50.998-109.11-32.411-93.395-60.284-224.276-75.917-370.499-15.632-146.223-16.058-280.039-4.123-378.175 5.969-49.076 15.022-89.173 26.779-117.425 5.879-14.127 12.414-25.243 19.537-33.036 7.118-7.788 14.779-12.213 22.936-13.085z" stroke="#fff" stroke-opacity=".5" stroke-width="2"/><path opacity=".276" d="M462.665-95.564c8.202-.158 16.357 3.271 24.395 10.105 8.045 6.838 15.922 17.047 23.526 30.325 15.208 26.555 29.218 65.2 41.294 113.14 24.149 95.864 40.509 228.677 43.338 375.706 2.828 147.028-8.41 280.372-28.853 377.094-10.223 48.37-22.737 87.525-36.911 114.645-7.088 13.561-14.567 24.065-22.343 31.208-7.769 7.137-15.787 10.878-23.988 11.036-8.202.158-16.357-3.272-24.395-10.105-8.045-6.839-15.922-17.048-23.526-30.325-15.208-26.555-29.218-65.2-41.295-113.14-24.148-95.865-40.508-228.677-43.337-375.706-2.828-147.029 8.41-280.373 28.853-377.095C389.646 12.954 402.16-26.2 416.334-53.32c7.088-13.56 14.567-24.064 22.343-31.207 7.769-7.138 15.787-10.878 23.988-11.036z" stroke="#fff" stroke-opacity=".5" stroke-width="2"/><path opacity=".31" d="M510.06-98.562c8.184.558 16.009 4.685 23.422 12.193 7.418 7.514 14.375 18.37 20.793 32.26C567.111-26.329 577.7 13.39 585.551 62.2c15.702 97.604 20.424 231.337 10.428 378.053-9.997 146.716-32.814 278.572-61.609 373.145-14.4 47.294-30.278 85.21-46.763 110.991-8.242 12.891-16.608 22.704-24.977 29.142-8.362 6.433-16.675 9.461-24.859 8.903-8.184-.557-16.01-4.685-23.422-12.193-7.418-7.513-14.376-18.37-20.793-32.26-12.836-27.779-23.425-67.498-31.277-116.308-15.701-97.604-20.423-231.337-10.427-378.053 9.996-146.716 32.814-278.573 61.609-373.146 14.4-47.294 30.278-85.21 46.763-110.99 8.242-12.892 16.608-22.704 24.977-29.143 8.362-6.433 16.675-9.46 24.859-8.903z" stroke="#fff" stroke-opacity=".5" stroke-width="2"/><path opacity=".345" d="M557.181-97.521c8.104 1.268 15.54 6.062 22.27 14.187 6.735 8.132 12.719 19.553 17.902 33.95 10.366 28.792 17.453 69.283 21.02 118.592 7.135 98.601.184 232.237-22.561 377.523-22.746 145.286-56.969 274.653-93.897 366.356-18.467 45.859-37.589 82.247-56.258 106.493-9.335 12.124-18.524 21.17-27.422 26.854-8.891 5.68-17.436 7.972-25.54 6.703-8.105-1.269-15.541-6.063-22.27-14.188-6.735-8.132-12.72-19.553-17.903-33.95-10.365-28.792-17.452-69.283-21.02-118.591-7.135-98.602-.184-232.237 22.562-377.524 22.745-145.286 56.968-274.652 93.896-366.355 18.467-45.86 37.59-82.247 56.258-106.494 9.335-12.123 18.524-21.17 27.422-26.854 8.891-5.68 17.436-7.971 25.541-6.702z" stroke="#fff" stroke-opacity=".5" stroke-width="2"/><path opacity=".379" d="M603.675-92.485c7.963 1.97 14.953 7.394 20.949 16.075 6 8.688 10.967 20.587 14.875 35.38 7.817 29.587 11.348 70.541 10.605 119.973-1.487 98.848-20.059 231.37-55.38 374.121-35.321 142.751-80.689 268.642-125.469 356.778-22.393 44.075-44.615 78.657-65.325 101.185-10.356 11.264-20.299 19.474-29.659 24.361-9.352 4.884-18.064 6.422-26.027 4.452-7.963-1.971-14.953-7.394-20.949-16.075-6-8.688-10.967-20.588-14.875-35.381-7.817-29.586-11.348-70.54-10.605-119.972 1.487-98.848 20.059-231.37 55.38-374.121 35.321-142.751 80.689-268.642 125.469-356.778 22.393-44.075 44.615-78.657 65.325-101.185 10.356-11.264 20.299-19.474 29.659-24.362 9.352-4.883 18.064-6.42 26.027-4.45z" stroke="#fff" stroke-opacity=".5" stroke-width="2"/><path opacity=".414" d="M649.197-83.52c7.761 2.657 14.252 8.67 19.468 17.84 5.221 9.178 9.132 21.465 11.736 36.542 5.208 30.155 5.156 71.261.107 120.44-10.095 98.343-40.146 228.741-87.775 367.871-47.628 139.129-103.796 260.587-156.087 344.485-26.149 41.955-51.3 74.47-73.896 95.106-11.298 10.319-21.918 17.631-31.668 21.684-9.742 4.05-18.556 4.823-26.316 2.166-7.761-2.657-14.252-8.669-19.468-17.839-5.221-9.178-9.132-21.465-11.736-36.543-5.208-30.154-5.156-71.261-.107-120.44 10.095-98.342 40.147-228.741 87.775-367.87 47.629-139.13 103.796-260.588 156.087-344.485 26.149-41.956 51.3-74.47 73.896-95.107 11.298-10.318 21.918-17.63 31.668-21.684 9.742-4.05 18.556-4.822 26.316-2.166z" stroke="#fff" stroke-opacity=".5" stroke-width="2"/><path opacity=".448" d="M693.409-70.724c7.5 3.323 13.441 9.877 17.839 19.468 4.401 9.598 7.226 22.179 8.506 37.426 2.56 30.494-1.074 71.44-10.39 119.992-18.628 97.088-59.93 224.371-119.504 358.82-59.573 134.449-126.112 250.549-185.516 329.57-29.707 39.517-57.596 69.715-81.904 88.304-12.154 9.294-23.372 15.654-33.438 18.841-10.058 3.186-18.905 3.188-26.405-.136-7.5-3.323-13.441-9.877-17.839-19.468-4.401-9.598-7.226-22.179-8.506-37.426-2.56-30.494 1.074-71.439 10.39-119.991 18.628-97.089 59.93-224.372 119.504-358.821 59.573-134.448 126.112-250.549 185.516-329.57 29.707-39.517 57.596-69.715 81.904-88.304 12.154-9.294 23.372-15.654 33.438-18.841 10.058-3.186 18.905-3.188 26.405.136z" stroke="#fff" stroke-opacity=".5" stroke-width="2"/><path opacity=".483" d="M735.98-54.228c7.182 3.964 12.53 11.012 16.075 20.949 3.547 9.945 5.265 22.724 5.211 38.025-.107 30.601-7.296 71.074-20.808 118.629-27.019 95.096-79.257 218.295-150.322 347.04-71.064 128.745-147.469 238.604-213.534 312.147-33.038 36.778-63.453 64.43-89.289 80.83-12.918 8.199-24.647 13.557-34.952 15.855-10.298 2.297-19.111 1.527-26.293-2.437-7.182-3.964-12.53-11.011-16.074-20.948-3.548-9.945-5.266-22.725-5.212-38.026.107-30.601 7.296-71.074 20.808-118.629 27.019-95.095 79.258-218.294 150.322-347.039C442.977 223.423 519.381 113.563 585.447 40.02c33.038-36.777 63.452-64.43 89.288-80.83 12.918-8.2 24.647-13.556 34.953-15.855 10.297-2.296 19.111-1.527 26.292 2.437z" stroke="#fff" stroke-opacity=".5" stroke-width="2"/><path opacity=".517" d="M776.597-34.19c6.809 4.574 11.522 12.061 14.188 22.27 2.667 10.216 3.264 23.096 1.877 38.334-2.774 30.475-13.463 70.168-31.068 116.364-35.205 92.379-97.982 210.556-179.996 332.618C499.583 597.457 413.894 700.24 341.67 767.744c-36.117 33.758-68.827 58.655-95.993 72.74-13.584 7.043-25.735 11.358-36.202 12.749-10.458 1.39-19.171-.144-25.98-4.719-6.809-4.575-11.522-12.062-14.187-22.27-2.668-10.216-3.265-23.097-1.878-38.335 2.774-30.475 13.463-70.167 31.068-116.364 35.205-92.378 97.982-210.556 179.996-332.617 82.015-122.062 167.704-224.844 239.928-292.35 36.117-33.757 68.827-58.654 95.993-72.739 13.584-7.043 25.735-11.358 36.202-12.749 10.458-1.39 19.171.144 25.98 4.72z" stroke="#fff" stroke-opacity=".5" stroke-width="2"/><path opacity=".552" d="M814.956-10.793c6.384 5.151 10.427 13.02 12.193 23.422 1.766 10.41 1.239 23.294-1.471 38.353-5.419 30.117-19.527 68.727-41.092 113.213-43.122 88.959-115.96 201.215-208.301 315.664-92.341 114.449-186.662 209.372-264.494 270.326-38.922 30.481-73.677 52.433-101.968 64.096-14.146 5.832-26.627 9.072-37.175 9.545-10.54.474-19.086-1.814-25.47-6.965s-10.427-13.02-12.192-23.422c-1.767-10.41-1.24-23.293 1.47-38.353 5.42-30.117 19.528-68.726 41.092-113.213 43.122-88.959 115.96-201.215 208.301-315.664C478.19 211.76 572.511 116.837 650.343 55.884 689.266 25.402 724.02 3.45 752.311-8.213c14.146-5.832 26.627-9.071 37.175-9.545 10.54-.474 19.086 1.814 25.47 6.965z" stroke="#fff" stroke-opacity=".5" stroke-width="2"/><path opacity=".586" d="M850.775 15.753c5.911 5.688 9.252 13.88 10.105 24.395.852 10.524-.796 23.313-4.808 38.079-8.024 29.53-25.443 66.763-50.803 109.201-50.711 84.862-133.055 190.343-235.02 296.308-101.965 105.966-204.2 192.307-287.048 246.244-41.431 26.974-77.967 45.813-107.166 54.966-14.601 4.577-27.317 6.716-37.866 6.269-10.541-.447-18.855-3.471-24.766-9.159-5.911-5.687-9.253-13.879-10.105-24.395-.852-10.524.796-23.313 4.808-38.079 8.024-29.53 25.443-66.763 50.803-109.201 50.711-84.862 133.055-190.343 235.02-296.308s204.2-192.307 287.048-246.244c41.431-26.974 77.967-45.813 107.166-54.966 14.601-4.577 27.317-6.716 37.866-6.27 10.541.448 18.855 3.472 24.766 9.16z" stroke="#fff" stroke-opacity=".5" stroke-width="2"/><path opacity=".621" d="M883.787 45.216c5.393 6.181 8.008 14.633 7.94 25.183-.067 10.559-2.824 23.155-8.108 37.515-10.567 28.718-31.165 64.292-60.127 104.358-57.914 80.119-149.138 178.022-259.95 274.697-110.813 96.675-220.184 173.778-307.418 220.29-43.624 23.259-81.662 38.842-111.549 45.416-14.944 3.287-27.798 4.31-38.268 2.945-10.462-1.364-18.48-5.101-23.873-11.283-5.393-6.181-8.008-14.633-7.94-25.183.067-10.558 2.824-23.155 8.108-37.515 10.567-28.718 31.165-64.291 60.127-104.358 57.914-80.119 149.138-178.021 259.951-274.697 110.812-96.675 220.183-173.777 307.417-220.29 43.624-23.259 81.663-38.842 111.549-45.416 14.944-3.287 27.798-4.31 38.268-2.944 10.462 1.363 18.481 5.1 23.873 11.282z" stroke="#fff" stroke-opacity=".5" stroke-width="2"/><path opacity=".655" d="M913.751 77.337c4.833 6.628 6.702 15.275 5.715 25.78-.988 10.512-4.832 22.82-11.347 36.665-13.029 27.688-36.65 61.331-68.993 98.72-64.677 74.767-164.087 164.346-282.903 250.996-118.817 86.65-234.492 153.926-325.448 192.658-45.485 19.369-84.737 31.577-115.082 35.521-15.174 1.973-28.068 1.871-38.38-.401-10.302-2.271-17.965-6.693-22.799-13.32-4.833-6.628-6.702-15.276-5.715-25.78.988-10.512 4.832-22.82 11.347-36.665 13.03-27.688 36.65-61.331 68.994-98.721 64.676-74.766 164.087-164.346 282.903-250.995 118.816-86.65 234.491-153.926 325.447-192.658 45.485-19.37 84.737-31.578 115.083-35.522 15.173-1.972 28.067-1.87 38.379.402 10.303 2.27 17.966 6.692 22.799 13.32z" stroke="#fff" stroke-opacity=".5" stroke-width="2"/><path opacity=".69" d="M940.444 111.845c4.238 7.024 5.345 15.801 3.447 26.179-1.9 10.387-6.803 22.313-14.5 35.537-15.393 26.448-41.855 57.904-77.335 92.332-70.946 68.845-177.786 149.42-303.702 225.384s-247.014 132.903-341 163.56c-47 15.331-87.167 24.072-117.74 25.356-15.288.643-28.124-.582-38.199-3.745-10.066-3.16-17.314-8.233-21.551-15.256-4.238-7.024-5.345-15.802-3.447-26.18 1.9-10.386 6.803-22.312 14.5-35.537 15.393-26.447 41.855-57.903 77.335-92.331 70.947-68.845 177.786-149.42 303.702-225.384s247.015-132.903 341-163.56c47-15.332 87.167-24.072 117.741-25.357 15.287-.642 28.124.583 38.198 3.745 10.066 3.16 17.314 8.233 21.551 15.257z" stroke="#fff" stroke-opacity=".5" stroke-width="2"/><path opacity=".724" d="M963.672 148.443c3.61 7.366 3.948 16.207 1.152 26.38-2.798 10.181-8.721 21.635-17.541 34.138-17.64 25.005-46.743 54.035-85.088 85.24-76.677 62.4-190.132 133.356-322.19 198.057S282.347 603.126 186.047 625.476c-48.158 11.176-88.933 16.383-119.503 14.998-15.285-.693-27.965-3.032-37.726-7.06-9.752-4.026-16.53-9.711-20.14-17.077-3.609-7.367-3.947-16.207-1.151-26.381 2.798-10.181 8.721-21.634 17.541-34.137 17.64-25.006 46.743-54.035 85.088-85.241 76.677-62.399 190.132-133.355 322.19-198.056 132.058-64.701 257.658-110.869 353.958-133.218 48.158-11.177 88.933-16.383 119.503-14.998 15.285.693 27.965 3.031 37.726 7.06 9.752 4.025 16.53 9.71 20.139 17.077z" stroke="#fff" stroke-opacity=".5" stroke-width="2"/><path opacity=".759" d="M983.267 186.82c2.953 7.653 2.52 16.49-1.152 26.38-3.675 9.899-10.574 20.793-20.45 32.48-19.752 23.372-51.274 49.755-92.193 77.5-81.824 55.479-201.032 116.277-338.226 169.222-137.194 52.945-266.34 87.99-364.221 101.861-48.949 6.937-90.023 8.57-120.356 4.526-15.166-2.022-27.595-5.457-36.967-10.321-9.364-4.86-15.621-11.115-18.575-18.767-2.953-7.653-2.52-16.49 1.152-26.381 3.675-9.898 10.574-20.792 20.45-32.479 19.752-23.372 51.275-49.755 92.194-77.5 81.824-55.479 201.031-116.277 338.225-169.222 137.195-52.945 266.341-87.99 364.222-101.862 48.948-6.936 90.022-8.569 120.355-4.525 15.167 2.022 27.595 5.457 36.967 10.321 9.365 4.86 15.622 11.114 18.575 18.767z" stroke="#fff" stroke-opacity=".5" stroke-width="2"/><path opacity=".793" d="M999.086 226.656c2.274 7.881 1.074 16.646-3.447 26.179-4.524 9.541-12.346 19.792-23.203 30.573-21.714 21.562-55.416 45.098-98.597 69.17-86.348 48.137-210.401 98.314-351.687 139.1-141.287 40.787-272.996 64.443-371.714 69.73-49.367 2.644-90.427.691-120.291-5.981-14.933-3.337-27.015-7.842-35.927-13.504-8.905-5.658-14.593-12.434-16.869-20.315-2.275-7.881-1.073-16.646 3.447-26.179 4.524-9.541 12.346-19.792 23.203-30.573 21.714-21.563 55.416-45.098 98.597-69.17 86.348-48.137 210.401-98.314 351.688-139.1 141.286-40.787 272.995-64.443 371.713-69.73 49.367-2.644 90.427-.691 120.291 5.981 14.933 3.337 27.015 7.842 35.927 13.504 8.905 5.657 14.594 12.433 16.869 20.315z" stroke="#fff" stroke-opacity=".5" stroke-width="2"/><path opacity=".828" d="M1011.02 267.612c1.58 8.049-.38 16.676-5.72 25.779-5.336 9.11-14.022 18.641-25.777 28.435-23.511 19.588-59.136 40.096-104.251 60.313-90.214 40.428-218.168 79.602-362.472 107.919-144.304 28.318-277.574 40.405-376.376 37.068-49.41-1.668-90.144-7.193-119.313-16.443-14.585-4.625-26.228-10.166-34.613-16.583-8.379-6.412-13.454-13.658-15.034-21.708-1.58-8.049.382-16.676 5.715-25.779 5.338-9.11 14.024-18.641 25.78-28.435 23.51-19.588 59.135-40.096 104.25-60.313 90.215-40.428 218.169-79.602 362.472-107.919 144.304-28.318 277.574-40.405 376.376-37.068 49.41 1.668 90.144 7.193 119.313 16.443 14.585 4.625 26.228 10.166 34.613 16.583 8.377 6.412 13.457 13.658 15.037 21.708z" stroke="#fff" stroke-opacity=".5" stroke-width="2"/><path opacity=".862" d="M1018.98 309.349c.87 8.157-1.84 16.58-7.94 25.183-6.12 8.61-15.598 17.348-28.163 26.08-25.128 17.464-62.405 34.789-109.11 50.998-93.395 32.411-224.277 60.284-370.499 75.917-146.223 15.632-280.039 16.058-378.175 4.123-49.076-5.969-89.173-15.022-117.425-26.779-14.127-5.879-25.243-12.414-33.036-19.537-7.788-7.118-12.213-14.779-13.085-22.936-.872-8.156 1.834-16.579 7.94-25.183 6.112-8.61 15.595-17.347 28.16-26.079 25.128-17.464 62.405-34.79 109.11-50.998 93.395-32.412 224.276-60.285 370.499-75.917 146.223-15.633 280.039-16.058 378.174-4.123 49.077 5.968 89.174 15.021 117.426 26.779 14.127 5.878 25.242 12.413 33.034 19.537 7.79 7.118 12.21 14.779 13.09 22.935z" stroke="#fff" stroke-opacity=".5" stroke-width="2"/><path opacity=".897" d="M1022.91 351.516c.16 8.202-3.27 16.357-10.1 24.395-6.84 8.045-17.049 15.922-30.327 23.526-26.555 15.208-65.2 29.218-113.14 41.295-95.865 24.148-228.677 40.508-375.706 43.337-147.029 2.829-280.372-8.41-377.095-28.853-48.369-10.223-87.525-22.737-114.644-36.911-13.56-7.088-24.065-14.567-31.208-22.342-7.138-7.77-10.878-15.787-11.036-23.989-.158-8.201 3.272-16.357 10.105-24.395 6.839-8.045 17.047-15.922 30.325-23.526 26.555-15.208 65.2-29.218 113.14-41.294 95.864-24.149 228.677-40.509 375.706-43.337 147.029-2.829 280.372 8.409 377.095 28.852 48.369 10.223 87.524 22.737 114.644 36.911 13.561 7.088 24.061 14.567 31.211 22.343 7.13 7.769 10.88 15.787 11.03 23.988z" stroke="#fff" stroke-opacity=".5" stroke-width="2"/><path opacity=".931" d="M1022.8 393.76c-.55 8.184-4.68 16.009-12.19 23.422-7.51 7.418-18.369 14.375-32.259 20.793-27.779 12.835-67.499 23.424-116.309 31.276-97.604 15.702-231.337 20.424-378.053 10.428-146.716-9.997-278.573-32.814-373.145-61.609-47.294-14.4-85.21-30.278-110.992-46.763-12.89-8.243-22.703-16.608-29.141-24.977-6.433-8.362-9.461-16.675-8.904-24.859.558-8.184 4.685-16.01 12.193-23.422 7.514-7.418 18.37-14.376 32.26-20.793 27.78-12.836 67.499-23.425 116.309-31.277 97.604-15.701 231.337-20.423 378.053-10.427 146.716 9.996 278.573 32.814 373.145 61.609 47.294 14.4 85.21 30.278 110.992 46.763 12.891 8.242 22.701 16.608 29.141 24.977 6.43 8.362 9.46 16.675 8.9 24.859z" stroke="#fff" stroke-opacity=".5" stroke-width="2"/><path opacity=".966" d="M1018.66 435.731c-1.27 8.104-6.07 15.54-14.19 22.27-8.134 6.735-19.555 12.72-33.951 17.903-28.792 10.365-69.283 17.452-118.592 21.02-98.601 7.134-232.237.183-377.524-22.562-145.286-22.746-274.652-56.968-366.355-93.896-45.86-18.467-82.247-37.59-106.494-56.259-12.123-9.334-21.17-18.524-26.853-27.422-5.68-8.891-7.972-17.436-6.703-25.54 1.269-8.104 6.062-15.54 14.188-22.27 8.131-6.735 19.553-12.72 33.95-17.903 28.791-10.365 69.282-17.452 118.591-21.02 98.601-7.135 232.237-.183 377.523 22.562 145.287 22.745 274.653 56.968 366.356 93.896 45.859 18.467 82.247 37.59 106.493 56.259 12.124 9.334 21.171 18.523 26.851 27.421 5.68 8.891 7.97 17.437 6.71 25.541z" stroke="#fff" stroke-opacity=".5" stroke-width="2"/><path d="M1010.51 477.074c-1.97 7.963-7.39 14.953-16.074 20.949-8.688 6-20.588 10.967-35.381 14.875-29.586 7.817-70.541 11.348-119.973 10.605-98.848-1.486-231.369-20.058-374.12-55.38-142.751-35.321-268.642-80.689-356.778-125.468-44.075-22.394-78.658-44.615-101.185-65.326-11.264-10.356-19.474-20.299-24.362-29.658-4.883-9.353-6.421-18.065-4.45-26.028 1.97-7.963 7.393-14.952 16.074-20.948 8.688-6.001 20.587-10.968 35.38-14.876 29.586-7.817 70.541-11.348 119.973-10.604 98.848 1.486 231.369 20.058 374.12 55.379 142.752 35.321 268.643 80.689 356.778 125.469 44.076 22.393 78.658 44.615 101.185 65.326 11.264 10.355 19.473 20.298 24.363 29.658 4.88 9.352 6.42 18.064 4.45 26.027z" stroke="#fff" stroke-opacity=".5" stroke-width="2"/></g><mask id="b" style="mask-type:alpha" maskUnits="userSpaceOnUse" x="62" y="180" width="956" height="618"><path d="M879.647 222.54c81.944 50.452 134.663 155.376 137.633 264.13 2.9 108.582-43.963 220.996-128.64 270.144-84.753 48.978-207.372 34.814-306.064 32.993-98.863-1.746-173.846 8.974-270.464 7.667-96.666-1.183-214.844-14.345-243.007-76.871-28.04-62.478 33.763-174.245 86.788-251.063 52.9-76.865 96.974-118.659 138.475-151.932 41.501-33.273 80.677-57.93 127.176-79.482 46.575-21.38 100.473-39.656 182.981-50.742 82.431-11.257 193.35-15.372 275.122 35.156z" fill="url(#paint2_linear_526_2901)" fill-opacity=".5"/></mask><g mask="url(#b)"><g filter="url(#filter1_d_526_2901)"><path d="M879.647 222.54c81.944 50.452 134.663 155.376 137.633 264.13 2.9 108.582-43.963 220.996-128.64 270.144-84.753 48.978-207.372 34.814-306.064 32.993-98.863-1.746-173.846 8.974-270.464 7.667-96.666-1.183-214.844-14.345-243.007-76.871-28.04-62.478 33.763-174.245 86.788-251.063 52.9-76.865 96.974-118.659 138.475-151.932 41.501-33.273 80.677-57.93 127.176-79.482 46.575-21.38 100.473-39.656 182.981-50.742 82.431-11.257 193.35-15.372 275.122 35.156z" fill="url(#paint3_linear_526_2901)" fill-opacity=".5" shape-rendering="crispEdges"/></g><path opacity=".034" d="M152.435 35.346c6.628-4.834 15.276-6.702 25.78-5.715 10.512.987 22.82 4.831 36.665 11.347 27.688 13.03 61.331 36.65 98.721 68.993 74.766 64.677 164.346 164.087 250.995 282.903 86.65 118.816 153.926 234.491 192.658 325.447 19.369 45.486 31.578 84.737 35.522 115.083 1.972 15.174 1.87 28.068-.402 38.379-2.271 10.303-6.693 17.966-13.32 22.799-6.628 4.834-15.276 6.702-25.78 5.715-10.512-.987-22.82-4.832-36.665-11.347-27.688-13.029-61.331-36.649-98.72-68.993-74.767-64.677-164.346-164.087-250.996-282.903-86.65-118.817-153.926-234.492-192.658-325.447-19.369-45.486-31.577-84.738-35.522-115.083-1.972-15.174-1.87-28.068.402-38.379 2.271-10.303 6.693-17.966 13.32-22.8z" stroke="#fff" stroke-opacity=".5" stroke-width="2"/><path opacity=".069" d="M192.092 5.546C199.116 1.31 207.893.201 218.271 2.1c10.387 1.9 22.313 6.802 35.537 14.5 26.448 15.392 57.904 41.855 92.332 77.334 68.845 70.947 149.419 177.786 225.384 303.703 75.964 125.916 132.903 247.014 163.56 341 15.331 47 24.072 87.166 25.356 117.74.642 15.288-.582 28.124-3.745 38.198-3.16 10.066-8.233 17.314-15.256 21.552-7.024 4.237-15.802 5.345-26.18 3.446-10.386-1.9-22.313-6.802-35.537-14.499-26.447-15.393-57.903-41.856-92.331-77.335-68.846-70.947-149.42-177.786-225.384-303.702-75.965-125.917-132.903-247.015-163.561-341-15.331-47.001-24.072-87.167-25.356-117.741-.642-15.288.583-28.124 3.745-38.198 3.16-10.066 8.233-17.314 15.257-21.552z" stroke="#fff" stroke-opacity=".5" stroke-width="2"/><path opacity=".103" d="M233.84-20.79c7.367-3.609 16.207-3.947 26.381-1.151 10.181 2.798 21.634 8.721 34.138 17.541 25.005 17.64 54.035 46.743 85.24 85.088 62.399 76.677 133.356 190.133 198.057 322.19 64.7 132.058 110.868 257.658 133.217 353.958 11.177 48.158 16.384 88.933 14.998 119.503-.692 15.285-3.031 27.966-7.06 37.726-4.025 9.752-9.71 16.53-17.077 20.14-7.366 3.609-16.207 3.947-26.38 1.151-10.181-2.798-21.635-8.721-34.138-17.541-25.005-17.64-54.035-46.743-85.24-85.088-62.4-76.677-133.356-190.132-198.057-322.19S247.051 252.879 224.701 156.579c-11.176-48.158-16.383-88.933-14.997-119.502.692-15.286 3.031-27.966 7.06-37.727 4.025-9.752 9.71-16.53 17.076-20.14z" stroke="#fff" stroke-opacity=".5" stroke-width="2"/><path opacity=".138" d="M277.368-43.491c7.653-2.953 16.49-2.52 26.381 1.152 9.898 3.675 20.792 10.573 32.479 20.45 23.372 19.752 49.755 51.274 77.5 92.193 55.479 81.824 116.277 201.032 169.222 338.226 52.945 137.194 87.99 266.34 101.862 364.221 6.936 48.949 8.569 90.023 4.525 120.355-2.022 15.167-5.457 27.596-10.321 36.968-4.86 9.364-11.114 15.621-18.767 18.574-7.653 2.954-16.49 2.521-26.381-1.151-9.898-3.675-20.792-10.574-32.479-20.45-23.372-19.752-49.755-51.275-77.5-92.194-55.479-81.824-116.277-201.031-169.222-338.226-52.945-137.194-87.99-266.34-101.861-364.221-6.937-48.949-8.57-90.023-4.526-120.355 2.022-15.167 5.457-27.595 10.321-36.967 4.86-9.365 11.115-15.622 18.767-18.575z" stroke="#fff" stroke-opacity=".5" stroke-width="2"/><path opacity=".172" d="M322.354-62.417c7.881-2.275 16.646-1.073 26.179 3.447 9.541 4.523 19.792 12.346 30.573 23.203 21.563 21.714 45.098 55.416 69.17 98.597 48.137 86.348 98.314 210.401 139.1 351.687 40.787 141.287 64.443 272.996 69.73 371.713 2.644 49.367.691 90.428-5.981 120.292-3.337 14.933-7.842 27.015-13.504 35.927-5.657 8.905-12.433 14.593-20.315 16.869-7.881 2.275-16.646 1.073-26.179-3.447-9.541-4.524-19.792-12.346-30.573-23.203-21.562-21.714-45.098-55.416-69.17-98.597-48.137-86.348-98.314-210.401-139.1-351.688-40.787-141.286-64.443-272.995-69.73-371.713-2.644-49.367-.691-90.427 5.981-120.291 3.337-14.933 7.842-27.015 13.504-35.927 5.658-8.905 12.434-14.594 20.315-16.869z" stroke="#fff" stroke-opacity=".5" stroke-width="2"/><path opacity=".207" d="M368.462-77.455c8.05-1.58 16.677.382 25.779 5.716 9.11 5.338 18.641 14.023 28.435 25.779 19.588 23.51 40.096 59.135 60.313 104.25 40.428 90.215 79.602 218.169 107.92 362.473 28.317 144.304 40.404 277.573 37.067 376.376-1.668 49.41-7.192 90.143-16.443 119.312-4.625 14.586-10.166 26.229-16.583 34.614-6.412 8.378-13.658 13.454-21.708 15.034-8.049 1.579-16.676-.382-25.779-5.716-9.11-5.338-18.641-14.023-28.435-25.779-19.587-23.51-40.096-59.136-60.313-104.25-40.428-90.215-79.602-218.169-107.919-362.473-28.318-144.304-40.404-277.573-37.068-376.376 1.669-49.41 7.193-90.143 16.443-119.313 4.625-14.585 10.166-26.228 16.583-34.613 6.413-8.378 13.659-13.454 21.708-15.034z" stroke="#fff" stroke-opacity=".5" stroke-width="2"/><path opacity=".241" d="M415.349-88.524c8.157-.872 16.58 1.834 25.183 7.94 8.61 6.112 17.348 15.595 26.08 28.16 17.464 25.128 34.789 62.405 50.998 109.11 32.411 93.395 60.284 224.276 75.917 370.499 15.632 146.223 16.058 280.039 4.123 378.175-5.969 49.076-15.022 89.173-26.779 117.425-5.879 14.127-12.414 25.243-19.537 33.036-7.118 7.788-14.779 12.213-22.936 13.085-8.156.872-16.579-1.834-25.183-7.94-8.61-6.112-17.347-15.595-26.079-28.16-17.464-25.128-34.79-62.405-50.998-109.11-32.412-93.395-60.285-224.276-75.917-370.499-15.633-146.223-16.058-280.039-4.123-378.175 5.968-49.076 15.021-89.173 26.779-117.425 5.878-14.127 12.413-25.243 19.537-33.036 7.118-7.788 14.779-12.213 22.935-13.085z" stroke="#fff" stroke-opacity=".5" stroke-width="2"/><path opacity=".276" d="M462.666-95.564c8.201-.158 16.356 3.271 24.395 10.105 8.045 6.838 15.922 17.047 23.526 30.325 15.207 26.555 29.218 65.2 41.294 113.14 24.148 95.864 40.508 228.677 43.337 375.706 2.829 147.028-8.41 280.372-28.853 377.094-10.223 48.37-22.736 87.525-36.911 114.645-7.088 13.561-14.566 24.065-22.342 31.208-7.77 7.137-15.787 10.878-23.989 11.036-8.201.158-16.356-3.272-24.395-10.105-8.045-6.839-15.922-17.048-23.526-30.325-15.207-26.555-29.218-65.2-41.294-113.14-24.148-95.865-40.508-228.677-43.337-375.706-2.829-147.029 8.41-280.373 28.853-377.095C389.647 12.954 402.16-26.2 416.335-53.32c7.087-13.56 14.566-24.064 22.342-31.207 7.77-7.138 15.787-10.878 23.989-11.036z" stroke="#fff" stroke-opacity=".5" stroke-width="2"/><path opacity=".31" d="M510.06-98.562c8.184.558 16.01 4.685 23.422 12.193 7.418 7.514 14.376 18.37 20.794 32.26C567.111-26.329 577.7 13.39 585.552 62.2c15.701 97.604 20.423 231.337 10.427 378.053-9.996 146.716-32.814 278.572-61.609 373.145-14.399 47.294-30.278 85.21-46.762 110.991-8.243 12.891-16.609 22.704-24.978 29.142-8.362 6.433-16.675 9.461-24.859 8.903-8.184-.557-16.009-4.685-23.421-12.193-7.418-7.513-14.376-18.37-20.794-32.26-12.835-27.779-23.424-67.498-31.276-116.308-15.701-97.604-20.423-231.337-10.427-378.053 9.996-146.716 32.814-278.573 61.609-373.146 14.399-47.294 30.278-85.21 46.762-110.99 8.243-12.892 16.609-22.704 24.977-29.143 8.363-6.433 16.675-9.46 24.859-8.903z" stroke="#fff" stroke-opacity=".5" stroke-width="2"/><path opacity=".345" d="M557.181-97.521c8.104 1.268 15.54 6.062 22.27 14.187 6.735 8.132 12.72 19.553 17.903 33.95 10.365 28.792 17.452 69.283 21.02 118.592 7.135 98.601.183 232.237-22.562 377.523-22.745 145.286-56.968 274.653-93.896 366.356-18.467 45.859-37.59 82.247-56.258 106.493-9.335 12.124-18.524 21.17-27.422 26.854-8.891 5.68-17.437 7.972-25.541 6.703-8.104-1.269-15.54-6.063-22.27-14.188-6.735-8.132-12.72-19.553-17.902-33.95-10.366-28.792-17.453-69.283-21.021-118.591-7.134-98.602-.183-232.237 22.562-377.524 22.746-145.286 56.969-274.652 93.896-366.355 18.467-45.86 37.59-82.247 56.259-106.494 9.334-12.123 18.524-21.17 27.422-26.854 8.891-5.68 17.436-7.971 25.54-6.702z" stroke="#fff" stroke-opacity=".5" stroke-width="2"/><path opacity=".379" d="M603.675-92.485c7.963 1.97 14.953 7.394 20.949 16.075 6.001 8.688 10.967 20.587 14.876 35.38 7.816 29.587 11.347 70.541 10.604 119.973-1.486 98.848-20.058 231.37-55.379 374.121-35.322 142.751-80.689 268.642-125.469 356.778-22.394 44.075-44.615 78.657-65.326 101.185-10.356 11.264-20.298 19.474-29.658 24.361-9.352 4.884-18.065 6.422-26.027 4.452-7.963-1.971-14.953-7.394-20.949-16.075-6.001-8.688-10.967-20.588-14.876-35.381-7.816-29.586-11.347-70.54-10.604-119.972 1.486-98.848 20.058-231.37 55.379-374.121 35.322-142.751 80.689-268.642 125.469-356.778 22.394-44.075 44.615-78.657 65.326-101.185 10.356-11.264 20.298-19.474 29.658-24.362 9.352-4.883 18.065-6.42 26.027-4.45z" stroke="#fff" stroke-opacity=".5" stroke-width="2"/><path opacity=".414" d="M649.198-83.52c7.761 2.657 14.251 8.67 19.468 17.84 5.22 9.178 9.131 21.465 11.735 36.542 5.209 30.155 5.157 71.261.108 120.44-10.096 98.343-40.147 228.741-87.775 367.871-47.629 139.129-103.796 260.587-156.087 344.485-26.15 41.955-51.301 74.47-73.896 95.106-11.298 10.319-21.919 17.631-31.669 21.684-9.742 4.05-18.555 4.823-26.316 2.166-7.761-2.657-14.251-8.669-19.468-17.839-5.22-9.178-9.131-21.465-11.735-36.543-5.208-30.154-5.157-71.261-.108-120.44 10.096-98.342 40.147-228.741 87.776-367.87 47.628-139.13 103.795-260.588 156.086-344.485 26.15-41.956 51.301-74.47 73.896-95.107 11.298-10.318 21.919-17.63 31.669-21.684 9.742-4.05 18.555-4.822 26.316-2.166z" stroke="#fff" stroke-opacity=".5" stroke-width="2"/><path opacity=".448" d="M693.409-70.724c7.5 3.323 13.442 9.877 17.839 19.468 4.401 9.598 7.226 22.179 8.506 37.426 2.56 30.494-1.074 71.44-10.39 119.992-18.628 97.088-59.93 224.371-119.503 358.82-59.573 134.449-126.112 250.549-185.517 329.57-29.706 39.517-57.595 69.715-81.904 88.304-12.154 9.294-23.371 15.654-33.437 18.841-10.058 3.186-18.906 3.188-26.405-.136-7.5-3.323-13.442-9.877-17.839-19.468-4.401-9.598-7.226-22.179-8.506-37.426-2.56-30.494 1.074-71.439 10.39-119.991 18.628-97.089 59.93-224.372 119.503-358.821 59.573-134.448 126.112-250.549 185.516-329.57 29.707-39.517 57.596-69.715 81.904-88.304 12.155-9.294 23.372-15.654 33.438-18.841 10.058-3.186 18.905-3.188 26.405.136z" stroke="#fff" stroke-opacity=".5" stroke-width="2"/><path opacity=".483" d="M735.981-54.228c7.182 3.964 12.53 11.012 16.074 20.949 3.548 9.945 5.266 22.724 5.212 38.025-.107 30.601-7.296 71.074-20.808 118.629-27.019 95.096-79.258 218.295-150.322 347.04-71.065 128.745-147.47 238.604-213.535 312.147-33.038 36.778-63.452 64.43-89.288 80.83-12.918 8.199-24.647 13.557-34.953 15.855-10.297 2.297-19.111 1.527-26.293-2.437-7.181-3.964-12.529-11.011-16.074-20.948-3.547-9.945-5.265-22.725-5.212-38.026.108-30.601 7.297-71.074 20.809-118.629 27.019-95.095 79.257-218.294 150.322-347.039C442.977 223.423 519.382 113.563 585.447 40.02c33.038-36.777 63.453-64.43 89.289-80.83 12.918-8.2 24.647-13.556 34.952-15.855 10.298-2.296 19.111-1.527 26.293 2.437z" stroke="#fff" stroke-opacity=".5" stroke-width="2"/><path opacity=".517" d="M776.598-34.19c6.808 4.574 11.522 12.061 14.187 22.27 2.667 10.216 3.265 23.096 1.878 38.334-2.774 30.475-13.463 70.168-31.069 116.364-35.204 92.379-97.981 210.556-179.996 332.618-82.015 122.061-167.704 224.844-239.927 292.348-36.118 33.758-68.827 58.655-95.994 72.74-13.584 7.043-25.735 11.358-36.201 12.749-10.459 1.39-19.172-.144-25.981-4.719-6.808-4.575-11.522-12.062-14.187-22.27-2.667-10.216-3.265-23.097-1.878-38.335 2.774-30.475 13.463-70.167 31.069-116.364 35.204-92.378 97.981-210.556 179.996-332.617 82.015-122.062 167.704-224.844 239.927-292.35 36.118-33.757 68.827-58.654 95.994-72.739C728-33.204 740.151-37.519 750.617-38.91c10.459-1.39 19.172.144 25.981 4.72z" stroke="#fff" stroke-opacity=".5" stroke-width="2"/><path opacity=".552" d="M814.957-10.793c6.384 5.151 10.427 13.02 12.192 23.422 1.767 10.41 1.239 23.294-1.471 38.353-5.419 30.117-19.527 68.727-41.091 113.213-43.122 88.959-115.96 201.215-208.301 315.664-92.342 114.449-186.663 209.372-264.495 270.326-38.922 30.481-73.677 52.433-101.967 64.096-14.146 5.832-26.627 9.072-37.175 9.545-10.54.474-19.086-1.814-25.47-6.965-6.385-5.151-10.428-13.02-12.193-23.422-1.767-10.41-1.239-23.293 1.471-38.353 5.419-30.117 19.527-68.726 41.091-113.213 43.122-88.959 115.96-201.215 208.301-315.664C478.191 211.76 572.512 116.837 650.344 55.884 689.266 25.402 724.021 3.45 752.311-8.213c14.146-5.832 26.627-9.071 37.176-9.545 10.539-.474 19.085 1.814 25.47 6.965z" stroke="#fff" stroke-opacity=".5" stroke-width="2"/><path opacity=".586" d="M850.775 15.753c5.911 5.688 9.253 13.88 10.105 24.395.853 10.524-.796 23.313-4.808 38.079-8.023 29.53-25.443 66.763-50.802 109.201-50.711 84.862-133.056 190.343-235.021 296.308C468.285 589.702 366.05 676.043 283.201 729.98c-41.431 26.974-77.966 45.813-107.166 54.966-14.6 4.577-27.316 6.716-37.865 6.269-10.541-.447-18.856-3.471-24.766-9.159-5.911-5.687-9.253-13.879-10.105-24.395-.853-10.524.796-23.313 4.808-38.079 8.023-29.53 25.442-66.763 50.802-109.201 50.711-84.862 133.056-190.343 235.02-296.308 101.965-105.965 204.2-192.307 287.048-246.244 41.431-26.974 77.967-45.813 107.167-54.966 14.6-4.577 27.316-6.716 37.865-6.27 10.541.448 18.855 3.472 24.766 9.16z" stroke="#fff" stroke-opacity=".5" stroke-width="2"/><path opacity=".621" d="M883.788 45.216c5.392 6.181 8.008 14.633 7.94 25.183-.068 10.559-2.825 23.155-8.108 37.515-10.567 28.718-31.165 64.292-60.127 104.358-57.914 80.119-149.139 178.022-259.951 274.697-110.812 96.675-220.183 173.778-307.417 220.29-43.625 23.259-81.663 38.842-111.549 45.416-14.944 3.287-27.798 4.31-38.268 2.945-10.462-1.364-18.481-5.101-23.874-11.283-5.392-6.181-8.007-14.633-7.94-25.183.068-10.558 2.825-23.155 8.108-37.515 10.567-28.718 31.165-64.291 60.127-104.358 57.914-80.119 149.139-178.021 259.951-274.697 110.812-96.675 220.183-173.777 307.417-220.29 43.625-23.259 81.663-38.842 111.549-45.416 14.944-3.287 27.798-4.31 38.268-2.944 10.462 1.363 18.481 5.1 23.874 11.282z" stroke="#fff" stroke-opacity=".5" stroke-width="2"/><path opacity=".655" d="M913.752 77.337c4.833 6.628 6.701 15.275 5.715 25.78-.988 10.512-4.832 22.82-11.347 36.665-13.03 27.688-36.65 61.331-68.994 98.72-64.677 74.767-164.087 164.346-282.903 250.996-118.816 86.65-234.491 153.926-325.447 192.658-45.486 19.369-84.737 31.577-115.083 35.521-15.173 1.973-28.067 1.871-38.379-.401-10.303-2.271-17.966-6.693-22.8-13.32-4.833-6.628-6.701-15.276-5.714-25.78.988-10.512 4.832-22.82 11.347-36.665 13.03-27.688 36.65-61.331 68.993-98.721 64.677-74.766 164.087-164.346 282.903-250.995C530.86 205.145 646.535 137.869 737.49 99.137c45.486-19.37 84.738-31.578 115.083-35.522 15.174-1.972 28.068-1.87 38.379.402 10.303 2.27 17.966 6.692 22.8 13.32z" stroke="#fff" stroke-opacity=".5" stroke-width="2"/><path opacity=".69" d="M940.445 111.845c4.237 7.024 5.345 15.801 3.446 26.179-1.9 10.387-6.802 22.313-14.499 35.537-15.393 26.448-41.856 57.904-77.335 92.332-70.947 68.845-177.786 149.42-303.702 225.384-125.917 75.964-247.015 132.903-341 163.56-47.001 15.331-87.167 24.072-117.741 25.356-15.288.643-28.124-.582-38.198-3.745-10.066-3.16-17.314-8.233-21.552-15.256-4.237-7.024-5.345-15.802-3.446-26.18 1.9-10.386 6.802-22.312 14.5-35.537 15.392-26.447 41.855-57.903 77.334-92.331 70.947-68.845 177.786-149.42 303.703-225.384 125.916-75.964 247.014-132.903 340.999-163.56 47.001-15.332 87.167-24.072 117.741-25.357 15.288-.642 28.124.583 38.198 3.745 10.066 3.16 17.314 8.233 21.552 15.257z" stroke="#fff" stroke-opacity=".5" stroke-width="2"/><path opacity=".724" d="M963.673 148.443c3.609 7.366 3.948 16.207 1.152 26.38-2.799 10.181-8.722 21.635-17.542 34.138-17.639 25.005-46.743 54.035-85.088 85.24-76.677 62.4-190.132 133.356-322.19 198.057S282.347 603.126 186.048 625.476c-48.158 11.176-88.934 16.383-119.503 14.998-15.285-.693-27.966-3.032-37.726-7.06-9.752-4.026-16.53-9.711-20.14-17.077-3.61-7.367-3.948-16.207-1.152-26.381 2.798-10.181 8.722-21.634 17.542-34.137 17.64-25.006 46.743-54.035 85.088-85.241 76.677-62.399 190.132-133.355 322.19-198.056 132.058-64.701 257.658-110.869 353.957-133.218 48.158-11.177 88.934-16.383 119.503-14.998 15.285.693 27.966 3.031 37.726 7.06 9.752 4.025 16.531 9.71 20.14 17.077z" stroke="#fff" stroke-opacity=".5" stroke-width="2"/><path opacity=".759" d="M983.268 186.82c2.953 7.653 2.52 16.49-1.152 26.38-3.675 9.899-10.574 20.793-20.45 32.48-19.752 23.372-51.275 49.755-92.194 77.5-81.824 55.479-201.031 116.277-338.226 169.222-137.194 52.945-266.34 87.99-364.221 101.861-48.949 6.937-90.023 8.57-120.355 4.526-15.167-2.022-27.595-5.457-36.967-10.321-9.365-4.86-15.622-11.115-18.575-18.767-2.954-7.653-2.52-16.49 1.152-26.381 3.675-9.898 10.573-20.792 20.45-32.479 19.752-23.372 51.274-49.755 92.193-77.5 81.824-55.479 201.032-116.277 338.226-169.222 137.194-52.945 266.34-87.99 364.221-101.862 48.949-6.936 90.023-8.569 120.355-4.525 15.167 2.022 27.596 5.457 36.968 10.321 9.364 4.86 15.621 11.114 18.575 18.767z" stroke="#fff" stroke-opacity=".5" stroke-width="2"/><path opacity=".793" d="M999.086 226.656c2.274 7.881 1.074 16.646-3.446 26.179-4.524 9.541-12.346 19.792-23.203 30.573-21.714 21.562-55.416 45.098-98.597 69.17-86.348 48.137-210.401 98.314-351.688 139.1-141.287 40.787-272.995 64.443-371.713 69.73-49.367 2.644-90.427.691-120.292-5.981-14.932-3.337-27.014-7.842-35.927-13.504-8.905-5.658-14.593-12.434-16.868-20.315-2.275-7.881-1.073-16.646 3.447-26.179 4.523-9.541 12.345-19.792 23.202-30.573 21.714-21.563 55.416-45.098 98.598-69.17 86.347-48.137 210.4-98.314 351.687-139.1 141.287-40.787 272.996-64.443 371.713-69.73 49.367-2.644 90.427-.691 120.292 5.981 14.933 3.337 27.014 7.842 35.927 13.504 8.905 5.657 14.593 12.433 16.868 20.315z" stroke="#fff" stroke-opacity=".5" stroke-width="2"/><path opacity=".828" d="M1011.02 267.612c1.58 8.049-.38 16.676-5.72 25.779-5.336 9.11-14.021 18.641-25.777 28.435-23.51 19.588-59.135 40.096-104.25 60.313-90.215 40.428-218.169 79.602-362.473 107.919-144.304 28.318-277.573 40.405-376.376 37.068-49.41-1.668-90.143-7.193-119.313-16.443-14.585-4.625-26.228-10.166-34.613-16.583-8.378-6.412-13.454-13.658-15.034-21.708-1.58-8.049.382-16.676 5.716-25.779 5.338-9.11 14.023-18.641 25.779-28.435 23.51-19.588 59.135-40.096 104.25-60.313 90.215-40.428 218.169-79.602 362.473-107.919 144.304-28.318 277.573-40.405 376.376-37.068 49.41 1.668 90.143 7.193 119.313 16.443 14.585 4.625 26.228 10.166 34.613 16.583 8.376 6.412 13.456 13.658 15.036 21.708z" stroke="#fff" stroke-opacity=".5" stroke-width="2"/><path opacity=".862" d="M1018.98 309.349c.87 8.157-1.84 16.58-7.94 25.183-6.11 8.61-15.598 17.348-28.162 26.08-25.129 17.464-62.406 34.789-109.111 50.998-93.395 32.411-224.276 60.284-370.499 75.917-146.223 15.632-280.038 16.058-378.174 4.123-49.076-5.969-89.173-15.022-117.426-26.779-14.126-5.879-25.242-12.414-33.036-19.537-7.787-7.118-12.213-14.779-13.085-22.936-.872-8.156 1.834-16.579 7.94-25.183 6.112-8.61 15.596-17.347 28.16-26.079 25.128-17.464 62.405-34.79 109.11-50.998 93.395-32.412 224.277-60.285 370.5-75.917 146.222-15.633 280.038-16.058 378.174-4.123 49.076 5.968 89.173 15.021 117.425 26.779 14.127 5.878 25.243 12.413 33.034 19.537 7.79 7.118 12.22 14.779 13.09 22.935z" stroke="#fff" stroke-opacity=".5" stroke-width="2"/><path opacity=".897" d="M1022.91 351.516c.16 8.202-3.27 16.357-10.1 24.395-6.84 8.045-17.049 15.922-30.327 23.526-26.554 15.208-65.2 29.218-113.14 41.295-95.864 24.148-228.677 40.508-375.705 43.337-147.029 2.829-280.373-8.41-377.095-28.853-48.37-10.223-87.525-22.737-114.645-36.911-13.56-7.088-24.064-14.567-31.208-22.342-7.137-7.77-10.878-15.787-11.036-23.989-.157-8.201 3.272-16.357 10.105-24.395 6.84-8.045 17.048-15.922 30.326-23.526 26.554-15.208 65.2-29.218 113.14-41.294 95.864-24.149 228.676-40.509 375.705-43.337 147.029-2.829 280.373 8.409 377.095 28.852 48.369 10.223 87.525 22.737 114.645 36.911 13.56 7.088 24.06 14.567 31.21 22.343 7.14 7.769 10.88 15.787 11.03 23.988z" stroke="#fff" stroke-opacity=".5" stroke-width="2"/><path opacity=".931" d="M1022.8 393.76c-.55 8.184-4.68 16.009-12.19 23.422-7.51 7.418-18.369 14.375-32.259 20.793-27.779 12.835-67.498 23.424-116.308 31.276-97.605 15.702-231.338 20.424-378.054 10.428-146.715-9.997-278.572-32.814-373.145-61.609-47.294-14.4-85.21-30.278-110.991-46.763-12.891-8.243-22.704-16.608-29.142-24.977-6.433-8.362-9.46-16.675-8.903-24.859.558-8.184 4.685-16.01 12.193-23.422 7.514-7.418 18.37-14.376 32.26-20.793 27.779-12.836 67.498-23.425 116.308-31.277 97.605-15.701 231.338-20.423 378.054-10.427 146.715 9.996 278.572 32.814 373.145 61.609 47.294 14.4 85.21 30.278 110.991 46.763 12.891 8.242 22.701 16.608 29.141 24.977 6.43 8.362 9.46 16.675 8.9 24.859z" stroke="#fff" stroke-opacity=".5" stroke-width="2"/><path opacity=".966" d="M1018.66 435.731c-1.27 8.104-6.07 15.54-14.19 22.27-8.133 6.735-19.554 12.72-33.951 17.903-28.792 10.365-69.283 17.452-118.592 21.02-98.601 7.134-232.237.183-377.523-22.562-145.286-22.746-274.653-56.968-366.356-93.896-45.859-18.467-82.247-37.59-106.493-56.259-12.124-9.334-21.17-18.524-26.854-27.422-5.68-8.891-7.971-17.436-6.703-25.54 1.269-8.104 6.063-15.54 14.188-22.27 8.132-6.735 19.553-12.72 33.95-17.903 28.792-10.365 69.283-17.452 118.591-21.02 98.602-7.135 232.237-.183 377.524 22.562 145.286 22.745 274.652 56.968 366.355 93.896 45.86 18.467 82.247 37.59 106.494 56.259 12.123 9.334 21.17 18.523 26.85 27.421 5.68 8.891 7.98 17.437 6.71 25.541z" stroke="#fff" stroke-opacity=".5" stroke-width="2"/><path d="M1010.51 477.074c-1.97 7.963-7.39 14.953-16.074 20.949-8.688 6-20.587 10.967-35.381 14.875-29.586 7.817-70.54 11.348-119.972 10.605-98.848-1.486-231.369-20.058-374.121-55.38-142.751-35.321-268.642-80.689-356.778-125.468C64.109 320.261 29.527 298.04 7 277.329c-11.264-10.356-19.475-20.299-24.362-29.658-4.884-9.353-6.422-18.065-4.451-26.028 1.97-7.963 7.393-14.952 16.074-20.948 8.688-6.001 20.588-10.968 35.381-14.876 29.586-7.817 70.54-11.348 119.973-10.604 98.847 1.486 231.369 20.058 374.12 55.379s268.642 80.689 356.778 125.469c44.075 22.393 78.658 44.615 101.185 65.326 11.264 10.355 19.472 20.298 24.362 29.658 4.88 9.352 6.42 18.064 4.45 26.027z" stroke="#fff" stroke-opacity=".5" stroke-width="2"/></g><mask id="c" style="mask-type:alpha" maskUnits="userSpaceOnUse" x="193" y="164" width="632" height="645"><path d="M822.182 637.404c11.685 68.212-19.558 145.986-79.266 165.532-59.756 19.447-147.977-19.334-211.087-42.241-63.11-22.907-101.008-29.989-143.265-42.495-42.305-12.606-88.968-30.636-112.063-64.782-23.043-34.294-22.47-84.604-42.231-163.108-19.81-78.605-59.805-185.353-30.634-240.38 29.223-55.176 127.761-58.58 223.967-70.365 96.206-11.786 190.127-31.853 235.373 12.312 45.197 44.065 41.669 152.263 67.238 235.612 25.568 83.35 80.183 141.752 91.968 209.915z" fill="url(#paint4_linear_526_2901)"/></mask><g mask="url(#c)"><g filter="url(#filter2_d_526_2901)"><path d="M822.182 637.404c11.685 68.212-19.558 145.986-79.266 165.532-59.756 19.447-147.977-19.334-211.087-42.241-63.11-22.907-101.008-29.989-143.265-42.495-42.305-12.606-88.968-30.636-112.063-64.782-23.043-34.294-22.47-84.604-42.231-163.108-19.81-78.605-59.805-185.353-30.634-240.38 29.223-55.176 127.761-58.58 223.967-70.365 96.206-11.786 190.127-31.853 235.373 12.312 45.197 44.065 41.669 152.263 67.238 235.612 25.568 83.35 80.183 141.752 91.968 209.915z" fill="url(#paint5_linear_526_2901)"/></g><path opacity=".034" d="M152.434 35.346c6.628-4.834 15.276-6.702 25.78-5.715 10.512.987 22.82 4.831 36.665 11.347 27.688 13.03 61.331 36.65 98.721 68.993 74.766 64.677 164.346 164.087 250.995 282.903 86.65 118.816 153.926 234.491 192.658 325.447 19.369 45.486 31.578 84.737 35.522 115.083 1.972 15.174 1.87 28.068-.402 38.379-2.271 10.303-6.692 17.966-13.32 22.799-6.628 4.834-15.276 6.702-25.78 5.715-10.512-.987-22.82-4.832-36.665-11.347-27.688-13.029-61.331-36.649-98.72-68.993-74.767-64.677-164.346-164.087-250.996-282.903-86.65-118.817-153.926-234.492-192.658-325.447-19.369-45.486-31.577-84.738-35.522-115.083-1.972-15.174-1.87-28.068.402-38.379 2.271-10.303 6.693-17.966 13.32-22.8z" stroke="#fff" stroke-opacity=".5" stroke-width="2"/><path opacity=".069" d="M192.091 5.546C199.115 1.31 207.892.201 218.27 2.1c10.387 1.9 22.313 6.802 35.537 14.5 26.448 15.392 57.904 41.855 92.332 77.334 68.845 70.947 149.419 177.786 225.384 303.703 75.964 125.916 132.903 247.014 163.56 341 15.331 47 24.072 87.166 25.356 117.74.642 15.288-.582 28.124-3.745 38.198-3.16 10.066-8.233 17.314-15.256 21.552-7.024 4.237-15.802 5.345-26.18 3.446-10.386-1.9-22.313-6.802-35.537-14.499-26.447-15.393-57.903-41.856-92.331-77.335-68.846-70.947-149.42-177.786-225.384-303.702-75.965-125.917-132.903-247.015-163.561-341-15.331-47.001-24.071-87.167-25.356-117.741-.642-15.288.583-28.124 3.745-38.198 3.16-10.066 8.233-17.314 15.257-21.552z" stroke="#fff" stroke-opacity=".5" stroke-width="2"/><path opacity=".103" d="M233.839-20.79c7.367-3.609 16.207-3.947 26.381-1.151 10.181 2.798 21.635 8.721 34.138 17.541 25.005 17.64 54.035 46.743 85.24 85.088 62.399 76.677 133.356 190.133 198.057 322.19 64.7 132.058 110.868 257.658 133.217 353.958 11.177 48.158 16.384 88.933 14.998 119.503-.692 15.285-3.031 27.966-7.06 37.726-4.025 9.752-9.71 16.53-17.077 20.14-7.366 3.609-16.207 3.947-26.38 1.151-10.181-2.798-21.635-8.721-34.138-17.541-25.005-17.64-54.035-46.743-85.24-85.088-62.4-76.677-133.356-190.132-198.057-322.19S247.05 252.879 224.701 156.579c-11.177-48.158-16.384-88.933-14.998-119.502.692-15.286 3.031-27.966 7.06-37.727 4.025-9.752 9.71-16.53 17.076-20.14z" stroke="#fff" stroke-opacity=".5" stroke-width="2"/><path opacity=".138" d="M277.367-43.491c7.653-2.953 16.49-2.52 26.381 1.152 9.898 3.675 20.792 10.573 32.479 20.45 23.372 19.752 49.755 51.274 77.5 92.193 55.479 81.824 116.277 201.032 169.222 338.226 52.945 137.194 87.99 266.34 101.862 364.221 6.936 48.949 8.569 90.023 4.525 120.355-2.022 15.167-5.457 27.596-10.321 36.968-4.86 9.364-11.114 15.621-18.767 18.574-7.653 2.954-16.49 2.521-26.38-1.151-9.899-3.675-20.793-10.574-32.48-20.45-23.372-19.752-49.755-51.275-77.5-92.194-55.479-81.824-116.277-201.031-169.222-338.226-52.945-137.194-87.99-266.34-101.861-364.221-6.937-48.949-8.57-90.023-4.526-120.355 2.022-15.167 5.458-27.595 10.321-36.967 4.86-9.365 11.115-15.622 18.767-18.575z" stroke="#fff" stroke-opacity=".5" stroke-width="2"/><path opacity=".172" d="M322.353-62.417c7.881-2.275 16.646-1.073 26.179 3.447 9.541 4.523 19.792 12.346 30.573 23.203 21.563 21.714 45.098 55.416 69.17 98.597 48.137 86.348 98.314 210.401 139.1 351.687 40.787 141.287 64.443 272.996 69.73 371.713 2.644 49.367.692 90.428-5.981 120.292-3.337 14.933-7.842 27.015-13.504 35.927-5.657 8.905-12.433 14.593-20.315 16.869-7.881 2.275-16.646 1.073-26.179-3.447-9.541-4.524-19.792-12.346-30.573-23.203-21.562-21.714-45.098-55.416-69.17-98.597-48.137-86.348-98.314-210.401-139.1-351.688-40.787-141.286-64.443-272.995-69.73-371.713-2.644-49.367-.691-90.427 5.981-120.291 3.337-14.933 7.842-27.015 13.504-35.927 5.658-8.905 12.434-14.594 20.315-16.869z" stroke="#fff" stroke-opacity=".5" stroke-width="2"/><path opacity=".207" d="M368.461-77.455c8.05-1.58 16.677.382 25.779 5.716 9.111 5.338 18.641 14.023 28.435 25.779 19.588 23.51 40.096 59.135 60.313 104.25 40.428 90.215 79.602 218.169 107.92 362.473 28.317 144.304 40.404 277.573 37.067 376.376-1.668 49.41-7.192 90.143-16.443 119.312-4.625 14.586-10.166 26.229-16.583 34.614-6.412 8.378-13.658 13.454-21.708 15.034-8.049 1.579-16.676-.382-25.779-5.716-9.11-5.338-18.641-14.023-28.435-25.779-19.587-23.51-40.096-59.136-60.313-104.25-40.428-90.215-79.602-218.169-107.919-362.473-28.318-144.304-40.404-277.573-37.068-376.376 1.669-49.41 7.193-90.143 16.443-119.313 4.625-14.585 10.166-26.228 16.583-34.613 6.413-8.378 13.659-13.454 21.708-15.034z" stroke="#fff" stroke-opacity=".5" stroke-width="2"/><path opacity=".241" d="M415.348-88.524c8.157-.872 16.58 1.834 25.183 7.94 8.61 6.112 17.348 15.595 26.08 28.16C484.075-27.296 501.4 9.98 517.609 56.686c32.411 93.395 60.284 224.276 75.917 370.499 15.632 146.223 16.058 280.039 4.123 378.175-5.969 49.076-15.022 89.173-26.779 117.425-5.879 14.127-12.414 25.243-19.537 33.036-7.118 7.788-14.779 12.213-22.936 13.085-8.156.872-16.579-1.834-25.183-7.94-8.61-6.112-17.347-15.595-26.079-28.16-17.464-25.128-34.79-62.405-50.998-109.11-32.412-93.395-60.285-224.276-75.917-370.499-15.633-146.223-16.058-280.039-4.123-378.175 5.968-49.076 15.021-89.173 26.779-117.425 5.878-14.127 12.413-25.243 19.537-33.036 7.118-7.788 14.779-12.213 22.935-13.085z" stroke="#fff" stroke-opacity=".5" stroke-width="2"/><path opacity=".276" d="M462.665-95.564c8.201-.158 16.356 3.271 24.395 10.105 8.045 6.838 15.922 17.047 23.526 30.325 15.207 26.555 29.218 65.2 41.294 113.14 24.148 95.864 40.508 228.677 43.337 375.706 2.829 147.028-8.41 280.372-28.853 377.094-10.223 48.37-22.736 87.525-36.911 114.645-7.087 13.561-14.566 24.065-22.342 31.208-7.77 7.137-15.787 10.878-23.989 11.036-8.201.158-16.356-3.272-24.395-10.105-8.045-6.839-15.922-17.048-23.526-30.325-15.207-26.555-29.218-65.2-41.294-113.14-24.148-95.865-40.508-228.677-43.337-375.706-2.829-147.029 8.41-280.373 28.853-377.095 10.223-48.37 22.736-87.525 36.911-114.645 7.088-13.56 14.566-24.064 22.342-31.207 7.77-7.138 15.787-10.878 23.989-11.036z" stroke="#fff" stroke-opacity=".5" stroke-width="2"/><path opacity=".31" d="M510.059-98.562c8.185.558 16.01 4.685 23.422 12.193 7.418 7.514 14.376 18.37 20.794 32.26C567.11-26.329 577.699 13.39 585.551 62.2c15.701 97.604 20.423 231.337 10.427 378.053-9.996 146.716-32.814 278.572-61.609 373.145-14.399 47.294-30.278 85.21-46.762 110.991-8.243 12.891-16.609 22.704-24.978 29.142-8.362 6.433-16.675 9.461-24.859 8.903-8.184-.557-16.009-4.685-23.421-12.193-7.418-7.513-14.376-18.37-20.794-32.26-12.835-27.779-23.424-67.498-31.276-116.308-15.701-97.604-20.423-231.337-10.427-378.053 9.996-146.716 32.814-278.573 61.609-373.146 14.399-47.294 30.278-85.21 46.762-110.99 8.243-12.892 16.609-22.704 24.977-29.143 8.363-6.433 16.675-9.46 24.859-8.903z" stroke="#fff" stroke-opacity=".5" stroke-width="2"/><path opacity=".345" d="M557.18-97.521c8.104 1.268 15.54 6.062 22.27 14.187 6.735 8.132 12.72 19.553 17.903 33.95 10.365 28.792 17.452 69.283 21.02 118.592 7.135 98.601.183 232.237-22.562 377.523-22.745 145.286-56.968 274.653-93.896 366.356-18.467 45.859-37.59 82.247-56.258 106.493-9.335 12.124-18.524 21.17-27.422 26.854-8.891 5.68-17.436 7.972-25.541 6.703-8.104-1.269-15.54-6.063-22.27-14.188-6.735-8.132-12.72-19.553-17.902-33.95-10.366-28.792-17.453-69.283-21.021-118.591-7.134-98.602-.183-232.237 22.562-377.524 22.746-145.286 56.969-274.652 93.896-366.355 18.467-45.86 37.59-82.247 56.259-106.494 9.334-12.123 18.524-21.17 27.422-26.854 8.891-5.68 17.436-7.971 25.54-6.702z" stroke="#fff" stroke-opacity=".5" stroke-width="2"/><path opacity=".379" d="M603.674-92.485c7.963 1.97 14.953 7.394 20.949 16.075 6.001 8.688 10.967 20.587 14.876 35.38 7.816 29.587 11.347 70.541 10.604 119.973-1.486 98.848-20.058 231.37-55.379 374.121-35.322 142.751-80.689 268.642-125.469 356.778-22.394 44.075-44.615 78.657-65.326 101.185-10.356 11.264-20.298 19.474-29.658 24.361-9.352 4.884-18.065 6.422-26.027 4.452-7.963-1.971-14.953-7.394-20.949-16.075-6.001-8.688-10.967-20.588-14.876-35.381-7.816-29.586-11.347-70.54-10.604-119.972 1.486-98.848 20.058-231.37 55.379-374.121 35.322-142.751 80.689-268.642 125.469-356.778 22.394-44.075 44.615-78.657 65.326-101.185 10.356-11.264 20.298-19.474 29.658-24.362 9.352-4.883 18.065-6.42 26.027-4.45z" stroke="#fff" stroke-opacity=".5" stroke-width="2"/><path opacity=".414" d="M649.197-83.52c7.761 2.657 14.251 8.67 19.468 17.84 5.221 9.178 9.131 21.465 11.735 36.542 5.209 30.155 5.157 71.261.108 120.44-10.096 98.343-40.147 228.741-87.775 367.871-47.629 139.129-103.796 260.587-156.087 344.485-26.15 41.955-51.301 74.47-73.896 95.106-11.298 10.319-21.919 17.631-31.669 21.684-9.742 4.05-18.555 4.823-26.316 2.166-7.761-2.657-14.251-8.669-19.468-17.839-5.22-9.178-9.131-21.465-11.735-36.543-5.208-30.154-5.157-71.261-.108-120.44 10.096-98.342 40.147-228.741 87.776-367.87 47.628-139.13 103.795-260.588 156.086-344.485 26.15-41.956 51.301-74.47 73.896-95.107 11.298-10.318 21.919-17.63 31.669-21.684 9.742-4.05 18.555-4.822 26.316-2.166z" stroke="#fff" stroke-opacity=".5" stroke-width="2"/><path opacity=".448" d="M693.408-70.724c7.5 3.323 13.442 9.877 17.839 19.468 4.401 9.598 7.226 22.179 8.506 37.426 2.56 30.494-1.074 71.44-10.39 119.992-18.628 97.088-59.93 224.371-119.503 358.82-59.573 134.449-126.112 250.549-185.516 329.57-29.707 39.517-57.596 69.715-81.904 88.304-12.155 9.294-23.372 15.654-33.438 18.841-10.058 3.186-18.905 3.188-26.405-.136-7.5-3.323-13.442-9.877-17.839-19.468-4.401-9.598-7.226-22.179-8.506-37.426-2.56-30.494 1.074-71.439 10.39-119.991 18.628-97.089 59.93-224.372 119.503-358.821 59.573-134.448 126.112-250.549 185.516-329.57 29.707-39.517 57.596-69.715 81.904-88.304 12.155-9.294 23.372-15.654 33.438-18.841 10.058-3.186 18.905-3.188 26.405.136z" stroke="#fff" stroke-opacity=".5" stroke-width="2"/><path opacity=".483" d="M735.98-54.228c7.182 3.964 12.53 11.012 16.074 20.949 3.548 9.945 5.266 22.724 5.212 38.025-.107 30.601-7.296 71.074-20.808 118.629-27.019 95.096-79.258 218.295-150.322 347.04-71.065 128.745-147.47 238.604-213.535 312.147-33.038 36.778-63.452 64.43-89.288 80.83-12.918 8.199-24.647 13.557-34.953 15.855-10.297 2.297-19.111 1.527-26.292-2.437-7.182-3.964-12.53-11.011-16.075-20.948-3.547-9.945-5.265-22.725-5.212-38.026.108-30.601 7.297-71.074 20.809-118.629 27.019-95.095 79.257-218.294 150.322-347.039C442.976 223.423 519.381 113.563 585.446 40.02c33.038-36.777 63.453-64.43 89.289-80.83 12.918-8.2 24.647-13.556 34.952-15.855 10.298-2.296 19.111-1.527 26.293 2.437z" stroke="#fff" stroke-opacity=".5" stroke-width="2"/><path opacity=".517" d="M776.597-34.19c6.808 4.574 11.522 12.061 14.187 22.27 2.667 10.216 3.265 23.096 1.878 38.334-2.774 30.475-13.463 70.168-31.069 116.364-35.204 92.379-97.981 210.556-179.996 332.618C499.582 597.457 413.893 700.24 341.67 767.744c-36.118 33.758-68.827 58.655-95.994 72.74-13.584 7.043-25.735 11.358-36.201 12.749-10.459 1.39-19.172-.144-25.981-4.719-6.808-4.575-11.522-12.062-14.187-22.27-2.667-10.216-3.265-23.097-1.878-38.335 2.774-30.475 13.463-70.167 31.069-116.364 35.204-92.378 97.981-210.556 179.996-332.617 82.015-122.062 167.704-224.844 239.927-292.35 36.118-33.757 68.827-58.654 95.994-72.739 13.584-7.043 25.735-11.358 36.201-12.749 10.459-1.39 19.172.144 25.981 4.72z" stroke="#fff" stroke-opacity=".5" stroke-width="2"/><path opacity=".552" d="M814.956-10.793c6.384 5.151 10.427 13.02 12.192 23.422 1.767 10.41 1.239 23.294-1.471 38.353-5.419 30.117-19.527 68.727-41.091 113.213-43.122 88.959-115.96 201.215-208.301 315.664-92.342 114.449-186.663 209.372-264.494 270.326-38.923 30.481-73.678 52.433-101.968 64.096-14.146 5.832-26.627 9.072-37.175 9.545-10.54.474-19.086-1.814-25.47-6.965-6.385-5.151-10.428-13.02-12.193-23.422-1.767-10.41-1.239-23.293 1.471-38.353 5.419-30.117 19.527-68.726 41.092-113.213 43.121-88.959 115.959-201.215 208.3-315.664C478.19 211.76 572.511 116.837 650.343 55.884 689.265 25.402 724.02 3.45 752.311-8.213c14.145-5.832 26.626-9.071 37.175-9.545 10.539-.474 19.085 1.814 25.47 6.965z" stroke="#fff" stroke-opacity=".5" stroke-width="2"/><path opacity=".586" d="M850.774 15.753c5.911 5.688 9.253 13.88 10.105 24.395.853 10.524-.796 23.313-4.808 38.079-8.023 29.53-25.443 66.763-50.802 109.201-50.711 84.862-133.056 190.343-235.02 296.308C468.284 589.702 366.049 676.043 283.2 729.98c-41.431 26.974-77.966 45.813-107.166 54.966-14.6 4.577-27.316 6.716-37.865 6.269-10.541-.447-18.855-3.471-24.766-9.159-5.911-5.687-9.253-13.879-10.105-24.395-.853-10.524.796-23.313 4.808-38.079 8.023-29.53 25.443-66.763 50.802-109.201 50.711-84.862 133.056-190.343 235.02-296.308 101.965-105.965 204.2-192.307 287.049-246.244 41.431-26.974 77.966-45.813 107.166-54.966 14.6-4.577 27.316-6.716 37.865-6.27 10.541.448 18.855 3.472 24.766 9.16z" stroke="#fff" stroke-opacity=".5" stroke-width="2"/><path opacity=".621" d="M883.787 45.216c5.393 6.181 8.008 14.633 7.94 25.183-.068 10.559-2.825 23.155-8.108 37.515-10.567 28.718-31.165 64.292-60.127 104.358-57.914 80.119-149.139 178.022-259.951 274.697-110.812 96.675-220.183 173.778-307.417 220.29-43.625 23.259-81.663 38.842-111.549 45.416-14.944 3.287-27.798 4.31-38.268 2.945-10.462-1.364-18.481-5.101-23.874-11.283-5.392-6.181-8.008-14.633-7.94-25.183.068-10.558 2.825-23.155 8.108-37.515 10.567-28.718 31.165-64.291 60.127-104.358 57.914-80.119 149.139-178.021 259.951-274.697 110.812-96.675 220.184-173.777 307.417-220.29 43.625-23.259 81.663-38.842 111.55-45.416 14.943-3.287 27.797-4.31 38.267-2.944 10.462 1.363 18.481 5.1 23.874 11.282z" stroke="#fff" stroke-opacity=".5" stroke-width="2"/><path opacity=".655" d="M913.751 77.337c4.833 6.628 6.701 15.275 5.715 25.78-.988 10.512-4.832 22.82-11.347 36.665-13.03 27.688-36.65 61.331-68.994 98.72-64.677 74.767-164.087 164.346-282.903 250.996-118.816 86.65-234.491 153.926-325.447 192.658-45.486 19.369-84.737 31.577-115.083 35.521-15.173 1.973-28.067 1.871-38.379-.401-10.303-2.271-17.966-6.693-22.8-13.32-4.832-6.628-6.701-15.276-5.714-25.78.988-10.512 4.832-22.82 11.347-36.665 13.03-27.688 36.65-61.331 68.993-98.721 64.677-74.766 164.087-164.346 282.903-250.995 118.817-86.65 234.492-153.926 325.447-192.658 45.486-19.37 84.738-31.578 115.083-35.522 15.174-1.972 28.068-1.87 38.379.402 10.303 2.27 17.966 6.692 22.8 13.32z" stroke="#fff" stroke-opacity=".5" stroke-width="2"/><path opacity=".69" d="M940.444 111.845c4.237 7.024 5.345 15.801 3.446 26.179-1.9 10.387-6.802 22.313-14.499 35.537-15.393 26.448-41.856 57.904-77.335 92.332-70.947 68.845-177.786 149.42-303.702 225.384-125.917 75.964-247.015 132.903-341 163.56-47.001 15.331-87.167 24.072-117.741 25.356-15.288.643-28.124-.582-38.198-3.745-10.066-3.16-17.314-8.233-21.552-15.256-4.237-7.024-5.345-15.802-3.446-26.18 1.9-10.386 6.802-22.312 14.5-35.537 15.392-26.447 41.855-57.903 77.334-92.331 70.947-68.845 177.786-149.42 303.703-225.384C547.87 205.796 668.968 148.857 762.953 118.2c47.001-15.332 87.167-24.072 117.741-25.357 15.288-.642 28.124.583 38.198 3.745 10.066 3.16 17.314 8.233 21.552 15.257z" stroke="#fff" stroke-opacity=".5" stroke-width="2"/><path opacity=".724" d="M963.672 148.443c3.609 7.366 3.948 16.207 1.152 26.38-2.799 10.181-8.722 21.635-17.542 34.138-17.639 25.005-46.743 54.035-85.088 85.24-76.677 62.4-190.132 133.356-322.19 198.057S282.346 603.126 186.047 625.476c-48.158 11.176-88.933 16.383-119.503 14.998-15.285-.693-27.966-3.032-37.726-7.06-9.752-4.026-16.53-9.711-20.14-17.077-3.61-7.367-3.948-16.207-1.152-26.381 2.799-10.181 8.722-21.634 17.542-34.137 17.64-25.006 46.743-54.035 85.088-85.241 76.677-62.399 190.132-133.355 322.19-198.056 132.058-64.701 257.658-110.869 353.957-133.218 48.158-11.177 88.934-16.383 119.503-14.998 15.285.693 27.966 3.031 37.726 7.06 9.752 4.025 16.531 9.71 20.14 17.077z" stroke="#fff" stroke-opacity=".5" stroke-width="2"/><path opacity=".759" d="M983.267 186.82c2.953 7.653 2.52 16.49-1.152 26.38-3.675 9.899-10.574 20.793-20.45 32.48-19.752 23.372-51.275 49.755-92.194 77.5-81.824 55.479-201.031 116.277-338.225 169.222-137.195 52.945-266.341 87.99-364.222 101.861-48.949 6.937-90.023 8.57-120.355 4.526-15.167-2.022-27.595-5.457-36.967-10.321-9.365-4.86-15.622-11.115-18.575-18.767-2.954-7.653-2.52-16.49 1.152-26.381 3.675-9.898 10.573-20.792 20.45-32.479 19.752-23.372 51.274-49.755 92.193-77.5 81.824-55.479 201.032-116.277 338.226-169.222 137.194-52.945 266.34-87.99 364.221-101.862 48.949-6.936 90.023-8.569 120.355-4.525 15.167 2.022 27.596 5.457 36.968 10.321 9.364 4.86 15.621 11.114 18.575 18.767z" stroke="#fff" stroke-opacity=".5" stroke-width="2"/><path opacity=".793" d="M999.085 226.656c2.275 7.881 1.075 16.646-3.446 26.179-4.524 9.541-12.346 19.792-23.203 30.573-21.714 21.562-55.416 45.098-98.597 69.17-86.348 48.137-210.401 98.314-351.688 139.1-141.287 40.787-272.995 64.443-371.713 69.73-49.367 2.644-90.427.691-120.292-5.981-14.932-3.337-27.014-7.842-35.927-13.504-8.905-5.658-14.593-12.434-16.868-20.315-2.275-7.881-1.073-16.646 3.447-26.179C-14.68 485.888-6.857 475.637 4 464.856c21.714-21.563 55.416-45.098 98.598-69.17 86.347-48.137 210.4-98.314 351.687-139.1 141.287-40.787 272.996-64.443 371.713-69.73 49.367-2.644 90.427-.691 120.292 5.981 14.933 3.337 27.014 7.842 35.927 13.504 8.905 5.657 14.593 12.433 16.868 20.315z" stroke="#fff" stroke-opacity=".5" stroke-width="2"/><path opacity=".828" d="M1011.02 267.612c1.58 8.049-.38 16.676-5.72 25.779-5.337 9.11-14.022 18.641-25.778 28.435-23.51 19.588-59.135 40.096-104.25 60.313-90.215 40.428-218.169 79.602-362.473 107.919-144.304 28.318-277.573 40.405-376.376 37.068-49.41-1.668-90.143-7.193-119.313-16.443-14.585-4.625-26.228-10.166-34.613-16.583-8.378-6.412-13.454-13.658-15.034-21.708-1.58-8.049.382-16.676 5.716-25.779 5.338-9.11 14.023-18.641 25.779-28.435 23.51-19.588 59.136-40.096 104.25-60.313 90.215-40.428 218.169-79.602 362.473-107.919 144.304-28.318 277.573-40.405 376.376-37.068 49.41 1.668 90.143 7.193 119.313 16.443 14.585 4.625 26.228 10.166 34.613 16.583 8.377 6.412 13.457 13.658 15.037 21.708z" stroke="#fff" stroke-opacity=".5" stroke-width="2"/><path opacity=".862" d="M1018.98 309.349c.87 8.157-1.84 16.58-7.94 25.183-6.12 8.61-15.599 17.348-28.163 26.08-25.129 17.464-62.406 34.789-109.111 50.998-93.395 32.411-224.276 60.284-370.499 75.917-146.223 15.632-280.038 16.058-378.174 4.123-49.076-5.969-89.174-15.022-117.426-26.779-14.126-5.879-25.242-12.414-33.036-19.537-7.787-7.118-12.213-14.779-13.085-22.936-.872-8.156 1.834-16.579 7.94-25.183 6.112-8.61 15.596-17.347 28.16-26.079 25.128-17.464 62.405-34.79 109.111-50.998 93.394-32.412 224.276-60.285 370.499-75.917 146.222-15.633 280.038-16.058 378.174-4.123 49.076 5.968 89.173 15.021 117.425 26.779 14.127 5.878 25.243 12.413 33.035 19.537 7.79 7.118 12.21 14.779 13.09 22.935z" stroke="#fff" stroke-opacity=".5" stroke-width="2"/><path opacity=".897" d="M1022.91 351.516c.16 8.202-3.27 16.357-10.1 24.395-6.84 8.045-17.05 15.922-30.328 23.526-26.554 15.208-65.199 29.218-113.14 41.295-95.864 24.148-228.677 40.508-375.705 43.337-147.029 2.829-280.373-8.41-377.095-28.853-48.37-10.223-87.525-22.737-114.645-36.911-13.56-7.088-24.064-14.567-31.208-22.342-7.137-7.77-10.878-15.787-11.036-23.989-.157-8.201 3.272-16.357 10.105-24.395 6.84-8.045 17.048-15.922 30.326-23.526 26.554-15.208 65.2-29.218 113.14-41.294 95.864-24.149 228.677-40.509 375.705-43.337 147.029-2.829 280.373 8.409 377.095 28.852 48.369 10.223 87.525 22.737 114.645 36.911 13.56 7.088 24.061 14.567 31.211 22.343 7.13 7.769 10.87 15.787 11.03 23.988z" stroke="#fff" stroke-opacity=".5" stroke-width="2"/><path opacity=".931" d="M1022.8 393.76c-.55 8.184-4.68 16.009-12.19 23.422-7.51 7.418-18.37 14.375-32.26 20.793-27.779 12.835-67.498 23.424-116.308 31.276-97.605 15.702-231.338 20.424-378.054 10.428-146.715-9.997-278.572-32.814-373.145-61.609-47.294-14.4-85.21-30.278-110.991-46.763-12.891-8.243-22.704-16.608-29.142-24.977-6.433-8.362-9.46-16.675-8.903-24.859.558-8.184 4.685-16.01 12.193-23.422 7.514-7.418 18.37-14.376 32.26-20.793 27.779-12.836 67.498-23.425 116.308-31.277 97.605-15.701 231.338-20.423 378.054-10.427 146.715 9.996 278.572 32.814 373.145 61.609 47.294 14.4 85.21 30.278 110.991 46.763 12.891 8.242 22.702 16.608 29.142 24.977 6.43 8.362 9.46 16.675 8.9 24.859z" stroke="#fff" stroke-opacity=".5" stroke-width="2"/><path opacity=".966" d="M1018.66 435.731c-1.27 8.104-6.07 15.54-14.19 22.27-8.134 6.735-19.555 12.72-33.952 17.903-28.792 10.365-69.283 17.452-118.592 21.02-98.601 7.134-232.237.183-377.523-22.562-145.286-22.746-274.653-56.968-366.356-93.896-45.859-18.467-82.246-37.59-106.493-56.259-12.124-9.334-21.17-18.524-26.854-27.422-5.68-8.891-7.972-17.436-6.703-25.54 1.269-8.104 6.063-15.54 14.188-22.27 8.132-6.735 19.553-12.72 33.95-17.903 28.792-10.365 69.283-17.452 118.591-21.02 98.602-7.135 232.237-.183 377.524 22.562 145.286 22.745 274.652 56.968 366.355 93.896 45.86 18.467 82.247 37.59 106.494 56.259 12.124 9.334 21.171 18.523 26.851 27.421 5.68 8.891 7.97 17.437 6.71 25.541z" stroke="#fff" stroke-opacity=".5" stroke-width="2"/><path d="M1010.51 477.074c-1.97 7.963-7.39 14.953-16.075 20.949-8.688 6-20.587 10.967-35.381 14.875-29.585 7.817-70.54 11.348-119.972 10.605-98.848-1.486-231.369-20.058-374.121-55.38-142.751-35.321-268.642-80.689-356.778-125.468-44.075-22.394-78.657-44.615-101.184-65.326-11.264-10.356-19.475-20.299-24.362-29.658-4.884-9.353-6.422-18.065-4.451-26.028 1.97-7.963 7.393-14.952 16.074-20.948 8.688-6.001 20.588-10.968 35.381-14.876 29.586-7.817 70.54-11.348 119.973-10.604 98.848 1.486 231.369 20.058 374.12 55.379s268.642 80.689 356.778 125.469c44.075 22.393 78.658 44.615 101.185 65.326 11.264 10.355 19.473 20.298 24.363 29.658 4.88 9.352 6.42 18.064 4.45 26.027z" stroke="#fff" stroke-opacity=".5" stroke-width="2"/></g><defs><linearGradient id="paint0_linear_526_2901" x1="-134.432" y1="1126.15" x2="1208.28" y2="-67.553" gradientUnits="userSpaceOnUse"><stop stop-color="#5E2DF7"/><stop offset="1" stop-color="#331193"/></linearGradient><linearGradient id="paint1_linear_526_2901" x1="-134.432" y1="1126.15" x2="1208.28" y2="-67.553" gradientUnits="userSpaceOnUse"><stop stop-color="#5E2DF7"/><stop offset="1" stop-color="#331193"/></linearGradient><linearGradient id="paint2_linear_526_2901" x1="-149.026" y1="874.303" x2="1392.96" y2="413.655" gradientUnits="userSpaceOnUse"><stop stop-color="#5E2DF7"/><stop offset="1" stop-color="#331193"/></linearGradient><linearGradient id="paint3_linear_526_2901" x1="-149.026" y1="874.303" x2="1392.96" y2="413.655" gradientUnits="userSpaceOnUse"><stop stop-color="#5E2DF7"/><stop offset="1" stop-color="#331193"/></linearGradient><linearGradient id="paint4_linear_526_2901" x1="-72.641" y1="254.028" x2="1128.43" y2="704.428" gradientUnits="userSpaceOnUse"><stop stop-color="#5E2DF7"/><stop offset="1" stop-color="#331193"/></linearGradient><linearGradient id="paint5_linear_526_2901" x1="-72.641" y1="254.028" x2="1128.43" y2="704.428" gradientUnits="userSpaceOnUse"><stop stop-color="#5E2DF7"/><stop offset="1" stop-color="#331193"/></linearGradient><filter id="filter0_d_526_2901" x="0" y="117" width="1024" height="815" filterUnits="userSpaceOnUse" color-interpolation-filters="sRGB"><feFlood flood-opacity="0" result="BackgroundImageFix"/><feColorMatrix in="SourceAlpha" values="0 0 0 0 0 0 0 0 0 0 0 0 0 0 0 0 0 0 127 0" result="hardAlpha"/><feOffset dy="4"/><feGaussianBlur stdDeviation="2"/><feComposite in2="hardAlpha" operator="out"/><feColorMatrix values="0 0 0 0 0 0 0 0 0 0 0 0 0 0 0 0 0 0 0.25 0"/><feBlend in2="BackgroundImageFix" result="effect1_dropShadow_526_2901"/><feBlend in="SourceGraphic" in2="effect1_dropShadow_526_2901" result="shape"/></filter><filter id="filter1_d_526_2901" x="58.108" y="180.22" width="963.301" height="625.365" filterUnits="userSpaceOnUse" color-interpolation-filters="sRGB"><feFlood flood-opacity="0" result="BackgroundImageFix"/><feColorMatrix in="SourceAlpha" values="0 0 0 0 0 0 0 0 0 0 0 0 0 0 0 0 0 0 127 0" result="hardAlpha"/><feOffset dy="4"/><feGaussianBlur stdDeviation="2"/><feComposite in2="hardAlpha" operator="out"/><feColorMatrix values="0 0 0 0 0 0 0 0 0 0 0 0 0 0 0 0 0 0 0.25 0"/><feBlend in2="BackgroundImageFix" result="effect1_dropShadow_526_2901"/><feBlend in="SourceGraphic" in2="effect1_dropShadow_526_2901" result="shape"/></filter><filter id="filter2_d_526_2901" x="189.33" y="164.641" width="639.276" height="651.582" filterUnits="userSpaceOnUse" color-interpolation-filters="sRGB"><feFlood flood-opacity="0" result="BackgroundImageFix"/><feColorMatrix in="SourceAlpha" values="0 0 0 0 0 0 0 0 0 0 0 0 0 0 0 0 0 0 127 0" result="hardAlpha"/><feOffset dy="4"/><feGaussianBlur stdDeviation="2"/><feComposite in2="hardAlpha" operator="out"/><feColorMatrix values="0 0 0 0 0 0 0 0 0 0 0 0 0 0 0 0 0 0 0.25 0"/><feBlend in2="BackgroundImageFix" result="effect1_dropShadow_526_2901"/><feBlend in="SourceGraphic" in2="effect1_dropShadow_526_2901" result="shape"/></filter></defs></svg>