<svg width="1234" height="1163" fill="none" xmlns="http://www.w3.org/2000/svg"><mask id="a" style="mask-type:alpha" maskUnits="userSpaceOnUse" x="89" y="210" width="1039" height="744"><path d="M1107.59 454.649c43.13 116.606 11.78 247.852-60.42 326.213-72.21 78.362-185.28 103.839-287.19 129.839-101.852 25.861-192.6 52.385-305.672 40.189-112.975-11.992-248.274-62.704-315.133-158.105-66.955-95.603-65.259-235.97.082-323.522 65.553-87.628 194.905-122.376 320.485-169.442 125.638-47.206 247.659-106.666 367.443-85.344 119.841 21.183 237.335 123.427 280.405 240.172z" fill="url(#paint0_linear_526_4851)" fill-opacity=".25"/></mask><g mask="url(#a)"><g filter="url(#filter0_d_526_4851)"><path d="M1107.59 454.649c43.13 116.606 11.78 247.852-60.42 326.213-72.21 78.362-185.28 103.839-287.19 129.839-101.852 25.861-192.6 52.385-305.672 40.189-112.975-11.992-248.274-62.704-315.133-158.105-66.955-95.603-65.259-235.97.082-323.522 65.553-87.628 194.905-122.376 320.485-169.442 125.638-47.206 247.659-106.666 367.443-85.344 119.841 21.183 237.335 123.427 280.405 240.172z" fill="url(#paint1_linear_526_4851)" fill-opacity=".25" shape-rendering="crispEdges"/></g><path d="M75.312 362.459C-10.341 52.079 306.95 20.486 535.929 114.205 669.528 162.403 757.265 12.51 922.768 72.33c165.502 59.821-32.901 248.255 220.342 344.965 253.24 96.71 129.61 529.41-91.73 534.395-221.334 4.985-160.516 77.77-381.852 244.27-221.335 166.5-594.216-64.81-501.494-309.075 92.721-244.267-.001-188.434-92.722-524.426z" stroke="#fff" stroke-opacity=".5" stroke-width="3"/><path d="M551.678 604.012c-9.882-29.562 36.407-77.253 73.629-56.9 34.084 18.637 68.793 6.068 91.724 14.377 60.369 21.874 38.164 33.453 65.15 59.432 32.839 31.613 48.509 114.395-26.986 114.395-62.092 0-43.513 30.157-90.008 43.52-46.495 13.362-99.223-9.383-99.223-69.267 0-22.488 2.174-56.321-14.286-105.557z" stroke="#fff" stroke-opacity=".5" stroke-width="3"/><path d="M118.612 382.91C39.847 98.06 332.502 65.003 544.049 152.052c124.552 45.511 207.468-91.898 360.01-36.761 155.941 56.371-26.44 228.728 206.231 319.007 233.2 90.792 122.24 491.682-85.84 496.214-206.859 4.532-149.881 73.438-355.322 226.018-205.441 152.58-549.217-59.77-464.925-287.273 84.293-224.105.197-176.424-85.591-486.347z" stroke="#fff" stroke-opacity=".5" stroke-width="3"/><path d="M161.912 403.363C90.035 144.041 358.054 109.521 552.168 189.9c115.505 42.824 193.601-82.101 333.182-31.647 146.39 52.922-19.98 209.2 192.12 293.05 213.17 84.874 114.87 453.953-79.952 458.032-192.382 4.078-139.245 69.11-328.791 207.765-189.546 138.66-504.217-54.73-428.354-265.469 75.863-203.943.394-164.414-78.461-448.268z" stroke="#fff" stroke-opacity=".5" stroke-width="3"/><path d="M205.213 423.816C140.224 190.023 383.606 154.04 560.288 227.749c106.459 40.137 179.733-72.305 306.353-26.533 136.829 49.472-13.52 189.673 178.019 267.092 193.13 78.957 107.49 416.225-74.074 419.85-177.905 3.626-128.607 64.783-302.259 189.522-173.652 124.73-459.218-49.69-391.784-243.675 67.434-183.781.592-152.403-71.33-410.189z" stroke="#fff" stroke-opacity=".5" stroke-width="3"/><path d="M248.513 444.271C190.413 236.007 409.158 198.56 568.408 265.6c97.412 37.449 165.865-62.508 279.524-21.419 127.273 46.022-7.059 170.145 163.908 241.134 173.09 73.039 100.12 378.496-68.185 381.668-163.429 3.173-117.971 60.455-275.728 171.267-157.757 110.82-414.219-44.651-355.214-221.869 59.005-163.62.79-140.393-64.2-372.11z" stroke="#fff" stroke-opacity=".5" stroke-width="3"/><path d="M291.815 465.762c-51.212-182.735 142.897-221.645 284.713-161.275 88.365 34.762 151.998-52.711 252.696-16.305 117.715 42.572-.599 150.617 149.799 215.177 153.057 67.12 92.747 340.767-62.299 343.486-148.952 2.719-107.334 56.126-249.196 153.018-141.863 96.897-369.219-39.613-318.644-200.069 50.575-143.459.988-128.383-57.069-334.032z" stroke="#fff" stroke-opacity=".5" stroke-width="3"/><path d="M335.117 488.48C290.793 331.273 460.265 290.899 584.649 344.6c79.319 32.075 138.131-42.915 225.868-11.192 108.157 39.123 5.861 131.091 135.69 189.22 133.023 61.203 85.373 303.039-56.413 305.304-134.475 2.266-96.697 51.798-222.665 134.769-125.968 82.969-324.22-34.575-282.074-178.269 42.146-123.297 1.186-116.373-49.938-295.952z" stroke="#fff" stroke-opacity=".5" stroke-width="3"/><path d="M378.42 511.265c-37.436-131.678 107.4-173.515 214.352-126.484 70.271 29.387 124.263-33.118 199.039-6.078 98.599 35.673 12.321 111.563 121.582 163.262 112.987 55.285 78 265.31-50.528 267.123-119.999 1.813-86.06 47.47-196.134 116.519-110.073 69.048-279.22-29.537-245.503-156.469 33.717-103.135 1.383-104.362-42.808-257.873z" stroke="#fff" stroke-opacity=".5" stroke-width="3"/><path d="M421.725 534.148c-30.548-106.149 89.651-149.449 179.171-109.087 61.224 26.699 110.395-23.322 172.21-.965 89.042 32.223 18.782 92.036 107.474 137.305 92.948 49.367 70.627 227.581-44.643 228.941-105.521 1.359-75.423 43.141-169.602 98.268-94.178 55.128-234.221-24.498-208.933-134.668 25.288-82.973 1.581-92.352-35.677-219.794z" stroke="#fff" stroke-opacity=".5" stroke-width="3"/><path d="M465.033 557.176c-23.659-80.62 71.903-125.384 143.99-91.692 52.178 24.013 96.528-13.525 145.381 4.15 79.485 28.773 25.243 72.508 93.366 111.347 72.912 43.449 63.255 189.852-38.757 190.759-91.045.906-64.786 38.813-143.07 80.019-78.284 41.206-189.222-19.46-172.363-112.868 16.858-62.811 1.778-80.341-28.547-181.715z" stroke="#fff" stroke-opacity=".5" stroke-width="3"/><path d="M508.347 580.423c-16.771-55.091 54.155-101.318 108.809-74.295 43.131 21.325 82.661-3.729 118.553 9.263 69.927 25.324 31.703 52.98 79.258 85.389 52.875 37.532 55.882 152.124-32.872 152.577-76.568.454-54.15 34.486-116.539 61.77-62.389 27.284-144.222-14.422-135.793-91.067 8.429-42.65 1.977-68.332-21.416-143.637z" stroke="#fff" stroke-opacity=".5" stroke-width="3"/></g><mask id="b" style="mask-type:alpha" maskUnits="userSpaceOnUse" x="174" y="248" width="886" height="700"><path d="M741.039 358.651c90.4 8.239 212.252-3.014 270.251 44.814 58 47.829 52.14 154.74 42.36 261.913-9.92 107.203-23.77 214.669-88.65 257.472-64.739 42.772-180.51 20.882-265.544-3.402-85.204-24.395-139.64-51.043-226.362-57.28-86.611-6.409-205.478 7.733-253.714-35.877-48.065-43.5-25.64-144.723-30.472-260.808-4.972-116.054-37.03-246.861 15.793-294.268 52.792-47.548 190.495-11.556 288.789 20.165 98.435 31.691 157.18 59.173 247.549 67.271z" fill="url(#paint2_linear_526_4851)" fill-opacity=".5"/></mask><g mask="url(#b)"><g filter="url(#filter1_d_526_4851)"><path d="M741.04 358.651c90.399 8.239 212.252-3.014 270.25 44.814 58 47.829 52.14 154.74 42.36 261.913-9.92 107.203-23.77 214.669-88.65 257.472-64.738 42.772-180.51 20.882-265.543-3.402-85.205-24.395-139.64-51.043-226.362-57.28-86.612-6.409-205.479 7.733-253.715-35.877-48.065-43.5-25.64-144.723-30.471-260.808-4.973-116.054-37.03-246.861 15.792-294.268 52.792-47.548 190.495-11.556 288.789 20.165 98.436 31.691 157.18 59.173 247.55 67.271z" fill="url(#paint3_linear_526_4851)" fill-opacity=".5" shape-rendering="crispEdges"/></g><path d="M75.312 362.459C-10.341 52.079 306.95 20.486 535.929 114.205 669.528 162.403 757.265 12.51 922.768 72.33c165.502 59.821-32.901 248.255 220.342 344.965 253.24 96.71 129.61 529.41-91.73 534.395-221.334 4.985-160.516 77.77-381.852 244.27-221.335 166.5-594.216-64.81-501.494-309.075 92.721-244.267-.001-188.434-92.722-524.426z" stroke="#fff" stroke-opacity=".5" stroke-width="3"/><path d="M551.678 604.012c-9.882-29.562 36.407-77.253 73.629-56.9 34.084 18.637 68.793 6.068 91.724 14.377 60.369 21.874 38.164 33.453 65.15 59.432 32.839 31.613 48.509 114.395-26.986 114.395-62.092 0-43.513 30.157-90.008 43.52-46.495 13.362-99.223-9.383-99.223-69.267 0-22.488 2.174-56.321-14.286-105.557z" stroke="#fff" stroke-opacity=".5" stroke-width="3"/><path d="M118.612 382.91C39.847 98.06 332.502 65.003 544.049 152.052c124.552 45.511 207.468-91.898 360.01-36.761 155.941 56.371-26.44 228.728 206.231 319.007 233.2 90.792 122.24 491.682-85.84 496.214-206.859 4.532-149.881 73.438-355.322 226.018-205.441 152.58-549.217-59.77-464.925-287.273 84.293-224.105.197-176.424-85.591-486.347z" stroke="#fff" stroke-opacity=".5" stroke-width="3"/><path d="M161.912 403.363C90.035 144.041 358.054 109.521 552.168 189.9c115.505 42.824 193.601-82.101 333.182-31.647 146.39 52.922-19.98 209.2 192.12 293.05 213.17 84.874 114.87 453.953-79.952 458.032-192.382 4.078-139.245 69.11-328.791 207.765-189.546 138.66-504.217-54.73-428.354-265.469 75.863-203.943.394-164.414-78.461-448.268z" stroke="#fff" stroke-opacity=".5" stroke-width="3"/><path d="M205.213 423.816C140.224 190.023 383.606 154.04 560.288 227.749c106.459 40.137 179.733-72.305 306.353-26.533 136.829 49.472-13.52 189.673 178.019 267.092 193.13 78.957 107.49 416.225-74.074 419.85-177.905 3.626-128.607 64.783-302.259 189.522-173.652 124.73-459.218-49.69-391.784-243.675 67.434-183.781.592-152.403-71.33-410.189z" stroke="#fff" stroke-opacity=".5" stroke-width="3"/><path d="M248.513 444.271C190.413 236.007 409.158 198.56 568.408 265.6c97.412 37.449 165.865-62.508 279.524-21.419 127.273 46.022-7.059 170.145 163.908 241.134 173.09 73.039 100.12 378.496-68.185 381.668-163.429 3.173-117.971 60.455-275.728 171.267-157.757 110.82-414.219-44.651-355.214-221.869 59.005-163.62.79-140.393-64.2-372.11z" stroke="#fff" stroke-opacity=".5" stroke-width="3"/><path d="M291.815 465.762c-51.212-182.735 142.897-221.645 284.713-161.275 88.365 34.762 151.998-52.711 252.696-16.305 117.715 42.572-.599 150.617 149.799 215.177 153.057 67.12 92.747 340.767-62.299 343.486-148.952 2.719-107.334 56.126-249.196 153.018-141.863 96.897-369.219-39.613-318.644-200.069 50.575-143.459.988-128.383-57.069-334.032z" stroke="#fff" stroke-opacity=".5" stroke-width="3"/><path d="M335.117 488.48C290.793 331.273 460.265 290.899 584.649 344.6c79.319 32.075 138.131-42.915 225.868-11.192 108.157 39.123 5.861 131.091 135.69 189.22 133.023 61.203 85.373 303.039-56.413 305.304-134.475 2.266-96.697 51.798-222.665 134.769-125.968 82.969-324.22-34.575-282.074-178.269 42.146-123.297 1.186-116.373-49.938-295.952z" stroke="#fff" stroke-opacity=".5" stroke-width="3"/><path d="M378.42 511.265c-37.436-131.678 107.4-173.515 214.352-126.484 70.271 29.387 124.263-33.118 199.039-6.078 98.599 35.673 12.321 111.563 121.582 163.262 112.987 55.285 78 265.31-50.528 267.123-119.999 1.813-86.06 47.47-196.134 116.519-110.073 69.048-279.22-29.537-245.503-156.469 33.717-103.135 1.383-104.362-42.808-257.873z" stroke="#fff" stroke-opacity=".5" stroke-width="3"/><path d="M421.725 534.148c-30.548-106.149 89.651-149.449 179.171-109.087 61.224 26.699 110.395-23.322 172.21-.965 89.042 32.223 18.782 92.036 107.474 137.305 92.948 49.367 70.627 227.581-44.643 228.941-105.521 1.359-75.423 43.141-169.602 98.268-94.178 55.128-234.221-24.498-208.933-134.668 25.288-82.973 1.581-92.352-35.677-219.794z" stroke="#fff" stroke-opacity=".5" stroke-width="3"/><path d="M465.033 557.176c-23.659-80.62 71.903-125.384 143.99-91.692 52.178 24.013 96.528-13.525 145.381 4.15 79.485 28.773 25.243 72.508 93.366 111.347 72.912 43.449 63.255 189.852-38.757 190.759-91.045.906-64.786 38.813-143.07 80.019-78.284 41.206-189.222-19.46-172.363-112.868 16.858-62.811 1.778-80.341-28.547-181.715z" stroke="#fff" stroke-opacity=".5" stroke-width="3"/><path d="M508.347 580.423c-16.771-55.091 54.155-101.318 108.809-74.295 43.131 21.325 82.661-3.729 118.553 9.263 69.927 25.324 31.703 52.98 79.258 85.389 52.875 37.532 55.882 152.124-32.872 152.577-76.568.454-54.15 34.486-116.539 61.77-62.389 27.284-144.222-14.422-135.793-91.067 8.429-42.65 1.977-68.332-21.416-143.637z" stroke="#fff" stroke-opacity=".5" stroke-width="3"/></g><mask id="c" style="mask-type:alpha" maskUnits="userSpaceOnUse" x="255" y="273" width="675" height="644"><path d="M807.293 411.025c44.456 23.765 98.08 43.374 115.67 79.075 17.484 35.594-1.066 87.387-18.123 139.606-16.951 52.219-32.303 104.971-67.483 158.362-35.074 53.392-90.084 107.529-156.714 123.621-66.631 16.092-144.881-5.861-220.999-45.931-76.012-40.177-149.785-98.577-183.154-175.947-33.261-77.476-26.225-173.921 9.489-254.275 35.607-80.247 99.785-144.402 172.279-159.108 72.493-14.6 153.302 20.248 211.297 51.579 58.102 31.438 93.283 59.253 137.738 83.018z" fill="url(#paint4_linear_526_4851)"/></mask><g mask="url(#c)"><g filter="url(#filter2_d_526_4851)"><path d="M807.293 411.025c44.456 23.765 98.08 43.374 115.67 79.075 17.484 35.594-1.066 87.387-18.123 139.606-16.951 52.219-32.303 104.971-67.483 158.362-35.074 53.392-90.084 107.529-156.714 123.621-66.631 16.092-144.881-5.861-220.999-45.931-76.012-40.177-149.785-98.577-183.154-175.947-33.261-77.476-26.225-173.921 9.489-254.275 35.607-80.247 99.785-144.402 172.279-159.108 72.493-14.6 153.302 20.248 211.297 51.579 58.102 31.438 93.283 59.253 137.738 83.018z" fill="url(#paint5_linear_526_4851)"/></g><path d="M75.312 362.459C-10.341 52.079 306.95 20.486 535.929 114.205 669.528 162.403 757.265 12.51 922.768 72.33c165.502 59.821-32.901 248.255 220.342 344.965 253.24 96.71 129.61 529.41-91.73 534.395-221.334 4.985-160.516 77.77-381.852 244.27-221.335 166.5-594.216-64.81-501.494-309.075 92.721-244.267-.001-188.434-92.722-524.426z" stroke="#fff" stroke-opacity=".5" stroke-width="3"/><path d="M551.678 604.012c-9.882-29.562 36.407-77.253 73.629-56.9 34.084 18.637 68.793 6.068 91.724 14.377 60.369 21.874 38.164 33.453 65.15 59.432 32.839 31.613 48.509 114.395-26.986 114.395-62.092 0-43.513 30.157-90.008 43.52-46.495 13.362-99.223-9.383-99.223-69.267 0-22.488 2.174-56.321-14.286-105.557z" stroke="#fff" stroke-opacity=".5" stroke-width="3"/><path d="M118.612 382.91C39.847 98.06 332.502 65.003 544.049 152.052c124.552 45.511 207.468-91.898 360.01-36.761 155.941 56.371-26.44 228.728 206.231 319.007 233.2 90.792 122.24 491.682-85.84 496.214-206.859 4.532-149.881 73.438-355.322 226.018-205.441 152.58-549.217-59.77-464.925-287.273 84.293-224.105.197-176.424-85.591-486.347z" stroke="#fff" stroke-opacity=".5" stroke-width="3"/><path d="M161.912 403.363C90.035 144.041 358.054 109.521 552.168 189.9c115.505 42.824 193.601-82.101 333.182-31.647 146.39 52.922-19.98 209.2 192.12 293.05 213.17 84.874 114.87 453.953-79.952 458.032-192.382 4.078-139.245 69.11-328.791 207.765-189.546 138.66-504.217-54.73-428.354-265.469 75.863-203.943.394-164.414-78.461-448.268z" stroke="#fff" stroke-opacity=".5" stroke-width="3"/><path d="M205.213 423.816C140.224 190.023 383.606 154.04 560.288 227.749c106.459 40.137 179.733-72.305 306.353-26.533 136.829 49.472-13.52 189.673 178.019 267.092 193.13 78.957 107.49 416.225-74.074 419.85-177.905 3.626-128.607 64.783-302.259 189.522-173.652 124.73-459.218-49.69-391.784-243.675 67.434-183.781.592-152.403-71.33-410.189z" stroke="#fff" stroke-opacity=".5" stroke-width="3"/><path d="M248.513 444.271C190.413 236.007 409.158 198.56 568.408 265.6c97.412 37.449 165.865-62.508 279.524-21.419 127.273 46.022-7.059 170.145 163.908 241.134 173.09 73.039 100.12 378.496-68.185 381.668-163.429 3.173-117.971 60.455-275.728 171.267-157.757 110.82-414.219-44.651-355.214-221.869 59.005-163.62.79-140.393-64.2-372.11z" stroke="#fff" stroke-opacity=".5" stroke-width="3"/><path d="M291.815 465.762c-51.212-182.735 142.897-221.645 284.713-161.275 88.365 34.762 151.998-52.711 252.696-16.305 117.715 42.572-.599 150.617 149.799 215.177 153.057 67.12 92.747 340.767-62.299 343.486-148.952 2.719-107.334 56.126-249.196 153.018-141.863 96.897-369.219-39.613-318.644-200.069 50.575-143.459.988-128.383-57.069-334.032z" stroke="#fff" stroke-opacity=".5" stroke-width="3"/><path d="M335.117 488.48C290.793 331.273 460.265 290.899 584.649 344.6c79.319 32.075 138.131-42.915 225.868-11.192 108.157 39.123 5.861 131.091 135.69 189.22 133.023 61.203 85.373 303.039-56.413 305.304-134.475 2.266-96.697 51.798-222.665 134.769-125.968 82.969-324.22-34.575-282.074-178.269 42.146-123.297 1.186-116.373-49.938-295.952z" stroke="#fff" stroke-opacity=".5" stroke-width="3"/><path d="M378.42 511.265c-37.436-131.678 107.4-173.515 214.352-126.484 70.271 29.387 124.263-33.118 199.039-6.078 98.599 35.673 12.321 111.563 121.582 163.262 112.987 55.285 78 265.31-50.528 267.123-119.999 1.813-86.06 47.47-196.134 116.519-110.073 69.048-279.22-29.537-245.503-156.469 33.717-103.135 1.383-104.362-42.808-257.873z" stroke="#fff" stroke-opacity=".5" stroke-width="3"/><path d="M421.725 534.148c-30.548-106.149 89.651-149.449 179.171-109.087 61.224 26.699 110.395-23.322 172.21-.965 89.042 32.223 18.782 92.036 107.474 137.305 92.948 49.367 70.627 227.581-44.643 228.941-105.521 1.359-75.423 43.141-169.602 98.268-94.178 55.128-234.221-24.498-208.933-134.668 25.288-82.973 1.581-92.352-35.677-219.794z" stroke="#fff" stroke-opacity=".5" stroke-width="3"/><path d="M465.033 557.176c-23.659-80.62 71.903-125.384 143.99-91.692 52.178 24.013 96.528-13.525 145.381 4.15 79.485 28.773 25.243 72.508 93.366 111.347 72.912 43.449 63.255 189.852-38.757 190.759-91.045.906-64.786 38.813-143.07 80.019-78.284 41.206-189.222-19.46-172.363-112.868 16.858-62.811 1.778-80.341-28.547-181.715z" stroke="#fff" stroke-opacity=".5" stroke-width="3"/><path d="M508.347 580.423c-16.771-55.091 54.155-101.318 108.809-74.295 43.131 21.325 82.661-3.729 118.553 9.263 69.927 25.324 31.703 52.98 79.258 85.389 52.875 37.532 55.882 152.124-32.872 152.577-76.568.454-54.15 34.486-116.539 61.77-62.389 27.284-144.222-14.422-135.793-91.067 8.429-42.65 1.977-68.332-21.416-143.637z" stroke="#fff" stroke-opacity=".5" stroke-width="3"/></g><defs><linearGradient id="paint0_linear_526_4851" x1="-205.2" y1="934.907" x2="1521.93" y2="415.551" gradientUnits="userSpaceOnUse"><stop stop-color="#1C221F"/><stop offset=".922" stop-color="#392D49"/><stop offset="1" stop-color="#57456F"/></linearGradient><linearGradient id="paint1_linear_526_4851" x1="-205.2" y1="934.907" x2="1521.93" y2="415.551" gradientUnits="userSpaceOnUse"><stop stop-color="#1C221F"/><stop offset=".922" stop-color="#392D49"/><stop offset="1" stop-color="#57456F"/></linearGradient><linearGradient id="paint2_linear_526_4851" x1="183.249" y1="1310.58" x2="1260.83" y2="16.418" gradientUnits="userSpaceOnUse"><stop stop-color="#1C221F"/><stop offset=".922" stop-color="#392D49"/><stop offset="1" stop-color="#57456F"/></linearGradient><linearGradient id="paint3_linear_526_4851" x1="183.25" y1="1310.58" x2="1260.83" y2="16.418" gradientUnits="userSpaceOnUse"><stop stop-color="#1C221F"/><stop offset=".922" stop-color="#392D49"/><stop offset="1" stop-color="#57456F"/></linearGradient><linearGradient id="paint4_linear_526_4851" x1="163.03" y1="1078.32" x2="1194.88" y2="314.605" gradientUnits="userSpaceOnUse"><stop stop-color="#1C221F"/><stop offset=".922" stop-color="#392D49"/><stop offset="1" stop-color="#57456F"/></linearGradient><linearGradient id="paint5_linear_526_4851" x1="163.03" y1="1078.32" x2="1194.88" y2="314.605" gradientUnits="userSpaceOnUse"><stop stop-color="#1C221F"/><stop offset=".922" stop-color="#392D49"/><stop offset="1" stop-color="#57456F"/></linearGradient><filter id="filter0_d_526_4851" x="85.603" y="210.014" width="1045.63" height="751.934" filterUnits="userSpaceOnUse" color-interpolation-filters="sRGB"><feFlood flood-opacity="0" result="BackgroundImageFix"/><feColorMatrix in="SourceAlpha" values="0 0 0 0 0 0 0 0 0 0 0 0 0 0 0 0 0 0 127 0" result="hardAlpha"/><feOffset dy="4"/><feGaussianBlur stdDeviation="2"/><feComposite in2="hardAlpha" operator="out"/><feColorMatrix values="0 0 0 0 0 0 0 0 0 0 0 0 0 0 0 0 0 0 0.25 0"/><feBlend in2="BackgroundImageFix" result="effect1_dropShadow_526_4851"/><feBlend in="SourceGraphic" in2="effect1_dropShadow_526_4851" result="shape"/></filter><filter id="filter1_d_526_4851" x="170.735" y="248.225" width="893.175" height="706.918" filterUnits="userSpaceOnUse" color-interpolation-filters="sRGB"><feFlood flood-opacity="0" result="BackgroundImageFix"/><feColorMatrix in="SourceAlpha" values="0 0 0 0 0 0 0 0 0 0 0 0 0 0 0 0 0 0 127 0" result="hardAlpha"/><feOffset dy="4"/><feGaussianBlur stdDeviation="2"/><feComposite in2="hardAlpha" operator="out"/><feColorMatrix values="0 0 0 0 0 0 0 0 0 0 0 0 0 0 0 0 0 0 0.25 0"/><feBlend in2="BackgroundImageFix" result="effect1_dropShadow_526_4851"/><feBlend in="SourceGraphic" in2="effect1_dropShadow_526_4851" result="shape"/></filter><filter id="filter2_d_526_4851" x="251" y="273" width="683" height="652" filterUnits="userSpaceOnUse" color-interpolation-filters="sRGB"><feFlood flood-opacity="0" result="BackgroundImageFix"/><feColorMatrix in="SourceAlpha" values="0 0 0 0 0 0 0 0 0 0 0 0 0 0 0 0 0 0 127 0" result="hardAlpha"/><feOffset dy="4"/><feGaussianBlur stdDeviation="2"/><feComposite in2="hardAlpha" operator="out"/><feColorMatrix values="0 0 0 0 0 0 0 0 0 0 0 0 0 0 0 0 0 0 0.25 0"/><feBlend in2="BackgroundImageFix" result="effect1_dropShadow_526_4851"/><feBlend in="SourceGraphic" in2="effect1_dropShadow_526_4851" result="shape"/></filter></defs></svg>