<svg width="343" height="404" fill="none" xmlns="http://www.w3.org/2000/svg"><mask id="a" style="mask-type:alpha" maskUnits="userSpaceOnUse" x="0" y="0" width="343" height="404"><path d="M334.86 166.886c13.487 28.362 6.251 66.612-7.01 101.537-13.262 34.925-32.58 66.565-60.311 88.902-27.689 22.368-63.803 35.362-104.674 41.912-40.872 6.551-86.513 6.585-116.165-15.192C17.02 362.309 3.329 318.76.625 279.001c-2.632-39.77 5.722-75.75 7.493-124.057 1.801-48.348-2.95-109.063 22.761-136.413C56.56-8.778 112.737-2.762 154.83 16.664c42.053 19.396 70.053 52.162 101.178 77.796 31.084 25.604 65.335 44.106 78.852 72.426z" fill="url(#paint0_linear_380_207)"/></mask><g mask="url(#a)"><g filter="url(#filter0_i_380_207)"><path d="M334.86 166.886c13.487 28.362 6.251 66.612-7.01 101.537-13.262 34.925-32.58 66.565-60.311 88.902-27.689 22.368-63.803 35.362-104.674 41.913-40.872 6.55-86.513 6.584-116.165-15.193C17.02 362.309 3.329 318.76.625 279.001c-2.632-39.77 5.722-75.75 7.493-124.057 1.801-48.348-2.95-109.063 22.761-136.413C56.56-8.778 112.737-2.762 154.83 16.664c42.053 19.396 70.053 52.162 101.178 77.796 31.084 25.604 65.335 44.106 78.852 72.426z" fill="url(#paint1_linear_380_207)"/></g><path d="M20.83-45.506L75.356.994h28.135l40.4-46.314 36.454 22.34 54.216-14.139-5.54 81.527 36.525.19 10.798 52.996-24.717 58.622 49.7 21.384 19.257 148.002-107.113.048-14.661 36.063-78.53.336-36.2-25.444-82.988 37.583-27.059-27.325v-70.656l-27.06-39.134 26.86-61.42-.2-61.419-45.099-18.427V1.41L20.83-45.506z" stroke="#000" stroke-opacity=".05" stroke-width="1.5"/><path d="M28.115-30.01l50.424 42.398h26.955l37.441-42.028 33.822 20.906 49.804-12.428-4.973 75.265 33.963.382 9.994 49.294-22.562 54.452 45.045 19.602 17.141 135.668-98.802.095-14.055 33.11-72.783.672-33.313-23.454-76.203 34.321-24.804-25.388v-65.108l-24.804-37.422 24.404-56.388-.4-56.388-41.34-17.345V13.221l85.046-43.232z" stroke="#000" stroke-opacity=".05" stroke-width="1.5"/><path d="M35.4-14.517l46.32 38.299h25.777l34.48-37.742 31.191 19.471L218.56-5.206l-4.405 69.005 31.402.572 9.188 45.592-20.407 50.282 40.391 17.82 15.024 123.334-90.491.143-13.449 30.156-67.035 1.009-30.426-21.464-69.418 31.058-22.549-23.45v-59.56l-22.549-35.711 21.949-51.356-.6-51.357-37.583-16.264V25.031L35.4-14.517z" stroke="#000" stroke-opacity=".05" stroke-width="1.5"/><path d="M42.684.978l42.22 34.197H109.5L141.02 1.72l28.56 18.036 40.979-9.006-3.838 62.743 28.841.763 8.383 41.891-18.253 46.112 35.738 16.038 12.906 111.001-82.18.191-12.842 27.202-61.288 1.345-27.54-19.474-62.631 27.796L7.56 304.844v-54.011l-20.294-33.999L6.76 170.508l-.8-46.325-33.825-15.182v-72.16L42.685.978z" stroke="#000" stroke-opacity=".05" stroke-width="1.5"/><path d="M49.968 16.473L88.086 46.57h23.418l28.56-29.17 25.929 16.602 36.566-7.295-3.27 56.482 26.279.953 7.578 38.19-16.098 41.941 31.084 14.256 10.79 98.668-73.87.238-12.235 24.249-55.541 1.681-24.653-17.484-55.846 24.533-18.04-19.576v-48.463L.698 210.088l17.039-41.294-1-41.294-30.067-14.101V48.652l63.298-32.18z" stroke="#000" stroke-opacity=".05" stroke-width="1.5"/><path d="M57.253 31.967l34.016 25.996h22.239l25.599-24.882 23.298 15.166 32.154-5.584-2.703 50.22 23.718 1.145 6.773 34.488-13.944 37.771 26.43 12.474 8.673 86.334-65.559.287-11.628 21.295-49.794 2.017-21.766-15.495-49.06 21.272-15.785-17.639v-42.915l-15.785-30.575 14.584-36.263-1.2-36.263-26.308-13.019V60.463l56.048-28.496z" stroke="#000" stroke-opacity=".05" stroke-width="1.5"/><path d="M64.537 47.461l29.914 21.896h21.06l22.639-20.596 20.666 13.731 27.742-3.873-2.135 43.96 21.156 1.335 5.969 30.787-11.79 33.6 21.777 10.692 6.555 74.001-57.248.334-11.022 18.341-44.046 2.354-18.88-13.505-42.275 18.009-13.53-15.701v-37.367L27.56 196.595l12.129-31.231-1.401-31.232-22.55-11.937V72.273l48.8-24.812z" stroke="#000" stroke-opacity=".05" stroke-width="1.5"/><path d="M71.822 62.956l25.81 17.794h19.881l19.679-16.31 18.035 12.296 23.33-2.162-1.569 37.699 18.596 1.525 5.163 27.086-9.634 29.43 17.122 8.91 4.438 61.668-48.937.381-10.415 15.388-38.299 2.69-15.993-11.515-35.49 14.746-11.274-13.764V217L40.99 189.849l9.674-26.2-1.602-26.201-18.79-10.855v-42.51l41.549-21.127z" stroke="#000" stroke-opacity=".05" stroke-width="1.5"/><path d="M79.106 78.45l21.71 13.695h18.701l16.719-12.024 15.404 10.861 18.917-.45-1.001 31.437 16.035 1.716 4.358 23.385-7.48 25.26 12.468 7.128 2.322 49.334-40.626.429-9.809 12.434-32.552 3.026-13.107-9.525-28.703 11.484-9.02-11.827v-26.27l-9.02-25.44 7.219-21.169-1.801-21.169-15.033-9.774V95.894l34.3-17.444z" stroke="#000" stroke-opacity=".05" stroke-width="1.5"/><path d="M86.39 93.945l17.608 9.594h17.522l13.759-7.738 12.773 9.426 14.505 1.261-.434 25.176 13.473 1.907 3.553 19.683-5.325 21.09 7.815 5.346.204 37-32.315.477-9.203 9.481-26.804 3.362-10.22-7.535-21.918 8.221-6.765-9.889v-20.722l-6.765-23.729 4.764-16.137-2.002-16.138-11.274-8.692v-27.685l27.05-13.76z" stroke="#000" stroke-opacity=".05" stroke-width="1.5"/><path d="M93.675 109.439l13.506 5.494h16.343l10.798-3.452 10.141 7.991 10.093 2.972.134 18.915 10.912 2.098 2.748 15.981-3.171 16.92 3.161 3.564-1.913 24.667-24.004.524-8.596 6.527-21.056 3.699-7.335-5.546-15.132 4.959-4.51-7.952v-15.174l-4.51-22.016 2.309-11.106-2.202-11.107-7.516-7.61v-20.273l19.8-10.075z" stroke="#000" stroke-opacity=".05" stroke-width="1.5"/><path d="M100.959 124.934l9.404 1.393h15.164l7.838.835 7.51 6.556 5.681 4.682.701 12.655 8.35 2.288 1.944 12.28-1.017 12.749-1.493 1.782-4.029 12.334-15.694.572-7.989 3.573-15.309 4.035-4.448-3.556-8.347 1.697-2.255-6.015v-9.625l-2.255-20.305-.146-6.075-2.402-6.075-3.758-6.529v-12.86l12.55-6.391z" stroke="#000" stroke-opacity=".05" stroke-width="1.5"/><path d="M102.768 412.032v-11.904l-55.392-12.864v-22.848l-11.328-2.592v57.6l11.328 2.592v-22.848l55.392 12.864zm-1.536-1.92L45.84 397.248v22.848l-8.256-1.824v-54.528l8.256 1.824v22.848l55.392 12.864v8.832zm1.536-43.782v-12l-25.248-5.856v-12.288l25.248-12.768v-14.784l-26.4 13.44c-2.688-10.272-9.792-17.472-19.392-19.68-12.672-2.88-20.928 4.8-20.928 19.2v29.28l66.72 15.456zm-1.536-1.92l-63.648-14.688v-28.128c0-13.44 7.392-20.352 19.008-17.664 9.696 2.208 16.608 9.696 18.72 20.448l25.92-13.248v11.328l-25.248 12.768v14.4l25.248 5.856v8.928zM67.92 347.802V329.37c0-8.448-4.128-14.688-10.752-16.224-6.912-1.536-11.328 2.976-11.328 11.424v18.144l22.08 5.088zm-1.536-1.92l-19.008-4.32V324.57c0-7.584 3.552-11.232 9.408-9.888 5.952 1.344 9.6 6.912 9.6 14.688v16.512zm36.384-38.635v-14.113l-15.456-10.08V253.39l15.456-2.688v-13.824l-66.72 14.304v11.04l66.72 45.025zm-1.536-2.88l-63.648-42.913v-9.12l63.648-13.536v10.56l-15.456 2.688v31.776l15.456 10.08v10.465zM77.52 278.542V253.39l-29.472 5.664 29.472 19.488zm-1.536-2.88l-23.904-15.84 23.904-4.512v20.352zm26.784-47.52v-24.576c0-21.408-13.44-39.168-33.216-43.776-20.256-4.704-33.504 6.624-33.504 28.704v24.192l66.72 15.456zm-1.536-1.92l-63.648-14.688v-23.04c0-21.024 12.384-31.68 31.584-27.168 19.104 4.416 32.064 21.504 32.064 42.24v22.656zm-8.352-10.848V202.03c0-16.32-8.16-27.36-23.328-31.392-15.168-3.456-23.712 4.032-23.712 20.928v12.96l47.04 10.848zm-1.536-1.92l-43.968-10.08v-11.808c0-15.936 7.68-22.656 21.792-19.392 14.496 3.744 22.176 14.208 22.176 29.856v11.424zm11.424-58.249v-49.728l-11.328-2.688v37.728l-18.528-4.224v-29.568l-11.328-2.688v29.664l-14.208-3.264V93.189l-11.328-2.592v49.152l66.72 15.456zm-1.536-1.92l-63.648-14.688v-46.08l8.256 1.824v37.248l17.28 4.032v-29.664l8.256 1.92v29.568l21.6 4.992v-37.728l8.256 1.92v46.656zm2.976-87.295c.288-19.584-15.168-38.688-34.656-42.912-19.584-4.8-35.328 7.296-35.04 27.168-.288 19.583 15.072 38.592 34.656 42.815 19.68 4.8 35.328-7.2 35.04-27.072zm-1.536 0c.288 18.912-14.4 30.144-33.12 25.535-18.912-4.032-33.792-22.368-33.504-41.28-.288-18.815 14.496-30.24 33.12-25.631 18.816 4.031 33.792 22.56 33.504 41.376zm-8.352-2.304c0-14.209-10.176-26.4-24.768-29.76-14.688-3.36-25.248 4.32-25.248 18.623 0 14.017 10.368 26.4 24.864 29.76 14.688 3.36 25.152-4.32 25.152-18.623zm-1.536 0c0 13.247-9.504 20.256-23.232 17.087C55.632 77.606 45.84 65.799 45.84 52.55s9.6-20.352 23.328-17.088c14.016 3.167 23.616 14.783 23.616 28.223zm9.984-44.231V7.551L54.576-3.681l48.192-22.464v-12.672l-66.72-15.456v11.904l47.328 11.04L36.048-9.057V3.999l66.72 15.456zm-1.536-1.92L37.584 2.847V-8.097l50.4-23.808-50.4-11.616v-8.832l63.648 14.688v10.56l-51.264 24 51.264 11.808v8.832z" fill="#0F0B22" fill-opacity=".1"/></g><defs><linearGradient id="paint0_linear_380_207" x1="-87.725" y1="60.113" x2="342.167" y2="374.018" gradientUnits="userSpaceOnUse"><stop stop-color="#95F3BB"/><stop offset="1" stop-color="#3AFFA1"/></linearGradient><linearGradient id="paint1_linear_380_207" x1="-87.725" y1="60.113" x2="342.167" y2="374.018" gradientUnits="userSpaceOnUse"><stop stop-color="#95F3BB"/><stop offset="1" stop-color="#3AFFA1"/></linearGradient><filter id="filter0_i_380_207" x=".115" y=".037" width="341.95" height="403.028" filterUnits="userSpaceOnUse" color-interpolation-filters="sRGB"><feFlood flood-opacity="0" result="BackgroundImageFix"/><feBlend in="SourceGraphic" in2="BackgroundImageFix" result="shape"/><feColorMatrix in="SourceAlpha" values="0 0 0 0 0 0 0 0 0 0 0 0 0 0 0 0 0 0 127 0" result="hardAlpha"/><feOffset/><feGaussianBlur stdDeviation="9"/><feComposite in2="hardAlpha" operator="arithmetic" k2="-1" k3="1"/><feColorMatrix values="0 0 0 0 0 0 0 0 0 0 0 0 0 0 0 0 0 0 0.3 0"/><feBlend in2="shape" result="effect1_innerShadow_380_207"/></filter></defs></svg>