<svg width="115" height="692" fill="none" xmlns="http://www.w3.org/2000/svg"><g filter="url(#filter0_i_380_289)"><path d="M84 2c11.837-2.536 31 0 31 0v689.5s-11.444-40.181-16-66.5c-4.157-24.009-1.6-37.478-18-55.5-12.89-14.165-21.933-9.499-35-23.5-4.213-4.514-7.208-7.091-9-13-3.335-10.991 1.587-19.227 9-28 11.864-14.042 17.06-6.684 28-22 10-14 7.571-18 10-35 3.5-24.5 4.596-37.216 8-61 2.574-17.988 7.06-27.829 7-46-.059-17.785-5.638-27.267-7-45-1.347-17.522-1.614-27.501 0-45 2.28-24.717 12.54-37.221 14-62 .528-8.966 3.283-14.639 0-23-3.035-7.728-8.127-10.132-14-16-9.234-9.225-15.043-13.908-26-21-7.483-4.844-15.41-9.452-23-13.5-15-8-30-16-36.5-25-7.504-10.39-8-16-1.5-26.5 6.6-10.662 10.455-14.236 18-22.5C33.5 30 39.675 25.343 54 16 65.5 8.5 71.358 4.708 84 2z" fill="url(#paint0_linear_380_289)"/></g><defs><linearGradient id="paint0_linear_380_289" x1="-15.133" y1="782.529" x2="251.389" y2="748.046" gradientUnits="userSpaceOnUse"><stop stop-color="#F55991"/><stop offset="1" stop-color="#725DF2"/></linearGradient><filter id="filter0_i_380_289" x=".472" y=".873" width="116.528" height="690.627" filterUnits="userSpaceOnUse" color-interpolation-filters="sRGB"><feFlood flood-opacity="0" result="BackgroundImageFix"/><feBlend in="SourceGraphic" in2="BackgroundImageFix" result="shape"/><feColorMatrix in="SourceAlpha" values="0 0 0 0 0 0 0 0 0 0 0 0 0 0 0 0 0 0 127 0" result="hardAlpha"/><feOffset dx="2"/><feGaussianBlur stdDeviation="3"/><feComposite in2="hardAlpha" operator="arithmetic" k2="-1" k3="1"/><feColorMatrix values="0 0 0 0 0 0 0 0 0 0 0 0 0 0 0 0 0 0 0.5 0"/><feBlend in2="shape" result="effect1_innerShadow_380_289"/></filter></defs></svg>